<?xml version="1.0" encoding="utf-8" standalone="no"?>
<!DOCTYPE svg PUBLIC "-//W3C//DTD SVG 1.1//EN"
  "http://www.w3.org/Graphics/SVG/1.1/DTD/svg11.dtd">
<!-- Created with matplotlib (http://matplotlib.org/) -->
<svg height="345.6pt" version="1.1" viewBox="0 0 460.8 345.6" width="460.8pt" xmlns="http://www.w3.org/2000/svg" xmlns:xlink="http://www.w3.org/1999/xlink">
 <defs>
  <style type="text/css">
*{stroke-linecap:butt;stroke-linejoin:round;}
  </style>
 </defs>
 <g id="figure_1">
  <g id="patch_1">
   <path d="M 0 345.6 
L 460.8 345.6 
L 460.8 0 
L 0 0 
z
" style="fill:#ffffff;"/>
  </g>
  <g id="axes_1">
   <g id="patch_2">
    <path d="M 57.6 307.584 
L 414.72 307.584 
L 414.72 41.472 
L 57.6 41.472 
z
" style="fill:#ffffff;"/>
   </g>
   <g id="matplotlib.axis_1">
    <g id="xtick_1">
     <g id="line2d_1">
      <defs>
       <path d="M 0 0 
L 0 3.5 
" id="m0ebcd2fc65" style="stroke:#000000;stroke-width:0.8;"/>
      </defs>
      <g>
       <use style="stroke:#000000;stroke-width:0.8;" x="73.832727" xlink:href="#m0ebcd2fc65" y="307.584"/>
      </g>
     </g>
     <g id="text_1">
      <!-- 0 -->
      <defs>
       <path d="M 31.78125 66.40625 
Q 24.171875 66.40625 20.328125 58.90625 
Q 16.5 51.421875 16.5 36.375 
Q 16.5 21.390625 20.328125 13.890625 
Q 24.171875 6.390625 31.78125 6.390625 
Q 39.453125 6.390625 43.28125 13.890625 
Q 47.125 21.390625 47.125 36.375 
Q 47.125 51.421875 43.28125 58.90625 
Q 39.453125 66.40625 31.78125 66.40625 
z
M 31.78125 74.21875 
Q 44.046875 74.21875 50.515625 64.515625 
Q 56.984375 54.828125 56.984375 36.375 
Q 56.984375 17.96875 50.515625 8.265625 
Q 44.046875 -1.421875 31.78125 -1.421875 
Q 19.53125 -1.421875 13.0625 8.265625 
Q 6.59375 17.96875 6.59375 36.375 
Q 6.59375 54.828125 13.0625 64.515625 
Q 19.53125 74.21875 31.78125 74.21875 
z
" id="DejaVuSans-30"/>
      </defs>
      <g transform="translate(70.651477 322.182437)scale(0.1 -0.1)">
       <use xlink:href="#DejaVuSans-30"/>
      </g>
     </g>
    </g>
    <g id="xtick_2">
     <g id="line2d_2">
      <g>
       <use style="stroke:#000000;stroke-width:0.8;" x="126.622084" xlink:href="#m0ebcd2fc65" y="307.584"/>
      </g>
     </g>
     <g id="text_2">
      <!-- 200 -->
      <defs>
       <path d="M 19.1875 8.296875 
L 53.609375 8.296875 
L 53.609375 0 
L 7.328125 0 
L 7.328125 8.296875 
Q 12.9375 14.109375 22.625 23.890625 
Q 32.328125 33.6875 34.8125 36.53125 
Q 39.546875 41.84375 41.421875 45.53125 
Q 43.3125 49.21875 43.3125 52.78125 
Q 43.3125 58.59375 39.234375 62.25 
Q 35.15625 65.921875 28.609375 65.921875 
Q 23.96875 65.921875 18.8125 64.3125 
Q 13.671875 62.703125 7.8125 59.421875 
L 7.8125 69.390625 
Q 13.765625 71.78125 18.9375 73 
Q 24.125 74.21875 28.421875 74.21875 
Q 39.75 74.21875 46.484375 68.546875 
Q 53.21875 62.890625 53.21875 53.421875 
Q 53.21875 48.921875 51.53125 44.890625 
Q 49.859375 40.875 45.40625 35.40625 
Q 44.1875 33.984375 37.640625 27.21875 
Q 31.109375 20.453125 19.1875 8.296875 
z
" id="DejaVuSans-32"/>
      </defs>
      <g transform="translate(117.078334 322.182437)scale(0.1 -0.1)">
       <use xlink:href="#DejaVuSans-32"/>
       <use x="63.623047" xlink:href="#DejaVuSans-30"/>
       <use x="127.246094" xlink:href="#DejaVuSans-30"/>
      </g>
     </g>
    </g>
    <g id="xtick_3">
     <g id="line2d_3">
      <g>
       <use style="stroke:#000000;stroke-width:0.8;" x="179.411441" xlink:href="#m0ebcd2fc65" y="307.584"/>
      </g>
     </g>
     <g id="text_3">
      <!-- 400 -->
      <defs>
       <path d="M 37.796875 64.3125 
L 12.890625 25.390625 
L 37.796875 25.390625 
z
M 35.203125 72.90625 
L 47.609375 72.90625 
L 47.609375 25.390625 
L 58.015625 25.390625 
L 58.015625 17.1875 
L 47.609375 17.1875 
L 47.609375 0 
L 37.796875 0 
L 37.796875 17.1875 
L 4.890625 17.1875 
L 4.890625 26.703125 
z
" id="DejaVuSans-34"/>
      </defs>
      <g transform="translate(169.867691 322.182437)scale(0.1 -0.1)">
       <use xlink:href="#DejaVuSans-34"/>
       <use x="63.623047" xlink:href="#DejaVuSans-30"/>
       <use x="127.246094" xlink:href="#DejaVuSans-30"/>
      </g>
     </g>
    </g>
    <g id="xtick_4">
     <g id="line2d_4">
      <g>
       <use style="stroke:#000000;stroke-width:0.8;" x="232.200798" xlink:href="#m0ebcd2fc65" y="307.584"/>
      </g>
     </g>
     <g id="text_4">
      <!-- 600 -->
      <defs>
       <path d="M 33.015625 40.375 
Q 26.375 40.375 22.484375 35.828125 
Q 18.609375 31.296875 18.609375 23.390625 
Q 18.609375 15.53125 22.484375 10.953125 
Q 26.375 6.390625 33.015625 6.390625 
Q 39.65625 6.390625 43.53125 10.953125 
Q 47.40625 15.53125 47.40625 23.390625 
Q 47.40625 31.296875 43.53125 35.828125 
Q 39.65625 40.375 33.015625 40.375 
z
M 52.59375 71.296875 
L 52.59375 62.3125 
Q 48.875 64.0625 45.09375 64.984375 
Q 41.3125 65.921875 37.59375 65.921875 
Q 27.828125 65.921875 22.671875 59.328125 
Q 17.53125 52.734375 16.796875 39.40625 
Q 19.671875 43.65625 24.015625 45.921875 
Q 28.375 48.1875 33.59375 48.1875 
Q 44.578125 48.1875 50.953125 41.515625 
Q 57.328125 34.859375 57.328125 23.390625 
Q 57.328125 12.15625 50.6875 5.359375 
Q 44.046875 -1.421875 33.015625 -1.421875 
Q 20.359375 -1.421875 13.671875 8.265625 
Q 6.984375 17.96875 6.984375 36.375 
Q 6.984375 53.65625 15.1875 63.9375 
Q 23.390625 74.21875 37.203125 74.21875 
Q 40.921875 74.21875 44.703125 73.484375 
Q 48.484375 72.75 52.59375 71.296875 
z
" id="DejaVuSans-36"/>
      </defs>
      <g transform="translate(222.657048 322.182437)scale(0.1 -0.1)">
       <use xlink:href="#DejaVuSans-36"/>
       <use x="63.623047" xlink:href="#DejaVuSans-30"/>
       <use x="127.246094" xlink:href="#DejaVuSans-30"/>
      </g>
     </g>
    </g>
    <g id="xtick_5">
     <g id="line2d_5">
      <g>
       <use style="stroke:#000000;stroke-width:0.8;" x="284.990155" xlink:href="#m0ebcd2fc65" y="307.584"/>
      </g>
     </g>
     <g id="text_5">
      <!-- 800 -->
      <defs>
       <path d="M 31.78125 34.625 
Q 24.75 34.625 20.71875 30.859375 
Q 16.703125 27.09375 16.703125 20.515625 
Q 16.703125 13.921875 20.71875 10.15625 
Q 24.75 6.390625 31.78125 6.390625 
Q 38.8125 6.390625 42.859375 10.171875 
Q 46.921875 13.96875 46.921875 20.515625 
Q 46.921875 27.09375 42.890625 30.859375 
Q 38.875 34.625 31.78125 34.625 
z
M 21.921875 38.8125 
Q 15.578125 40.375 12.03125 44.71875 
Q 8.5 49.078125 8.5 55.328125 
Q 8.5 64.0625 14.71875 69.140625 
Q 20.953125 74.21875 31.78125 74.21875 
Q 42.671875 74.21875 48.875 69.140625 
Q 55.078125 64.0625 55.078125 55.328125 
Q 55.078125 49.078125 51.53125 44.71875 
Q 48 40.375 41.703125 38.8125 
Q 48.828125 37.15625 52.796875 32.3125 
Q 56.78125 27.484375 56.78125 20.515625 
Q 56.78125 9.90625 50.3125 4.234375 
Q 43.84375 -1.421875 31.78125 -1.421875 
Q 19.734375 -1.421875 13.25 4.234375 
Q 6.78125 9.90625 6.78125 20.515625 
Q 6.78125 27.484375 10.78125 32.3125 
Q 14.796875 37.15625 21.921875 38.8125 
z
M 18.3125 54.390625 
Q 18.3125 48.734375 21.84375 45.5625 
Q 25.390625 42.390625 31.78125 42.390625 
Q 38.140625 42.390625 41.71875 45.5625 
Q 45.3125 48.734375 45.3125 54.390625 
Q 45.3125 60.0625 41.71875 63.234375 
Q 38.140625 66.40625 31.78125 66.40625 
Q 25.390625 66.40625 21.84375 63.234375 
Q 18.3125 60.0625 18.3125 54.390625 
z
" id="DejaVuSans-38"/>
      </defs>
      <g transform="translate(275.446405 322.182437)scale(0.1 -0.1)">
       <use xlink:href="#DejaVuSans-38"/>
       <use x="63.623047" xlink:href="#DejaVuSans-30"/>
       <use x="127.246094" xlink:href="#DejaVuSans-30"/>
      </g>
     </g>
    </g>
    <g id="xtick_6">
     <g id="line2d_6">
      <g>
       <use style="stroke:#000000;stroke-width:0.8;" x="337.779512" xlink:href="#m0ebcd2fc65" y="307.584"/>
      </g>
     </g>
     <g id="text_6">
      <!-- 1000 -->
      <defs>
       <path d="M 12.40625 8.296875 
L 28.515625 8.296875 
L 28.515625 63.921875 
L 10.984375 60.40625 
L 10.984375 69.390625 
L 28.421875 72.90625 
L 38.28125 72.90625 
L 38.28125 8.296875 
L 54.390625 8.296875 
L 54.390625 0 
L 12.40625 0 
z
" id="DejaVuSans-31"/>
      </defs>
      <g transform="translate(325.054512 322.182437)scale(0.1 -0.1)">
       <use xlink:href="#DejaVuSans-31"/>
       <use x="63.623047" xlink:href="#DejaVuSans-30"/>
       <use x="127.246094" xlink:href="#DejaVuSans-30"/>
       <use x="190.869141" xlink:href="#DejaVuSans-30"/>
      </g>
     </g>
    </g>
    <g id="xtick_7">
     <g id="line2d_7">
      <g>
       <use style="stroke:#000000;stroke-width:0.8;" x="390.568869" xlink:href="#m0ebcd2fc65" y="307.584"/>
      </g>
     </g>
     <g id="text_7">
      <!-- 1200 -->
      <g transform="translate(377.843869 322.182437)scale(0.1 -0.1)">
       <use xlink:href="#DejaVuSans-31"/>
       <use x="63.623047" xlink:href="#DejaVuSans-32"/>
       <use x="127.246094" xlink:href="#DejaVuSans-30"/>
       <use x="190.869141" xlink:href="#DejaVuSans-30"/>
      </g>
     </g>
    </g>
    <g id="text_8">
     <!-- step passed -->
     <defs>
      <path d="M 44.28125 53.078125 
L 44.28125 44.578125 
Q 40.484375 46.53125 36.375 47.5 
Q 32.28125 48.484375 27.875 48.484375 
Q 21.1875 48.484375 17.84375 46.4375 
Q 14.5 44.390625 14.5 40.28125 
Q 14.5 37.15625 16.890625 35.375 
Q 19.28125 33.59375 26.515625 31.984375 
L 29.59375 31.296875 
Q 39.15625 29.25 43.1875 25.515625 
Q 47.21875 21.78125 47.21875 15.09375 
Q 47.21875 7.46875 41.1875 3.015625 
Q 35.15625 -1.421875 24.609375 -1.421875 
Q 20.21875 -1.421875 15.453125 -0.5625 
Q 10.6875 0.296875 5.421875 2 
L 5.421875 11.28125 
Q 10.40625 8.6875 15.234375 7.390625 
Q 20.0625 6.109375 24.8125 6.109375 
Q 31.15625 6.109375 34.5625 8.28125 
Q 37.984375 10.453125 37.984375 14.40625 
Q 37.984375 18.0625 35.515625 20.015625 
Q 33.0625 21.96875 24.703125 23.78125 
L 21.578125 24.515625 
Q 13.234375 26.265625 9.515625 29.90625 
Q 5.8125 33.546875 5.8125 39.890625 
Q 5.8125 47.609375 11.28125 51.796875 
Q 16.75 56 26.8125 56 
Q 31.78125 56 36.171875 55.265625 
Q 40.578125 54.546875 44.28125 53.078125 
z
" id="DejaVuSans-73"/>
      <path d="M 18.3125 70.21875 
L 18.3125 54.6875 
L 36.8125 54.6875 
L 36.8125 47.703125 
L 18.3125 47.703125 
L 18.3125 18.015625 
Q 18.3125 11.328125 20.140625 9.421875 
Q 21.96875 7.515625 27.59375 7.515625 
L 36.8125 7.515625 
L 36.8125 0 
L 27.59375 0 
Q 17.1875 0 13.234375 3.875 
Q 9.28125 7.765625 9.28125 18.015625 
L 9.28125 47.703125 
L 2.6875 47.703125 
L 2.6875 54.6875 
L 9.28125 54.6875 
L 9.28125 70.21875 
z
" id="DejaVuSans-74"/>
      <path d="M 56.203125 29.59375 
L 56.203125 25.203125 
L 14.890625 25.203125 
Q 15.484375 15.921875 20.484375 11.0625 
Q 25.484375 6.203125 34.421875 6.203125 
Q 39.59375 6.203125 44.453125 7.46875 
Q 49.3125 8.734375 54.109375 11.28125 
L 54.109375 2.78125 
Q 49.265625 0.734375 44.1875 -0.34375 
Q 39.109375 -1.421875 33.890625 -1.421875 
Q 20.796875 -1.421875 13.15625 6.1875 
Q 5.515625 13.8125 5.515625 26.8125 
Q 5.515625 40.234375 12.765625 48.109375 
Q 20.015625 56 32.328125 56 
Q 43.359375 56 49.78125 48.890625 
Q 56.203125 41.796875 56.203125 29.59375 
z
M 47.21875 32.234375 
Q 47.125 39.59375 43.09375 43.984375 
Q 39.0625 48.390625 32.421875 48.390625 
Q 24.90625 48.390625 20.390625 44.140625 
Q 15.875 39.890625 15.1875 32.171875 
z
" id="DejaVuSans-65"/>
      <path d="M 18.109375 8.203125 
L 18.109375 -20.796875 
L 9.078125 -20.796875 
L 9.078125 54.6875 
L 18.109375 54.6875 
L 18.109375 46.390625 
Q 20.953125 51.265625 25.265625 53.625 
Q 29.59375 56 35.59375 56 
Q 45.5625 56 51.78125 48.09375 
Q 58.015625 40.1875 58.015625 27.296875 
Q 58.015625 14.40625 51.78125 6.484375 
Q 45.5625 -1.421875 35.59375 -1.421875 
Q 29.59375 -1.421875 25.265625 0.953125 
Q 20.953125 3.328125 18.109375 8.203125 
z
M 48.6875 27.296875 
Q 48.6875 37.203125 44.609375 42.84375 
Q 40.53125 48.484375 33.40625 48.484375 
Q 26.265625 48.484375 22.1875 42.84375 
Q 18.109375 37.203125 18.109375 27.296875 
Q 18.109375 17.390625 22.1875 11.75 
Q 26.265625 6.109375 33.40625 6.109375 
Q 40.53125 6.109375 44.609375 11.75 
Q 48.6875 17.390625 48.6875 27.296875 
z
" id="DejaVuSans-70"/>
      <path id="DejaVuSans-20"/>
      <path d="M 34.28125 27.484375 
Q 23.390625 27.484375 19.1875 25 
Q 14.984375 22.515625 14.984375 16.5 
Q 14.984375 11.71875 18.140625 8.90625 
Q 21.296875 6.109375 26.703125 6.109375 
Q 34.1875 6.109375 38.703125 11.40625 
Q 43.21875 16.703125 43.21875 25.484375 
L 43.21875 27.484375 
z
M 52.203125 31.203125 
L 52.203125 0 
L 43.21875 0 
L 43.21875 8.296875 
Q 40.140625 3.328125 35.546875 0.953125 
Q 30.953125 -1.421875 24.3125 -1.421875 
Q 15.921875 -1.421875 10.953125 3.296875 
Q 6 8.015625 6 15.921875 
Q 6 25.140625 12.171875 29.828125 
Q 18.359375 34.515625 30.609375 34.515625 
L 43.21875 34.515625 
L 43.21875 35.40625 
Q 43.21875 41.609375 39.140625 45 
Q 35.0625 48.390625 27.6875 48.390625 
Q 23 48.390625 18.546875 47.265625 
Q 14.109375 46.140625 10.015625 43.890625 
L 10.015625 52.203125 
Q 14.9375 54.109375 19.578125 55.046875 
Q 24.21875 56 28.609375 56 
Q 40.484375 56 46.34375 49.84375 
Q 52.203125 43.703125 52.203125 31.203125 
z
" id="DejaVuSans-61"/>
      <path d="M 45.40625 46.390625 
L 45.40625 75.984375 
L 54.390625 75.984375 
L 54.390625 0 
L 45.40625 0 
L 45.40625 8.203125 
Q 42.578125 3.328125 38.25 0.953125 
Q 33.9375 -1.421875 27.875 -1.421875 
Q 17.96875 -1.421875 11.734375 6.484375 
Q 5.515625 14.40625 5.515625 27.296875 
Q 5.515625 40.1875 11.734375 48.09375 
Q 17.96875 56 27.875 56 
Q 33.9375 56 38.25 53.625 
Q 42.578125 51.265625 45.40625 46.390625 
z
M 14.796875 27.296875 
Q 14.796875 17.390625 18.875 11.75 
Q 22.953125 6.109375 30.078125 6.109375 
Q 37.203125 6.109375 41.296875 11.75 
Q 45.40625 17.390625 45.40625 27.296875 
Q 45.40625 37.203125 41.296875 42.84375 
Q 37.203125 48.484375 30.078125 48.484375 
Q 22.953125 48.484375 18.875 42.84375 
Q 14.796875 37.203125 14.796875 27.296875 
z
" id="DejaVuSans-64"/>
     </defs>
     <g transform="translate(206.056875 335.860562)scale(0.1 -0.1)">
      <use xlink:href="#DejaVuSans-73"/>
      <use x="52.099609" xlink:href="#DejaVuSans-74"/>
      <use x="91.308594" xlink:href="#DejaVuSans-65"/>
      <use x="152.832031" xlink:href="#DejaVuSans-70"/>
      <use x="216.308594" xlink:href="#DejaVuSans-20"/>
      <use x="248.095703" xlink:href="#DejaVuSans-70"/>
      <use x="311.572266" xlink:href="#DejaVuSans-61"/>
      <use x="372.851562" xlink:href="#DejaVuSans-73"/>
      <use x="424.951172" xlink:href="#DejaVuSans-73"/>
      <use x="477.050781" xlink:href="#DejaVuSans-65"/>
      <use x="538.574219" xlink:href="#DejaVuSans-64"/>
     </g>
    </g>
   </g>
   <g id="matplotlib.axis_2">
    <g id="ytick_1">
     <g id="line2d_8">
      <defs>
       <path d="M 0 0 
L -3.5 0 
" id="mce0b938ecd" style="stroke:#000000;stroke-width:0.8;"/>
      </defs>
      <g>
       <use style="stroke:#000000;stroke-width:0.8;" x="57.6" xlink:href="#mce0b938ecd" y="298.098346"/>
      </g>
     </g>
     <g id="text_9">
      <!-- 4.050 -->
      <defs>
       <path d="M 10.6875 12.40625 
L 21 12.40625 
L 21 0 
L 10.6875 0 
z
" id="DejaVuSans-2e"/>
       <path d="M 10.796875 72.90625 
L 49.515625 72.90625 
L 49.515625 64.59375 
L 19.828125 64.59375 
L 19.828125 46.734375 
Q 21.96875 47.46875 24.109375 47.828125 
Q 26.265625 48.1875 28.421875 48.1875 
Q 40.625 48.1875 47.75 41.5 
Q 54.890625 34.8125 54.890625 23.390625 
Q 54.890625 11.625 47.5625 5.09375 
Q 40.234375 -1.421875 26.90625 -1.421875 
Q 22.3125 -1.421875 17.546875 -0.640625 
Q 12.796875 0.140625 7.71875 1.703125 
L 7.71875 11.625 
Q 12.109375 9.234375 16.796875 8.0625 
Q 21.484375 6.890625 26.703125 6.890625 
Q 35.15625 6.890625 40.078125 11.328125 
Q 45.015625 15.765625 45.015625 23.390625 
Q 45.015625 31 40.078125 35.4375 
Q 35.15625 39.890625 26.703125 39.890625 
Q 22.75 39.890625 18.8125 39.015625 
Q 14.890625 38.140625 10.796875 36.28125 
z
" id="DejaVuSans-35"/>
      </defs>
      <g transform="translate(21.971875 301.897565)scale(0.1 -0.1)">
       <use xlink:href="#DejaVuSans-34"/>
       <use x="63.623047" xlink:href="#DejaVuSans-2e"/>
       <use x="95.410156" xlink:href="#DejaVuSans-30"/>
       <use x="159.033203" xlink:href="#DejaVuSans-35"/>
       <use x="222.65625" xlink:href="#DejaVuSans-30"/>
      </g>
     </g>
    </g>
    <g id="ytick_2">
     <g id="line2d_9">
      <g>
       <use style="stroke:#000000;stroke-width:0.8;" x="57.6" xlink:href="#mce0b938ecd" y="263.344392"/>
      </g>
     </g>
     <g id="text_10">
      <!-- 4.075 -->
      <defs>
       <path d="M 8.203125 72.90625 
L 55.078125 72.90625 
L 55.078125 68.703125 
L 28.609375 0 
L 18.3125 0 
L 43.21875 64.59375 
L 8.203125 64.59375 
z
" id="DejaVuSans-37"/>
      </defs>
      <g transform="translate(21.971875 267.14361)scale(0.1 -0.1)">
       <use xlink:href="#DejaVuSans-34"/>
       <use x="63.623047" xlink:href="#DejaVuSans-2e"/>
       <use x="95.410156" xlink:href="#DejaVuSans-30"/>
       <use x="159.033203" xlink:href="#DejaVuSans-37"/>
       <use x="222.65625" xlink:href="#DejaVuSans-35"/>
      </g>
     </g>
    </g>
    <g id="ytick_3">
     <g id="line2d_10">
      <g>
       <use style="stroke:#000000;stroke-width:0.8;" x="57.6" xlink:href="#mce0b938ecd" y="228.590437"/>
      </g>
     </g>
     <g id="text_11">
      <!-- 4.100 -->
      <g transform="translate(21.971875 232.389655)scale(0.1 -0.1)">
       <use xlink:href="#DejaVuSans-34"/>
       <use x="63.623047" xlink:href="#DejaVuSans-2e"/>
       <use x="95.410156" xlink:href="#DejaVuSans-31"/>
       <use x="159.033203" xlink:href="#DejaVuSans-30"/>
       <use x="222.65625" xlink:href="#DejaVuSans-30"/>
      </g>
     </g>
    </g>
    <g id="ytick_4">
     <g id="line2d_11">
      <g>
       <use style="stroke:#000000;stroke-width:0.8;" x="57.6" xlink:href="#mce0b938ecd" y="193.836482"/>
      </g>
     </g>
     <g id="text_12">
      <!-- 4.125 -->
      <g transform="translate(21.971875 197.6357)scale(0.1 -0.1)">
       <use xlink:href="#DejaVuSans-34"/>
       <use x="63.623047" xlink:href="#DejaVuSans-2e"/>
       <use x="95.410156" xlink:href="#DejaVuSans-31"/>
       <use x="159.033203" xlink:href="#DejaVuSans-32"/>
       <use x="222.65625" xlink:href="#DejaVuSans-35"/>
      </g>
     </g>
    </g>
    <g id="ytick_5">
     <g id="line2d_12">
      <g>
       <use style="stroke:#000000;stroke-width:0.8;" x="57.6" xlink:href="#mce0b938ecd" y="159.082527"/>
      </g>
     </g>
     <g id="text_13">
      <!-- 4.150 -->
      <g transform="translate(21.971875 162.881746)scale(0.1 -0.1)">
       <use xlink:href="#DejaVuSans-34"/>
       <use x="63.623047" xlink:href="#DejaVuSans-2e"/>
       <use x="95.410156" xlink:href="#DejaVuSans-31"/>
       <use x="159.033203" xlink:href="#DejaVuSans-35"/>
       <use x="222.65625" xlink:href="#DejaVuSans-30"/>
      </g>
     </g>
    </g>
    <g id="ytick_6">
     <g id="line2d_13">
      <g>
       <use style="stroke:#000000;stroke-width:0.8;" x="57.6" xlink:href="#mce0b938ecd" y="124.328572"/>
      </g>
     </g>
     <g id="text_14">
      <!-- 4.175 -->
      <g transform="translate(21.971875 128.127791)scale(0.1 -0.1)">
       <use xlink:href="#DejaVuSans-34"/>
       <use x="63.623047" xlink:href="#DejaVuSans-2e"/>
       <use x="95.410156" xlink:href="#DejaVuSans-31"/>
       <use x="159.033203" xlink:href="#DejaVuSans-37"/>
       <use x="222.65625" xlink:href="#DejaVuSans-35"/>
      </g>
     </g>
    </g>
    <g id="ytick_7">
     <g id="line2d_14">
      <g>
       <use style="stroke:#000000;stroke-width:0.8;" x="57.6" xlink:href="#mce0b938ecd" y="89.574617"/>
      </g>
     </g>
     <g id="text_15">
      <!-- 4.200 -->
      <g transform="translate(21.971875 93.373836)scale(0.1 -0.1)">
       <use xlink:href="#DejaVuSans-34"/>
       <use x="63.623047" xlink:href="#DejaVuSans-2e"/>
       <use x="95.410156" xlink:href="#DejaVuSans-32"/>
       <use x="159.033203" xlink:href="#DejaVuSans-30"/>
       <use x="222.65625" xlink:href="#DejaVuSans-30"/>
      </g>
     </g>
    </g>
    <g id="ytick_8">
     <g id="line2d_15">
      <g>
       <use style="stroke:#000000;stroke-width:0.8;" x="57.6" xlink:href="#mce0b938ecd" y="54.820662"/>
      </g>
     </g>
     <g id="text_16">
      <!-- 4.225 -->
      <g transform="translate(21.971875 58.619881)scale(0.1 -0.1)">
       <use xlink:href="#DejaVuSans-34"/>
       <use x="63.623047" xlink:href="#DejaVuSans-2e"/>
       <use x="95.410156" xlink:href="#DejaVuSans-32"/>
       <use x="159.033203" xlink:href="#DejaVuSans-32"/>
       <use x="222.65625" xlink:href="#DejaVuSans-35"/>
      </g>
     </g>
    </g>
    <g id="text_17">
     <!-- Loss -->
     <defs>
      <path d="M 9.8125 72.90625 
L 19.671875 72.90625 
L 19.671875 8.296875 
L 55.171875 8.296875 
L 55.171875 0 
L 9.8125 0 
z
" id="DejaVuSans-4c"/>
      <path d="M 30.609375 48.390625 
Q 23.390625 48.390625 19.1875 42.75 
Q 14.984375 37.109375 14.984375 27.296875 
Q 14.984375 17.484375 19.15625 11.84375 
Q 23.34375 6.203125 30.609375 6.203125 
Q 37.796875 6.203125 41.984375 11.859375 
Q 46.1875 17.53125 46.1875 27.296875 
Q 46.1875 37.015625 41.984375 42.703125 
Q 37.796875 48.390625 30.609375 48.390625 
z
M 30.609375 56 
Q 42.328125 56 49.015625 48.375 
Q 55.71875 40.765625 55.71875 27.296875 
Q 55.71875 13.875 49.015625 6.21875 
Q 42.328125 -1.421875 30.609375 -1.421875 
Q 18.84375 -1.421875 12.171875 6.21875 
Q 5.515625 13.875 5.515625 27.296875 
Q 5.515625 40.765625 12.171875 48.375 
Q 18.84375 56 30.609375 56 
z
" id="DejaVuSans-6f"/>
     </defs>
     <g transform="translate(15.892188 185.581906)rotate(-90)scale(0.1 -0.1)">
      <use xlink:href="#DejaVuSans-4c"/>
      <use x="55.697266" xlink:href="#DejaVuSans-6f"/>
      <use x="116.878906" xlink:href="#DejaVuSans-73"/>
      <use x="168.978516" xlink:href="#DejaVuSans-73"/>
     </g>
    </g>
   </g>
   <g id="line2d_16">
    <path clip-path="url(#pfe353c5300)" d="M 73.832727 178.433896 
L 74.096674 164.6297 
L 74.360621 249.643251 
L 74.624568 175.270114 
L 75.152461 237.204774 
L 75.680355 164.571624 
L 75.944302 189.260583 
L 76.208248 160.027308 
L 76.472195 214.24779 
L 76.736142 204.235221 
L 77.000089 168.012607 
L 77.264035 202.052426 
L 77.527982 191.552455 
L 77.791929 242.861588 
L 78.319823 180.416844 
L 78.583769 194.436885 
L 78.847716 192.608761 
L 79.111663 215.25588 
L 79.37561 205.69375 
L 79.639557 183.945729 
L 79.903503 193.544693 
L 80.16745 210.370242 
L 80.431397 177.582383 
L 80.695344 191.686575 
L 80.95929 164.565945 
L 81.223237 222.40506 
L 81.487184 198.648904 
L 81.751131 222.543191 
L 82.015078 213.363692 
L 82.279024 208.125237 
L 82.542971 179.545364 
L 82.806918 218.02752 
L 83.070865 196.121967 
L 83.334812 295.488 
L 83.598758 224.722025 
L 83.862705 201.619147 
L 84.126652 215.634434 
L 84.390599 204.929064 
L 84.654545 186.165102 
L 84.918492 203.594377 
L 85.182439 206.418179 
L 85.446386 216.894114 
L 85.710333 178.852541 
L 85.974279 225.170282 
L 86.502173 173.548632 
L 86.76612 234.898867 
L 87.030067 241.960395 
L 87.294013 172.661279 
L 87.55796 221.198666 
L 87.821907 206.127179 
L 88.085854 204.265285 
L 88.3498 208.810559 
L 88.613747 249.128415 
L 88.877694 182.449699 
L 89.141641 222.912696 
L 89.405588 191.487951 
L 89.669534 197.610648 
L 89.933481 226.184706 
L 90.197428 190.328601 
L 90.461375 213.051356 
L 90.725322 188.755849 
L 90.989268 246.070055 
L 91.253215 205.575459 
L 91.517162 246.502861 
L 91.781109 215.175161 
L 92.045055 212.519999 
L 92.309002 198.422844 
L 92.836896 195.597075 
L 93.100843 170.873892 
L 93.364789 170.324949 
L 93.628736 192.900569 
L 93.892683 199.428015 
L 94.15663 191.018446 
L 94.420576 214.600318 
L 94.684523 198.799789 
L 94.94847 153.428857 
L 95.212417 227.054224 
L 95.476364 198.188687 
L 96.004257 214.995846 
L 96.268204 186.243279 
L 96.532151 197.928324 
L 96.796098 184.414367 
L 97.060044 176.880988 
L 97.323991 209.002834 
L 97.587938 222.926916 
L 97.851885 204.950102 
L 98.115831 169.781725 
L 98.643725 212.026139 
L 98.907672 206.780982 
L 99.171619 192.933205 
L 99.435565 223.304932 
L 99.699512 151.517105 
L 99.963459 166.464622 
L 100.227406 216.097059 
L 100.491353 178.309448 
L 100.755299 196.051767 
L 101.019246 200.516922 
L 101.283193 231.660446 
L 101.54714 225.587314 
L 101.811086 212.552469 
L 102.075033 140.836591 
L 102.33898 222.022379 
L 102.602927 248.762523 
L 102.866874 192.225551 
L 103.13082 235.725002 
L 103.658714 170.308779 
L 103.922661 153.118405 
L 104.186608 203.287943 
L 104.450554 172.821186 
L 104.714501 170.715795 
L 104.978448 214.90177 
L 105.242395 207.238232 
L 105.506341 179.348035 
L 105.770288 184.990425 
L 106.034235 186.170537 
L 106.562129 237.288618 
L 106.826075 255.421341 
L 107.090022 171.319796 
L 107.353969 195.052046 
L 107.617916 207.691718 
L 107.881863 206.588323 
L 108.145809 196.555588 
L 108.409756 168.371441 
L 108.673703 175.250672 
L 108.93765 169.518787 
L 109.201596 196.300207 
L 109.465543 202.487027 
L 109.72949 270.167938 
L 109.993437 196.626928 
L 110.257384 210.848869 
L 110.52133 198.510173 
L 110.785277 216.660751 
L 111.049224 185.336368 
L 111.313171 186.288683 
L 111.841064 208.015326 
L 112.105011 200.926174 
L 112.368958 190.740478 
L 112.632905 194.106647 
L 112.896851 221.104546 
L 113.160798 174.626386 
L 113.424745 225.762881 
L 113.688692 157.276467 
L 113.952639 149.610081 
L 114.216585 212.032402 
L 114.480532 191.113489 
L 114.744479 193.387365 
L 115.008426 201.077792 
L 115.272373 253.194875 
L 115.536319 206.442273 
L 115.800266 191.173225 
L 116.064213 247.691023 
L 116.32816 186.480296 
L 116.592106 248.307498 
L 117.12 174.130946 
L 117.383947 210.211323 
L 117.647894 212.395824 
L 117.91184 207.753927 
L 118.175787 192.596916 
L 118.439734 187.237087 
L 118.703681 202.352774 
L 118.967627 209.234315 
L 119.231574 199.787044 
L 119.495521 212.621565 
L 119.759468 185.117156 
L 120.023415 212.658895 
L 120.287361 209.814154 
L 120.551308 156.097336 
L 120.815255 202.249726 
L 121.079202 184.197553 
L 121.343149 190.461727 
L 121.607095 159.96583 
L 121.871042 232.180709 
L 122.134989 165.283864 
L 122.398936 198.902139 
L 122.662882 196.512896 
L 122.926829 131.497854 
L 123.190776 169.5719 
L 123.454723 190.293487 
L 123.71867 189.934944 
L 124.51051 237.745173 
L 124.774457 259.939817 
L 125.038404 248.312902 
L 125.30235 189.156644 
L 125.566297 188.113906 
L 126.094191 198.061572 
L 126.358137 201.300042 
L 126.622084 242.589817 
L 127.149978 179.894391 
L 127.413925 180.612262 
L 127.677871 208.74467 
L 127.941818 199.36809 
L 128.205765 167.375919 
L 128.733659 188.6843 
L 128.997605 211.224272 
L 129.261552 220.091194 
L 129.525499 198.50129 
L 129.789446 186.586764 
L 130.053392 215.632594 
L 130.581286 171.586928 
L 130.845233 282.822672 
L 131.10918 199.007373 
L 131.373126 243.020237 
L 131.637073 166.365453 
L 131.90102 190.524177 
L 132.164967 188.130626 
L 132.428914 189.413182 
L 132.69286 208.238068 
L 132.956807 236.525811 
L 133.220754 147.665485 
L 133.484701 217.986145 
L 133.748647 225.005834 
L 134.012594 218.876341 
L 134.276541 199.211208 
L 134.540488 212.336438 
L 134.804435 171.970414 
L 135.068381 168.261811 
L 135.332328 172.066262 
L 135.596275 183.810851 
L 135.860222 164.020546 
L 136.124169 190.493908 
L 136.388115 183.024371 
L 136.652062 194.04512 
L 136.916009 183.074249 
L 137.443902 202.302015 
L 137.707849 194.822107 
L 137.971796 211.725363 
L 138.235743 210.410332 
L 138.49969 167.478244 
L 138.763636 197.616653 
L 139.027583 182.089452 
L 139.29153 186.75477 
L 139.555477 186.990518 
L 139.819424 177.970705 
L 140.08337 211.336716 
L 140.347317 184.510023 
L 140.611264 218.10196 
L 140.875211 202.359914 
L 141.139157 240.317033 
L 141.403104 241.673283 
L 141.667051 209.198114 
L 141.930998 205.945072 
L 142.194945 218.967112 
L 142.458891 213.489878 
L 142.722838 170.028171 
L 142.986785 203.708619 
L 143.250732 218.336955 
L 143.514678 137.272821 
L 143.778625 228.302083 
L 144.042572 193.266436 
L 144.306519 200.449468 
L 144.570466 180.246791 
L 144.834412 184.029716 
L 145.098359 181.082176 
L 145.362306 227.552639 
L 145.626253 207.846932 
L 145.8902 170.11334 
L 146.154146 192.029803 
L 146.418093 198.306111 
L 146.68204 197.975593 
L 146.945987 205.567691 
L 147.209933 194.909092 
L 147.737827 212.785772 
L 148.001774 128.243956 
L 148.265721 179.275976 
L 148.529667 189.986646 
L 148.793614 193.603331 
L 149.057561 180.849401 
L 149.321508 178.462374 
L 149.585455 226.611379 
L 149.849401 191.397608 
L 150.113348 225.82357 
L 150.377295 192.266443 
L 150.641242 196.820675 
L 150.905188 192.358275 
L 151.169135 197.269104 
L 151.433082 218.069309 
L 151.697029 170.571436 
L 151.960976 217.0572 
L 152.224922 155.409477 
L 152.488869 195.292724 
L 152.752816 184.418114 
L 153.016763 160.236552 
L 153.28071 219.121521 
L 153.544656 174.125391 
L 153.808603 213.889928 
L 154.07255 178.130401 
L 154.600443 204.078417 
L 154.86439 203.84452 
L 155.128337 192.183264 
L 155.392284 208.185386 
L 155.656231 197.666034 
L 155.920177 191.706953 
L 156.184124 178.819461 
L 156.448071 139.686351 
L 156.712018 173.614505 
L 156.975965 177.113854 
L 157.503858 223.173194 
L 157.767805 186.514006 
L 158.031752 198.910297 
L 158.295698 196.05043 
L 158.823592 184.712928 
L 159.087539 189.370192 
L 159.351486 173.526484 
L 159.615432 207.739116 
L 159.879379 183.388866 
L 160.143326 187.311592 
L 160.407273 155.07034 
L 160.935166 237.055629 
L 161.199113 200.4438 
L 161.46306 183.491645 
L 161.727007 200.653584 
L 161.990953 204.649499 
L 162.2549 199.224677 
L 162.518847 174.916419 
L 162.782794 200.651642 
L 163.046741 203.847277 
L 163.310687 196.385418 
L 163.574634 200.034276 
L 163.838581 145.035545 
L 164.102528 211.335053 
L 164.366475 202.313054 
L 164.894368 224.308002 
L 165.158315 202.886155 
L 165.422262 212.011895 
L 165.686208 192.868598 
L 165.950155 206.241991 
L 166.214102 162.689013 
L 166.478049 171.543057 
L 166.741996 211.649793 
L 167.269889 181.59893 
L 167.533836 191.698828 
L 167.797783 174.277581 
L 168.061729 140.624732 
L 168.589623 219.566214 
L 168.85357 198.141622 
L 169.117517 149.258512 
L 169.381463 165.584183 
L 169.64541 218.808299 
L 169.909357 150.781273 
L 170.173304 195.878075 
L 170.437251 187.516404 
L 170.701197 222.794817 
L 171.229091 126.11808 
L 171.493038 214.81263 
L 171.756984 204.455322 
L 172.020931 184.920004 
L 172.284878 188.487515 
L 172.812772 186.652896 
L 173.076718 156.070479 
L 173.604612 200.190313 
L 173.868559 185.098037 
L 174.132506 208.135534 
L 174.396452 188.189775 
L 174.660399 200.188792 
L 174.924346 193.290388 
L 175.188293 199.295987 
L 175.452239 142.550597 
L 175.716186 238.443839 
L 176.24408 153.033422 
L 176.508027 208.696652 
L 176.771973 206.281115 
L 177.03592 187.311662 
L 177.299867 193.220087 
L 177.563814 191.157225 
L 177.827761 168.338473 
L 178.091707 210.268164 
L 178.355654 163.312917 
L 178.619601 181.813121 
L 178.883548 147.5037 
L 179.411441 209.691982 
L 179.675388 215.846709 
L 179.939335 231.408991 
L 180.203282 170.225589 
L 180.467228 216.180154 
L 180.731175 209.143355 
L 180.995122 170.535132 
L 181.259069 197.2619 
L 181.523016 211.205818 
L 181.786962 171.611055 
L 182.050909 197.437897 
L 182.314856 178.914536 
L 182.578803 241.604807 
L 182.842749 238.744866 
L 183.106696 182.714306 
L 183.370643 181.116557 
L 183.63459 193.278531 
L 183.898537 197.595514 
L 184.162483 194.911626 
L 184.42643 222.686702 
L 184.690377 192.178856 
L 184.954324 207.59003 
L 185.218271 188.286145 
L 185.482217 217.109433 
L 186.010111 126.906817 
L 186.274058 213.014273 
L 186.538004 189.251945 
L 186.801951 178.545604 
L 187.329845 204.585235 
L 187.857738 164.021334 
L 188.121685 169.760206 
L 188.385632 216.944 
L 188.649579 208.08801 
L 188.913525 185.146758 
L 189.177472 240.901401 
L 189.441419 167.144674 
L 189.705366 214.288176 
L 189.969313 190.778375 
L 190.233259 187.620481 
L 190.497206 212.533999 
L 190.761153 136.332433 
L 191.0251 178.228814 
L 191.289047 166.841734 
L 191.552993 213.799762 
L 191.81694 184.593516 
L 192.080887 192.986549 
L 192.344834 181.88177 
L 192.60878 222.837988 
L 193.136674 171.741274 
L 193.400621 201.485932 
L 193.664568 204.185253 
L 193.928514 202.837136 
L 194.192461 125.876782 
L 194.456408 184.091441 
L 194.720355 179.423971 
L 194.984302 165.187808 
L 195.248248 190.692566 
L 195.512195 191.043184 
L 195.776142 136.014083 
L 196.040089 240.850806 
L 196.304035 180.317986 
L 196.567982 242.810393 
L 196.831929 185.779817 
L 197.095876 163.031798 
L 197.359823 175.55521 
L 197.623769 206.344469 
L 197.887716 164.923461 
L 198.41561 218.600471 
L 198.679557 162.188653 
L 199.20745 179.481689 
L 199.471397 179.317885 
L 199.735344 164.330764 
L 199.99929 163.925208 
L 200.263237 201.919923 
L 200.527184 179.109097 
L 200.791131 180.211217 
L 201.055078 179.321618 
L 201.319024 176.842879 
L 201.582971 232.175621 
L 201.846918 202.766363 
L 202.110865 193.883496 
L 202.374812 196.818778 
L 202.902705 158.030379 
L 203.166652 227.687133 
L 203.430599 157.65101 
L 203.694545 202.588821 
L 203.958492 191.851204 
L 204.222439 149.579129 
L 204.486386 146.848033 
L 204.750333 214.130272 
L 205.278226 177.696721 
L 205.542173 218.137765 
L 206.070067 169.484837 
L 206.334013 188.942612 
L 206.59796 177.01396 
L 207.125854 192.42728 
L 207.3898 147.954941 
L 207.653747 135.109798 
L 207.917694 128.563578 
L 208.181641 189.314339 
L 208.445588 184.018025 
L 208.709534 185.268405 
L 208.973481 196.447385 
L 209.237428 202.394514 
L 209.501375 211.671732 
L 209.765322 184.687302 
L 210.029268 209.924076 
L 210.293215 110.584131 
L 210.557162 178.635096 
L 210.821109 195.374649 
L 211.085055 196.334632 
L 211.349002 176.312704 
L 211.612949 208.352596 
L 211.876896 191.428913 
L 212.140843 224.212943 
L 212.404789 178.629102 
L 212.668736 178.715927 
L 212.932683 231.824585 
L 213.19663 181.040115 
L 213.460576 161.696857 
L 213.724523 191.741911 
L 213.98847 177.618593 
L 214.252417 223.692815 
L 214.516364 228.366017 
L 215.044257 183.291944 
L 215.308204 188.15844 
L 215.572151 168.796009 
L 215.836098 188.469126 
L 216.100044 187.827194 
L 216.363991 154.443275 
L 216.627938 231.632352 
L 216.891885 168.070613 
L 217.155831 173.608249 
L 217.419778 169.31001 
L 217.683725 179.865845 
L 217.947672 181.75503 
L 218.211619 204.305484 
L 218.739512 153.023742 
L 219.531353 203.987118 
L 219.795299 197.876604 
L 220.059246 208.035315 
L 220.323193 195.740637 
L 220.58714 174.127003 
L 220.851086 176.581592 
L 221.37898 195.211244 
L 221.642927 159.83261 
L 221.906874 196.331227 
L 222.17082 215.110426 
L 222.434767 191.474156 
L 222.698714 53.568 
L 222.962661 186.347658 
L 223.226608 226.259356 
L 223.490554 191.556949 
L 223.754501 173.668268 
L 224.018448 210.43065 
L 224.282395 161.445138 
L 224.546341 191.027314 
L 224.810288 202.343528 
L 225.074235 198.580096 
L 225.338182 202.227061 
L 225.602129 200.173568 
L 225.866075 186.845975 
L 226.130022 189.262794 
L 226.393969 198.786696 
L 226.657916 185.535452 
L 226.921863 194.095173 
L 227.185809 184.961238 
L 227.449756 190.763848 
L 227.713703 226.798684 
L 227.97765 183.671348 
L 228.241596 168.332423 
L 228.505543 198.459549 
L 228.76949 156.321086 
L 229.033437 196.551836 
L 229.297384 170.068812 
L 229.56133 181.200454 
L 229.825277 205.648468 
L 230.089224 172.487811 
L 230.353171 186.787885 
L 230.617118 118.391814 
L 230.881064 218.565183 
L 231.145011 174.630609 
L 231.408958 196.51912 
L 231.672905 198.358117 
L 231.936851 187.711364 
L 232.200798 163.709165 
L 232.728692 194.64148 
L 232.992639 171.396253 
L 233.256585 201.135954 
L 233.520532 118.1357 
L 233.784479 166.512502 
L 234.048426 180.852511 
L 234.312373 151.044284 
L 234.576319 163.835322 
L 234.840266 201.956257 
L 235.104213 198.636495 
L 235.36816 148.400125 
L 235.632106 189.100699 
L 235.896053 177.612095 
L 236.16 174.094722 
L 236.423947 199.278832 
L 236.687894 145.283092 
L 236.95184 206.858783 
L 237.215787 198.700414 
L 237.479734 151.851034 
L 237.743681 164.240672 
L 238.007627 162.340566 
L 238.271574 185.713437 
L 238.535521 186.476004 
L 239.063415 167.911435 
L 239.327361 167.264237 
L 239.591308 143.278004 
L 239.855255 184.649271 
L 240.119202 197.281231 
L 240.383149 138.376264 
L 240.647095 203.448354 
L 240.911042 160.471126 
L 241.174989 188.156758 
L 241.438936 229.696129 
L 241.702882 189.030493 
L 241.966829 182.109359 
L 242.230776 171.908368 
L 242.494723 180.049572 
L 243.022616 231.88133 
L 243.286563 187.461862 
L 243.55051 201.36187 
L 243.814457 229.6582 
L 244.078404 187.435734 
L 244.34235 182.568044 
L 244.606297 241.401619 
L 244.870244 183.144849 
L 245.134191 172.586438 
L 245.662084 192.218062 
L 245.926031 182.083098 
L 246.189978 184.235714 
L 246.453925 189.971913 
L 246.717871 183.958258 
L 246.981818 152.698483 
L 247.245765 210.821458 
L 248.037605 182.603181 
L 248.301552 197.274364 
L 248.565499 232.128072 
L 248.829446 179.311909 
L 249.093392 216.835038 
L 249.357339 185.179671 
L 249.621286 190.455639 
L 249.885233 205.737009 
L 250.14918 186.293886 
L 250.413126 208.798553 
L 250.677073 175.426353 
L 250.94102 173.112629 
L 251.204967 162.266985 
L 251.468914 138.894817 
L 251.73286 217.260938 
L 251.996807 196.813163 
L 252.260754 214.144403 
L 252.788647 169.297526 
L 253.052594 180.154861 
L 253.316541 178.765512 
L 253.580488 86.752973 
L 253.844435 153.780785 
L 254.108381 166.16237 
L 254.372328 132.219865 
L 254.636275 181.197388 
L 254.900222 206.036235 
L 255.164169 177.938939 
L 255.428115 213.910245 
L 255.692062 207.243186 
L 255.956009 129.612309 
L 256.219956 205.966578 
L 256.483902 138.106869 
L 256.747849 200.300351 
L 257.011796 188.276873 
L 257.275743 170.42174 
L 257.53969 174.010651 
L 257.803636 201.002684 
L 258.067583 178.685091 
L 258.33153 178.572899 
L 258.595477 138.115035 
L 258.859424 198.739213 
L 259.12337 177.045815 
L 259.387317 190.299373 
L 259.915211 174.283715 
L 260.179157 159.397014 
L 260.443104 164.859882 
L 260.970998 167.94986 
L 261.234945 167.679759 
L 261.498891 182.130385 
L 261.762838 212.85978 
L 262.026785 168.079264 
L 262.290732 231.124974 
L 262.554678 187.057644 
L 262.818625 218.555083 
L 263.082572 114.749249 
L 263.346519 171.882707 
L 263.610466 163.372683 
L 263.874412 203.330877 
L 264.138359 176.813167 
L 264.402306 201.048251 
L 264.666253 186.914065 
L 264.9302 231.567707 
L 265.194146 155.580051 
L 265.458093 181.206728 
L 265.72204 184.947178 
L 265.985987 177.472971 
L 266.249933 179.233632 
L 266.51388 213.305298 
L 266.777827 146.361819 
L 267.041774 198.296792 
L 267.305721 204.089626 
L 267.569667 157.184999 
L 267.833614 175.670602 
L 268.097561 181.925343 
L 268.361508 167.87405 
L 268.625455 171.364858 
L 268.889401 189.747724 
L 269.153348 199.550704 
L 269.417295 174.685775 
L 269.681242 171.534613 
L 269.945188 188.831215 
L 270.209135 151.529064 
L 270.473082 176.125725 
L 270.737029 163.305301 
L 271.000976 175.852406 
L 271.264922 160.783396 
L 271.528869 127.97272 
L 271.792816 160.294325 
L 272.056763 154.127282 
L 272.32071 133.021694 
L 272.584656 152.833802 
L 272.848603 144.889138 
L 273.11255 174.978713 
L 273.376497 183.058648 
L 273.640443 186.266782 
L 273.90439 210.608981 
L 274.168337 160.088431 
L 274.432284 186.896515 
L 274.696231 184.895027 
L 274.960177 127.108093 
L 275.224124 175.868996 
L 275.488071 184.586854 
L 276.015965 164.181915 
L 276.279911 178.958008 
L 276.543858 153.90764 
L 276.807805 146.945594 
L 277.071752 179.414081 
L 277.335698 176.390576 
L 277.599645 199.084941 
L 277.863592 150.554258 
L 278.127539 184.565388 
L 278.391486 191.418163 
L 278.655432 174.732116 
L 278.919379 175.301269 
L 279.183326 170.94568 
L 279.447273 206.541902 
L 279.71122 174.036547 
L 279.975166 182.513885 
L 280.239113 149.111532 
L 280.50306 207.806758 
L 280.767007 168.861937 
L 281.030953 167.346838 
L 281.2949 164.265356 
L 281.558847 172.451913 
L 281.822794 201.693542 
L 282.086741 194.273781 
L 282.350687 149.958616 
L 282.614634 213.518901 
L 282.878581 145.133086 
L 283.142528 162.522157 
L 283.406475 194.043856 
L 283.934368 180.527808 
L 284.198315 213.376096 
L 284.462262 171.042464 
L 284.726208 160.947671 
L 284.990155 178.987127 
L 285.254102 129.238483 
L 285.518049 171.764745 
L 285.781996 169.662676 
L 286.045942 151.843648 
L 286.309889 161.770433 
L 286.573836 209.387509 
L 286.837783 198.912873 
L 287.101729 200.900791 
L 287.629623 159.948276 
L 287.89357 184.043867 
L 288.157517 183.430635 
L 288.421463 160.006041 
L 288.68541 233.99675 
L 288.949357 179.729741 
L 289.213304 199.657098 
L 289.741197 142.188613 
L 290.005144 227.848766 
L 290.269091 163.985194 
L 290.533038 166.533348 
L 290.796984 211.316531 
L 291.060931 164.901208 
L 291.324878 159.527266 
L 291.588825 172.953786 
L 291.852772 160.978056 
L 292.116718 162.749647 
L 292.380665 177.708569 
L 292.644612 149.649856 
L 292.908559 144.546066 
L 293.172506 177.592808 
L 293.436452 183.337459 
L 293.700399 124.807275 
L 293.964346 168.47622 
L 294.228293 156.889303 
L 294.492239 156.361805 
L 294.756186 154.386693 
L 295.28408 202.252457 
L 295.548027 150.788996 
L 295.811973 193.172577 
L 296.07592 200.892361 
L 296.867761 166.122328 
L 297.131707 221.221433 
L 297.395654 172.22867 
L 297.659601 165.044123 
L 297.923548 226.689831 
L 298.187494 188.462663 
L 298.451441 172.667314 
L 298.715388 203.076357 
L 298.979335 174.919795 
L 299.243282 188.723441 
L 299.507228 174.933447 
L 299.771175 182.439736 
L 300.035122 178.360399 
L 300.299069 172.244081 
L 300.563016 241.242704 
L 300.826962 171.548542 
L 301.090909 167.90315 
L 301.354856 176.237684 
L 301.618803 158.052142 
L 301.882749 148.847437 
L 302.146696 195.844926 
L 302.410643 147.499908 
L 302.67459 201.07571 
L 302.938537 156.486058 
L 303.202483 158.0329 
L 303.46643 169.588489 
L 303.730377 164.032223 
L 303.994324 187.991608 
L 304.258271 182.952315 
L 304.522217 233.496349 
L 304.786164 198.361201 
L 305.050111 194.865124 
L 305.314058 148.616554 
L 305.578004 186.742473 
L 305.841951 180.633059 
L 306.105898 195.613637 
L 306.369845 190.338549 
L 306.633792 180.621204 
L 306.897738 181.318251 
L 307.161685 169.010019 
L 307.425632 135.945992 
L 307.689579 169.585204 
L 307.953525 172.430232 
L 308.217472 178.929515 
L 308.481419 154.006175 
L 308.745366 155.527366 
L 309.009313 188.323246 
L 309.273259 179.035269 
L 309.537206 189.075841 
L 310.0651 164.884977 
L 310.592993 177.562442 
L 310.85694 204.312838 
L 311.120887 143.409289 
L 311.384834 179.380274 
L 311.64878 166.965042 
L 311.912727 166.849159 
L 312.176674 194.999891 
L 312.440621 185.532013 
L 312.704568 183.367352 
L 312.968514 190.300712 
L 313.232461 174.350489 
L 313.496408 199.812307 
L 313.760355 156.274346 
L 314.288248 208.88798 
L 314.552195 164.432 
L 314.816142 144.669036 
L 315.080089 205.406433 
L 315.344035 148.311854 
L 315.607982 151.522646 
L 315.871929 188.304061 
L 316.135876 129.999013 
L 316.399823 212.213701 
L 316.663769 185.380416 
L 316.927716 174.536477 
L 317.191663 180.702225 
L 317.45561 216.810737 
L 317.719557 154.13673 
L 317.983503 178.074733 
L 318.24745 177.712305 
L 318.511397 180.883136 
L 318.775344 168.683599 
L 319.03929 164.401256 
L 319.303237 196.671596 
L 319.567184 193.862843 
L 319.831131 180.501462 
L 320.095078 158.096967 
L 320.359024 164.211695 
L 320.886918 184.752289 
L 321.150865 179.229826 
L 321.414812 202.368516 
L 321.678758 137.896866 
L 321.942705 192.627197 
L 322.206652 178.241303 
L 322.470599 138.773025 
L 322.734545 172.759962 
L 322.998492 186.230751 
L 323.262439 136.294182 
L 323.526386 171.555237 
L 323.790333 152.236938 
L 324.054279 190.918358 
L 324.582173 144.746436 
L 324.84612 167.86431 
L 325.110067 170.791892 
L 325.374013 176.978085 
L 325.63796 186.709477 
L 325.901907 165.029996 
L 326.165854 196.775389 
L 326.4298 137.28896 
L 326.693747 225.819199 
L 326.957694 178.918828 
L 327.221641 176.636181 
L 327.485588 161.733387 
L 327.749534 166.940261 
L 328.013481 200.881578 
L 328.277428 169.629406 
L 328.541375 183.881472 
L 328.805322 230.38234 
L 329.069268 168.557822 
L 329.597162 202.403312 
L 329.861109 173.379192 
L 330.125055 165.709632 
L 330.389002 179.072493 
L 330.652949 157.957108 
L 330.916896 178.30708 
L 331.180843 156.825058 
L 331.444789 168.931791 
L 331.708736 191.996913 
L 331.972683 169.871664 
L 332.23663 193.348965 
L 332.764523 180.956187 
L 333.02847 207.164939 
L 333.292417 139.362482 
L 333.556364 180.507288 
L 333.82031 153.902874 
L 334.084257 189.320148 
L 334.348204 192.247909 
L 334.612151 200.266434 
L 334.876098 165.458424 
L 335.140044 223.116635 
L 335.667938 182.24031 
L 335.931885 178.570715 
L 336.195831 163.449795 
L 336.459778 161.841553 
L 336.723725 182.709728 
L 336.987672 156.713576 
L 337.251619 182.483322 
L 337.515565 219.165782 
L 337.779512 192.49925 
L 338.043459 190.244008 
L 338.307406 176.473037 
L 338.571353 206.634339 
L 338.835299 97.722297 
L 339.099246 182.002814 
L 339.363193 209.39762 
L 339.891086 138.386702 
L 340.155033 220.453261 
L 340.41898 182.486921 
L 340.682927 193.943733 
L 341.21082 180.684199 
L 341.474767 190.327111 
L 342.002661 174.574179 
L 342.266608 199.167336 
L 342.530554 213.262209 
L 342.794501 168.579801 
L 343.058448 163.54537 
L 343.322395 184.965486 
L 343.586341 171.754175 
L 343.850288 202.075679 
L 344.378182 146.087787 
L 344.642129 160.070538 
L 344.906075 190.089102 
L 345.433969 173.790729 
L 345.697916 176.816486 
L 345.961863 219.289228 
L 346.489756 108.908174 
L 346.753703 196.053536 
L 347.01765 171.940571 
L 347.281596 170.263635 
L 347.545543 146.50573 
L 347.80949 187.002222 
L 348.073437 180.257193 
L 348.337384 204.721564 
L 348.60133 176.578376 
L 348.865277 179.497779 
L 349.129224 169.108255 
L 349.393171 193.682379 
L 349.657118 205.455935 
L 350.185011 137.81319 
L 350.448958 165.167101 
L 350.712905 165.162521 
L 350.976851 175.303066 
L 351.240798 178.732591 
L 351.504745 197.102344 
L 351.768692 145.874178 
L 352.032639 175.230549 
L 352.560532 181.490675 
L 352.824479 180.184358 
L 353.088426 197.877503 
L 353.352373 177.967902 
L 353.616319 185.373691 
L 353.880266 196.874606 
L 354.144213 182.821968 
L 354.672106 174.316611 
L 354.936053 204.79915 
L 355.463947 170.327853 
L 355.727894 167.20202 
L 355.99184 203.76463 
L 356.255787 189.983043 
L 356.519734 191.508149 
L 356.783681 167.143966 
L 357.047627 166.152877 
L 357.311574 198.897969 
L 357.575521 154.431169 
L 357.839468 186.868375 
L 358.103415 181.23029 
L 358.367361 187.143679 
L 358.631308 170.256108 
L 358.895255 222.811946 
L 359.159202 165.722106 
L 359.423149 164.005415 
L 359.687095 188.611851 
L 359.951042 165.557216 
L 360.214989 185.706233 
L 360.478936 190.288747 
L 361.006829 156.933602 
L 361.270776 152.096112 
L 361.534723 189.937841 
L 361.79867 164.526242 
L 362.062616 171.904538 
L 362.326563 185.516252 
L 362.59051 179.141161 
L 362.854457 182.705147 
L 363.118404 137.146537 
L 363.38235 172.714912 
L 363.646297 146.441594 
L 363.910244 201.026603 
L 364.174191 177.861377 
L 364.438137 166.962461 
L 364.702084 177.622933 
L 364.966031 149.283023 
L 365.229978 179.677772 
L 365.493925 192.160182 
L 365.757871 179.611093 
L 366.021818 174.571351 
L 366.285765 172.677168 
L 366.549712 160.067054 
L 366.813659 213.676413 
L 367.077605 180.607691 
L 367.605499 171.253182 
L 367.869446 160.437861 
L 368.133392 165.393538 
L 368.397339 166.050823 
L 368.661286 177.888037 
L 368.925233 175.880704 
L 369.18918 153.937955 
L 369.453126 164.064203 
L 369.717073 168.503777 
L 369.98102 178.737909 
L 370.244967 166.018463 
L 370.508914 237.632414 
L 371.036807 150.594972 
L 371.564701 173.931304 
L 371.828647 175.910101 
L 372.092594 163.338064 
L 372.356541 175.84509 
L 372.620488 166.109486 
L 372.884435 228.172475 
L 373.412328 171.387569 
L 373.676275 164.985845 
L 373.940222 162.47798 
L 374.204169 176.65821 
L 374.468115 170.831591 
L 374.732062 176.203594 
L 374.996009 157.008846 
L 375.259956 165.437987 
L 375.523902 147.406355 
L 376.051796 180.758941 
L 376.57969 165.320348 
L 376.843636 176.208835 
L 377.37153 148.200724 
L 377.635477 168.964529 
L 377.899424 173.899287 
L 378.16337 157.271398 
L 378.427317 184.357264 
L 378.955211 170.275915 
L 379.483104 163.913912 
L 379.747051 155.782564 
L 380.010998 176.041946 
L 380.274945 164.438811 
L 380.538891 168.042507 
L 381.066785 177.273551 
L 381.330732 177.555368 
L 381.594678 158.016434 
L 381.858625 189.907875 
L 382.122572 191.885762 
L 382.386519 154.642297 
L 382.650466 202.1622 
L 382.914412 169.598065 
L 383.178359 183.65883 
L 383.706253 149.166211 
L 383.9702 173.051068 
L 384.234146 168.427296 
L 384.498093 178.582054 
L 384.76204 176.522421 
L 385.025987 147.132583 
L 385.289933 174.889424 
L 385.55388 157.65447 
L 385.817827 173.357252 
L 386.081774 204.626168 
L 386.345721 165.77571 
L 386.609667 180.865573 
L 386.873614 159.502647 
L 387.137561 166.057394 
L 387.401508 146.753886 
L 387.665455 170.104051 
L 387.929401 165.668898 
L 388.193348 176.782685 
L 388.457295 170.723768 
L 388.985188 181.584746 
L 389.249135 174.008558 
L 389.513082 176.467855 
L 389.777029 217.222192 
L 390.040976 148.358827 
L 390.304922 157.72558 
L 390.568869 155.072463 
L 391.096763 189.910454 
L 391.36071 187.581567 
L 391.624656 135.666175 
L 391.888603 182.857089 
L 392.680443 155.442284 
L 392.94439 173.740065 
L 393.208337 155.365361 
L 393.472284 185.63422 
L 393.736231 171.422248 
L 394.000177 205.061381 
L 394.264124 171.460952 
L 394.528071 204.160149 
L 394.792018 181.059472 
L 395.055965 173.16644 
L 395.319911 139.318009 
L 395.583858 178.799661 
L 395.847805 172.487681 
L 396.111752 154.909295 
L 396.375698 189.556381 
L 396.639645 152.834416 
L 396.903592 176.249422 
L 397.167539 169.175097 
L 397.431486 153.652384 
L 397.695432 181.563892 
L 397.959379 178.570523 
L 398.223326 172.823423 
L 398.487273 174.114043 
L 398.487273 174.114043 
" style="fill:none;stroke:#1f77b4;stroke-linecap:square;stroke-width:1.5;"/>
   </g>
   <g id="patch_3">
    <path d="M 57.6 307.584 
L 57.6 41.472 
" style="fill:none;stroke:#000000;stroke-linecap:square;stroke-linejoin:miter;stroke-width:0.8;"/>
   </g>
   <g id="patch_4">
    <path d="M 414.72 307.584 
L 414.72 41.472 
" style="fill:none;stroke:#000000;stroke-linecap:square;stroke-linejoin:miter;stroke-width:0.8;"/>
   </g>
   <g id="patch_5">
    <path d="M 57.6 307.584 
L 414.72 307.584 
" style="fill:none;stroke:#000000;stroke-linecap:square;stroke-linejoin:miter;stroke-width:0.8;"/>
   </g>
   <g id="patch_6">
    <path d="M 57.6 41.472 
L 414.72 41.472 
" style="fill:none;stroke:#000000;stroke-linecap:square;stroke-linejoin:miter;stroke-width:0.8;"/>
   </g>
   <g id="text_18">
    <!-- cross entropy loss -->
    <defs>
     <path d="M 48.78125 52.59375 
L 48.78125 44.1875 
Q 44.96875 46.296875 41.140625 47.34375 
Q 37.3125 48.390625 33.40625 48.390625 
Q 24.65625 48.390625 19.8125 42.84375 
Q 14.984375 37.3125 14.984375 27.296875 
Q 14.984375 17.28125 19.8125 11.734375 
Q 24.65625 6.203125 33.40625 6.203125 
Q 37.3125 6.203125 41.140625 7.25 
Q 44.96875 8.296875 48.78125 10.40625 
L 48.78125 2.09375 
Q 45.015625 0.34375 40.984375 -0.53125 
Q 36.96875 -1.421875 32.421875 -1.421875 
Q 20.0625 -1.421875 12.78125 6.34375 
Q 5.515625 14.109375 5.515625 27.296875 
Q 5.515625 40.671875 12.859375 48.328125 
Q 20.21875 56 33.015625 56 
Q 37.15625 56 41.109375 55.140625 
Q 45.0625 54.296875 48.78125 52.59375 
z
" id="DejaVuSans-63"/>
     <path d="M 41.109375 46.296875 
Q 39.59375 47.171875 37.8125 47.578125 
Q 36.03125 48 33.890625 48 
Q 26.265625 48 22.1875 43.046875 
Q 18.109375 38.09375 18.109375 28.8125 
L 18.109375 0 
L 9.078125 0 
L 9.078125 54.6875 
L 18.109375 54.6875 
L 18.109375 46.1875 
Q 20.953125 51.171875 25.484375 53.578125 
Q 30.03125 56 36.53125 56 
Q 37.453125 56 38.578125 55.875 
Q 39.703125 55.765625 41.0625 55.515625 
z
" id="DejaVuSans-72"/>
     <path d="M 54.890625 33.015625 
L 54.890625 0 
L 45.90625 0 
L 45.90625 32.71875 
Q 45.90625 40.484375 42.875 44.328125 
Q 39.84375 48.1875 33.796875 48.1875 
Q 26.515625 48.1875 22.3125 43.546875 
Q 18.109375 38.921875 18.109375 30.90625 
L 18.109375 0 
L 9.078125 0 
L 9.078125 54.6875 
L 18.109375 54.6875 
L 18.109375 46.1875 
Q 21.34375 51.125 25.703125 53.5625 
Q 30.078125 56 35.796875 56 
Q 45.21875 56 50.046875 50.171875 
Q 54.890625 44.34375 54.890625 33.015625 
z
" id="DejaVuSans-6e"/>
     <path d="M 32.171875 -5.078125 
Q 28.375 -14.84375 24.75 -17.8125 
Q 21.140625 -20.796875 15.09375 -20.796875 
L 7.90625 -20.796875 
L 7.90625 -13.28125 
L 13.1875 -13.28125 
Q 16.890625 -13.28125 18.9375 -11.515625 
Q 21 -9.765625 23.484375 -3.21875 
L 25.09375 0.875 
L 2.984375 54.6875 
L 12.5 54.6875 
L 29.59375 11.921875 
L 46.6875 54.6875 
L 56.203125 54.6875 
z
" id="DejaVuSans-79"/>
     <path d="M 9.421875 75.984375 
L 18.40625 75.984375 
L 18.40625 0 
L 9.421875 0 
z
" id="DejaVuSans-6c"/>
    </defs>
    <g transform="translate(181.727812 35.472)scale(0.12 -0.12)">
     <use xlink:href="#DejaVuSans-63"/>
     <use x="54.980469" xlink:href="#DejaVuSans-72"/>
     <use x="96.0625" xlink:href="#DejaVuSans-6f"/>
     <use x="157.244141" xlink:href="#DejaVuSans-73"/>
     <use x="209.34375" xlink:href="#DejaVuSans-73"/>
     <use x="261.443359" xlink:href="#DejaVuSans-20"/>
     <use x="293.230469" xlink:href="#DejaVuSans-65"/>
     <use x="354.753906" xlink:href="#DejaVuSans-6e"/>
     <use x="418.132812" xlink:href="#DejaVuSans-74"/>
     <use x="457.341797" xlink:href="#DejaVuSans-72"/>
     <use x="498.423828" xlink:href="#DejaVuSans-6f"/>
     <use x="559.605469" xlink:href="#DejaVuSans-70"/>
     <use x="623.082031" xlink:href="#DejaVuSans-79"/>
     <use x="682.261719" xlink:href="#DejaVuSans-20"/>
     <use x="714.048828" xlink:href="#DejaVuSans-6c"/>
     <use x="741.832031" xlink:href="#DejaVuSans-6f"/>
     <use x="803.013672" xlink:href="#DejaVuSans-73"/>
     <use x="855.113281" xlink:href="#DejaVuSans-73"/>
    </g>
   </g>
  </g>
 </g>
 <defs>
  <clipPath id="pfe353c5300">
   <rect height="266.112" width="357.12" x="57.6" y="41.472"/>
  </clipPath>
 </defs>
</svg>
