<?xml version="1.0" encoding="utf-8" standalone="no"?>
<!DOCTYPE svg PUBLIC "-//W3C//DTD SVG 1.1//EN"
  "http://www.w3.org/Graphics/SVG/1.1/DTD/svg11.dtd">
<!-- Created with matplotlib (http://matplotlib.org/) -->
<svg height="345.6pt" version="1.1" viewBox="0 0 460.8 345.6" width="460.8pt" xmlns="http://www.w3.org/2000/svg" xmlns:xlink="http://www.w3.org/1999/xlink">
 <defs>
  <style type="text/css">
*{stroke-linecap:butt;stroke-linejoin:round;}
  </style>
 </defs>
 <g id="figure_1">
  <g id="patch_1">
   <path d="M 0 345.6 
L 460.8 345.6 
L 460.8 0 
L 0 0 
z
" style="fill:#ffffff;"/>
  </g>
  <g id="axes_1">
   <g id="patch_2">
    <path d="M 57.6 307.584 
L 414.72 307.584 
L 414.72 41.472 
L 57.6 41.472 
z
" style="fill:#ffffff;"/>
   </g>
   <g id="matplotlib.axis_1">
    <g id="xtick_1">
     <g id="line2d_1">
      <defs>
       <path d="M 0 0 
L 0 3.5 
" id="m27e8c2d7b9" style="stroke:#000000;stroke-width:0.8;"/>
      </defs>
      <g>
       <use style="stroke:#000000;stroke-width:0.8;" x="73.832727" xlink:href="#m27e8c2d7b9" y="307.584"/>
      </g>
     </g>
     <g id="text_1">
      <!-- 0 -->
      <defs>
       <path d="M 31.78125 66.40625 
Q 24.171875 66.40625 20.328125 58.90625 
Q 16.5 51.421875 16.5 36.375 
Q 16.5 21.390625 20.328125 13.890625 
Q 24.171875 6.390625 31.78125 6.390625 
Q 39.453125 6.390625 43.28125 13.890625 
Q 47.125 21.390625 47.125 36.375 
Q 47.125 51.421875 43.28125 58.90625 
Q 39.453125 66.40625 31.78125 66.40625 
z
M 31.78125 74.21875 
Q 44.046875 74.21875 50.515625 64.515625 
Q 56.984375 54.828125 56.984375 36.375 
Q 56.984375 17.96875 50.515625 8.265625 
Q 44.046875 -1.421875 31.78125 -1.421875 
Q 19.53125 -1.421875 13.0625 8.265625 
Q 6.59375 17.96875 6.59375 36.375 
Q 6.59375 54.828125 13.0625 64.515625 
Q 19.53125 74.21875 31.78125 74.21875 
z
" id="DejaVuSans-30"/>
      </defs>
      <g transform="translate(70.651477 322.182437)scale(0.1 -0.1)">
       <use xlink:href="#DejaVuSans-30"/>
      </g>
     </g>
    </g>
    <g id="xtick_2">
     <g id="line2d_2">
      <g>
       <use style="stroke:#000000;stroke-width:0.8;" x="145.342539" xlink:href="#m27e8c2d7b9" y="307.584"/>
      </g>
     </g>
     <g id="text_2">
      <!-- 100 -->
      <defs>
       <path d="M 12.40625 8.296875 
L 28.515625 8.296875 
L 28.515625 63.921875 
L 10.984375 60.40625 
L 10.984375 69.390625 
L 28.421875 72.90625 
L 38.28125 72.90625 
L 38.28125 8.296875 
L 54.390625 8.296875 
L 54.390625 0 
L 12.40625 0 
z
" id="DejaVuSans-31"/>
      </defs>
      <g transform="translate(135.798789 322.182437)scale(0.1 -0.1)">
       <use xlink:href="#DejaVuSans-31"/>
       <use x="63.623047" xlink:href="#DejaVuSans-30"/>
       <use x="127.246094" xlink:href="#DejaVuSans-30"/>
      </g>
     </g>
    </g>
    <g id="xtick_3">
     <g id="line2d_3">
      <g>
       <use style="stroke:#000000;stroke-width:0.8;" x="216.852351" xlink:href="#m27e8c2d7b9" y="307.584"/>
      </g>
     </g>
     <g id="text_3">
      <!-- 200 -->
      <defs>
       <path d="M 19.1875 8.296875 
L 53.609375 8.296875 
L 53.609375 0 
L 7.328125 0 
L 7.328125 8.296875 
Q 12.9375 14.109375 22.625 23.890625 
Q 32.328125 33.6875 34.8125 36.53125 
Q 39.546875 41.84375 41.421875 45.53125 
Q 43.3125 49.21875 43.3125 52.78125 
Q 43.3125 58.59375 39.234375 62.25 
Q 35.15625 65.921875 28.609375 65.921875 
Q 23.96875 65.921875 18.8125 64.3125 
Q 13.671875 62.703125 7.8125 59.421875 
L 7.8125 69.390625 
Q 13.765625 71.78125 18.9375 73 
Q 24.125 74.21875 28.421875 74.21875 
Q 39.75 74.21875 46.484375 68.546875 
Q 53.21875 62.890625 53.21875 53.421875 
Q 53.21875 48.921875 51.53125 44.890625 
Q 49.859375 40.875 45.40625 35.40625 
Q 44.1875 33.984375 37.640625 27.21875 
Q 31.109375 20.453125 19.1875 8.296875 
z
" id="DejaVuSans-32"/>
      </defs>
      <g transform="translate(207.308601 322.182437)scale(0.1 -0.1)">
       <use xlink:href="#DejaVuSans-32"/>
       <use x="63.623047" xlink:href="#DejaVuSans-30"/>
       <use x="127.246094" xlink:href="#DejaVuSans-30"/>
      </g>
     </g>
    </g>
    <g id="xtick_4">
     <g id="line2d_4">
      <g>
       <use style="stroke:#000000;stroke-width:0.8;" x="288.362163" xlink:href="#m27e8c2d7b9" y="307.584"/>
      </g>
     </g>
     <g id="text_4">
      <!-- 300 -->
      <defs>
       <path d="M 40.578125 39.3125 
Q 47.65625 37.796875 51.625 33 
Q 55.609375 28.21875 55.609375 21.1875 
Q 55.609375 10.40625 48.1875 4.484375 
Q 40.765625 -1.421875 27.09375 -1.421875 
Q 22.515625 -1.421875 17.65625 -0.515625 
Q 12.796875 0.390625 7.625 2.203125 
L 7.625 11.71875 
Q 11.71875 9.328125 16.59375 8.109375 
Q 21.484375 6.890625 26.8125 6.890625 
Q 36.078125 6.890625 40.9375 10.546875 
Q 45.796875 14.203125 45.796875 21.1875 
Q 45.796875 27.640625 41.28125 31.265625 
Q 36.765625 34.90625 28.71875 34.90625 
L 20.21875 34.90625 
L 20.21875 43.015625 
L 29.109375 43.015625 
Q 36.375 43.015625 40.234375 45.921875 
Q 44.09375 48.828125 44.09375 54.296875 
Q 44.09375 59.90625 40.109375 62.90625 
Q 36.140625 65.921875 28.71875 65.921875 
Q 24.65625 65.921875 20.015625 65.03125 
Q 15.375 64.15625 9.8125 62.3125 
L 9.8125 71.09375 
Q 15.4375 72.65625 20.34375 73.4375 
Q 25.25 74.21875 29.59375 74.21875 
Q 40.828125 74.21875 47.359375 69.109375 
Q 53.90625 64.015625 53.90625 55.328125 
Q 53.90625 49.265625 50.4375 45.09375 
Q 46.96875 40.921875 40.578125 39.3125 
z
" id="DejaVuSans-33"/>
      </defs>
      <g transform="translate(278.818413 322.182437)scale(0.1 -0.1)">
       <use xlink:href="#DejaVuSans-33"/>
       <use x="63.623047" xlink:href="#DejaVuSans-30"/>
       <use x="127.246094" xlink:href="#DejaVuSans-30"/>
      </g>
     </g>
    </g>
    <g id="xtick_5">
     <g id="line2d_5">
      <g>
       <use style="stroke:#000000;stroke-width:0.8;" x="359.871974" xlink:href="#m27e8c2d7b9" y="307.584"/>
      </g>
     </g>
     <g id="text_5">
      <!-- 400 -->
      <defs>
       <path d="M 37.796875 64.3125 
L 12.890625 25.390625 
L 37.796875 25.390625 
z
M 35.203125 72.90625 
L 47.609375 72.90625 
L 47.609375 25.390625 
L 58.015625 25.390625 
L 58.015625 17.1875 
L 47.609375 17.1875 
L 47.609375 0 
L 37.796875 0 
L 37.796875 17.1875 
L 4.890625 17.1875 
L 4.890625 26.703125 
z
" id="DejaVuSans-34"/>
      </defs>
      <g transform="translate(350.328224 322.182437)scale(0.1 -0.1)">
       <use xlink:href="#DejaVuSans-34"/>
       <use x="63.623047" xlink:href="#DejaVuSans-30"/>
       <use x="127.246094" xlink:href="#DejaVuSans-30"/>
      </g>
     </g>
    </g>
    <g id="text_6">
     <!-- step passed -->
     <defs>
      <path d="M 44.28125 53.078125 
L 44.28125 44.578125 
Q 40.484375 46.53125 36.375 47.5 
Q 32.28125 48.484375 27.875 48.484375 
Q 21.1875 48.484375 17.84375 46.4375 
Q 14.5 44.390625 14.5 40.28125 
Q 14.5 37.15625 16.890625 35.375 
Q 19.28125 33.59375 26.515625 31.984375 
L 29.59375 31.296875 
Q 39.15625 29.25 43.1875 25.515625 
Q 47.21875 21.78125 47.21875 15.09375 
Q 47.21875 7.46875 41.1875 3.015625 
Q 35.15625 -1.421875 24.609375 -1.421875 
Q 20.21875 -1.421875 15.453125 -0.5625 
Q 10.6875 0.296875 5.421875 2 
L 5.421875 11.28125 
Q 10.40625 8.6875 15.234375 7.390625 
Q 20.0625 6.109375 24.8125 6.109375 
Q 31.15625 6.109375 34.5625 8.28125 
Q 37.984375 10.453125 37.984375 14.40625 
Q 37.984375 18.0625 35.515625 20.015625 
Q 33.0625 21.96875 24.703125 23.78125 
L 21.578125 24.515625 
Q 13.234375 26.265625 9.515625 29.90625 
Q 5.8125 33.546875 5.8125 39.890625 
Q 5.8125 47.609375 11.28125 51.796875 
Q 16.75 56 26.8125 56 
Q 31.78125 56 36.171875 55.265625 
Q 40.578125 54.546875 44.28125 53.078125 
z
" id="DejaVuSans-73"/>
      <path d="M 18.3125 70.21875 
L 18.3125 54.6875 
L 36.8125 54.6875 
L 36.8125 47.703125 
L 18.3125 47.703125 
L 18.3125 18.015625 
Q 18.3125 11.328125 20.140625 9.421875 
Q 21.96875 7.515625 27.59375 7.515625 
L 36.8125 7.515625 
L 36.8125 0 
L 27.59375 0 
Q 17.1875 0 13.234375 3.875 
Q 9.28125 7.765625 9.28125 18.015625 
L 9.28125 47.703125 
L 2.6875 47.703125 
L 2.6875 54.6875 
L 9.28125 54.6875 
L 9.28125 70.21875 
z
" id="DejaVuSans-74"/>
      <path d="M 56.203125 29.59375 
L 56.203125 25.203125 
L 14.890625 25.203125 
Q 15.484375 15.921875 20.484375 11.0625 
Q 25.484375 6.203125 34.421875 6.203125 
Q 39.59375 6.203125 44.453125 7.46875 
Q 49.3125 8.734375 54.109375 11.28125 
L 54.109375 2.78125 
Q 49.265625 0.734375 44.1875 -0.34375 
Q 39.109375 -1.421875 33.890625 -1.421875 
Q 20.796875 -1.421875 13.15625 6.1875 
Q 5.515625 13.8125 5.515625 26.8125 
Q 5.515625 40.234375 12.765625 48.109375 
Q 20.015625 56 32.328125 56 
Q 43.359375 56 49.78125 48.890625 
Q 56.203125 41.796875 56.203125 29.59375 
z
M 47.21875 32.234375 
Q 47.125 39.59375 43.09375 43.984375 
Q 39.0625 48.390625 32.421875 48.390625 
Q 24.90625 48.390625 20.390625 44.140625 
Q 15.875 39.890625 15.1875 32.171875 
z
" id="DejaVuSans-65"/>
      <path d="M 18.109375 8.203125 
L 18.109375 -20.796875 
L 9.078125 -20.796875 
L 9.078125 54.6875 
L 18.109375 54.6875 
L 18.109375 46.390625 
Q 20.953125 51.265625 25.265625 53.625 
Q 29.59375 56 35.59375 56 
Q 45.5625 56 51.78125 48.09375 
Q 58.015625 40.1875 58.015625 27.296875 
Q 58.015625 14.40625 51.78125 6.484375 
Q 45.5625 -1.421875 35.59375 -1.421875 
Q 29.59375 -1.421875 25.265625 0.953125 
Q 20.953125 3.328125 18.109375 8.203125 
z
M 48.6875 27.296875 
Q 48.6875 37.203125 44.609375 42.84375 
Q 40.53125 48.484375 33.40625 48.484375 
Q 26.265625 48.484375 22.1875 42.84375 
Q 18.109375 37.203125 18.109375 27.296875 
Q 18.109375 17.390625 22.1875 11.75 
Q 26.265625 6.109375 33.40625 6.109375 
Q 40.53125 6.109375 44.609375 11.75 
Q 48.6875 17.390625 48.6875 27.296875 
z
" id="DejaVuSans-70"/>
      <path id="DejaVuSans-20"/>
      <path d="M 34.28125 27.484375 
Q 23.390625 27.484375 19.1875 25 
Q 14.984375 22.515625 14.984375 16.5 
Q 14.984375 11.71875 18.140625 8.90625 
Q 21.296875 6.109375 26.703125 6.109375 
Q 34.1875 6.109375 38.703125 11.40625 
Q 43.21875 16.703125 43.21875 25.484375 
L 43.21875 27.484375 
z
M 52.203125 31.203125 
L 52.203125 0 
L 43.21875 0 
L 43.21875 8.296875 
Q 40.140625 3.328125 35.546875 0.953125 
Q 30.953125 -1.421875 24.3125 -1.421875 
Q 15.921875 -1.421875 10.953125 3.296875 
Q 6 8.015625 6 15.921875 
Q 6 25.140625 12.171875 29.828125 
Q 18.359375 34.515625 30.609375 34.515625 
L 43.21875 34.515625 
L 43.21875 35.40625 
Q 43.21875 41.609375 39.140625 45 
Q 35.0625 48.390625 27.6875 48.390625 
Q 23 48.390625 18.546875 47.265625 
Q 14.109375 46.140625 10.015625 43.890625 
L 10.015625 52.203125 
Q 14.9375 54.109375 19.578125 55.046875 
Q 24.21875 56 28.609375 56 
Q 40.484375 56 46.34375 49.84375 
Q 52.203125 43.703125 52.203125 31.203125 
z
" id="DejaVuSans-61"/>
      <path d="M 45.40625 46.390625 
L 45.40625 75.984375 
L 54.390625 75.984375 
L 54.390625 0 
L 45.40625 0 
L 45.40625 8.203125 
Q 42.578125 3.328125 38.25 0.953125 
Q 33.9375 -1.421875 27.875 -1.421875 
Q 17.96875 -1.421875 11.734375 6.484375 
Q 5.515625 14.40625 5.515625 27.296875 
Q 5.515625 40.1875 11.734375 48.09375 
Q 17.96875 56 27.875 56 
Q 33.9375 56 38.25 53.625 
Q 42.578125 51.265625 45.40625 46.390625 
z
M 14.796875 27.296875 
Q 14.796875 17.390625 18.875 11.75 
Q 22.953125 6.109375 30.078125 6.109375 
Q 37.203125 6.109375 41.296875 11.75 
Q 45.40625 17.390625 45.40625 27.296875 
Q 45.40625 37.203125 41.296875 42.84375 
Q 37.203125 48.484375 30.078125 48.484375 
Q 22.953125 48.484375 18.875 42.84375 
Q 14.796875 37.203125 14.796875 27.296875 
z
" id="DejaVuSans-64"/>
     </defs>
     <g transform="translate(206.056875 335.860562)scale(0.1 -0.1)">
      <use xlink:href="#DejaVuSans-73"/>
      <use x="52.099609" xlink:href="#DejaVuSans-74"/>
      <use x="91.308594" xlink:href="#DejaVuSans-65"/>
      <use x="152.832031" xlink:href="#DejaVuSans-70"/>
      <use x="216.308594" xlink:href="#DejaVuSans-20"/>
      <use x="248.095703" xlink:href="#DejaVuSans-70"/>
      <use x="311.572266" xlink:href="#DejaVuSans-61"/>
      <use x="372.851562" xlink:href="#DejaVuSans-73"/>
      <use x="424.951172" xlink:href="#DejaVuSans-73"/>
      <use x="477.050781" xlink:href="#DejaVuSans-65"/>
      <use x="538.574219" xlink:href="#DejaVuSans-64"/>
     </g>
    </g>
   </g>
   <g id="matplotlib.axis_2">
    <g id="ytick_1">
     <g id="line2d_6">
      <defs>
       <path d="M 0 0 
L -3.5 0 
" id="me15367e5ae" style="stroke:#000000;stroke-width:0.8;"/>
      </defs>
      <g>
       <use style="stroke:#000000;stroke-width:0.8;" x="57.6" xlink:href="#me15367e5ae" y="289.979911"/>
      </g>
     </g>
     <g id="text_7">
      <!-- 3.2 -->
      <defs>
       <path d="M 10.6875 12.40625 
L 21 12.40625 
L 21 0 
L 10.6875 0 
z
" id="DejaVuSans-2e"/>
      </defs>
      <g transform="translate(34.696875 293.779129)scale(0.1 -0.1)">
       <use xlink:href="#DejaVuSans-33"/>
       <use x="63.623047" xlink:href="#DejaVuSans-2e"/>
       <use x="95.410156" xlink:href="#DejaVuSans-32"/>
      </g>
     </g>
    </g>
    <g id="ytick_2">
     <g id="line2d_7">
      <g>
       <use style="stroke:#000000;stroke-width:0.8;" x="57.6" xlink:href="#me15367e5ae" y="242.07085"/>
      </g>
     </g>
     <g id="text_8">
      <!-- 3.4 -->
      <g transform="translate(34.696875 245.870069)scale(0.1 -0.1)">
       <use xlink:href="#DejaVuSans-33"/>
       <use x="63.623047" xlink:href="#DejaVuSans-2e"/>
       <use x="95.410156" xlink:href="#DejaVuSans-34"/>
      </g>
     </g>
    </g>
    <g id="ytick_3">
     <g id="line2d_8">
      <g>
       <use style="stroke:#000000;stroke-width:0.8;" x="57.6" xlink:href="#me15367e5ae" y="194.16179"/>
      </g>
     </g>
     <g id="text_9">
      <!-- 3.6 -->
      <defs>
       <path d="M 33.015625 40.375 
Q 26.375 40.375 22.484375 35.828125 
Q 18.609375 31.296875 18.609375 23.390625 
Q 18.609375 15.53125 22.484375 10.953125 
Q 26.375 6.390625 33.015625 6.390625 
Q 39.65625 6.390625 43.53125 10.953125 
Q 47.40625 15.53125 47.40625 23.390625 
Q 47.40625 31.296875 43.53125 35.828125 
Q 39.65625 40.375 33.015625 40.375 
z
M 52.59375 71.296875 
L 52.59375 62.3125 
Q 48.875 64.0625 45.09375 64.984375 
Q 41.3125 65.921875 37.59375 65.921875 
Q 27.828125 65.921875 22.671875 59.328125 
Q 17.53125 52.734375 16.796875 39.40625 
Q 19.671875 43.65625 24.015625 45.921875 
Q 28.375 48.1875 33.59375 48.1875 
Q 44.578125 48.1875 50.953125 41.515625 
Q 57.328125 34.859375 57.328125 23.390625 
Q 57.328125 12.15625 50.6875 5.359375 
Q 44.046875 -1.421875 33.015625 -1.421875 
Q 20.359375 -1.421875 13.671875 8.265625 
Q 6.984375 17.96875 6.984375 36.375 
Q 6.984375 53.65625 15.1875 63.9375 
Q 23.390625 74.21875 37.203125 74.21875 
Q 40.921875 74.21875 44.703125 73.484375 
Q 48.484375 72.75 52.59375 71.296875 
z
" id="DejaVuSans-36"/>
      </defs>
      <g transform="translate(34.696875 197.961009)scale(0.1 -0.1)">
       <use xlink:href="#DejaVuSans-33"/>
       <use x="63.623047" xlink:href="#DejaVuSans-2e"/>
       <use x="95.410156" xlink:href="#DejaVuSans-36"/>
      </g>
     </g>
    </g>
    <g id="ytick_4">
     <g id="line2d_9">
      <g>
       <use style="stroke:#000000;stroke-width:0.8;" x="57.6" xlink:href="#me15367e5ae" y="146.25273"/>
      </g>
     </g>
     <g id="text_10">
      <!-- 3.8 -->
      <defs>
       <path d="M 31.78125 34.625 
Q 24.75 34.625 20.71875 30.859375 
Q 16.703125 27.09375 16.703125 20.515625 
Q 16.703125 13.921875 20.71875 10.15625 
Q 24.75 6.390625 31.78125 6.390625 
Q 38.8125 6.390625 42.859375 10.171875 
Q 46.921875 13.96875 46.921875 20.515625 
Q 46.921875 27.09375 42.890625 30.859375 
Q 38.875 34.625 31.78125 34.625 
z
M 21.921875 38.8125 
Q 15.578125 40.375 12.03125 44.71875 
Q 8.5 49.078125 8.5 55.328125 
Q 8.5 64.0625 14.71875 69.140625 
Q 20.953125 74.21875 31.78125 74.21875 
Q 42.671875 74.21875 48.875 69.140625 
Q 55.078125 64.0625 55.078125 55.328125 
Q 55.078125 49.078125 51.53125 44.71875 
Q 48 40.375 41.703125 38.8125 
Q 48.828125 37.15625 52.796875 32.3125 
Q 56.78125 27.484375 56.78125 20.515625 
Q 56.78125 9.90625 50.3125 4.234375 
Q 43.84375 -1.421875 31.78125 -1.421875 
Q 19.734375 -1.421875 13.25 4.234375 
Q 6.78125 9.90625 6.78125 20.515625 
Q 6.78125 27.484375 10.78125 32.3125 
Q 14.796875 37.15625 21.921875 38.8125 
z
M 18.3125 54.390625 
Q 18.3125 48.734375 21.84375 45.5625 
Q 25.390625 42.390625 31.78125 42.390625 
Q 38.140625 42.390625 41.71875 45.5625 
Q 45.3125 48.734375 45.3125 54.390625 
Q 45.3125 60.0625 41.71875 63.234375 
Q 38.140625 66.40625 31.78125 66.40625 
Q 25.390625 66.40625 21.84375 63.234375 
Q 18.3125 60.0625 18.3125 54.390625 
z
" id="DejaVuSans-38"/>
      </defs>
      <g transform="translate(34.696875 150.051948)scale(0.1 -0.1)">
       <use xlink:href="#DejaVuSans-33"/>
       <use x="63.623047" xlink:href="#DejaVuSans-2e"/>
       <use x="95.410156" xlink:href="#DejaVuSans-38"/>
      </g>
     </g>
    </g>
    <g id="ytick_5">
     <g id="line2d_10">
      <g>
       <use style="stroke:#000000;stroke-width:0.8;" x="57.6" xlink:href="#me15367e5ae" y="98.343669"/>
      </g>
     </g>
     <g id="text_11">
      <!-- 4.0 -->
      <g transform="translate(34.696875 102.142888)scale(0.1 -0.1)">
       <use xlink:href="#DejaVuSans-34"/>
       <use x="63.623047" xlink:href="#DejaVuSans-2e"/>
       <use x="95.410156" xlink:href="#DejaVuSans-30"/>
      </g>
     </g>
    </g>
    <g id="ytick_6">
     <g id="line2d_11">
      <g>
       <use style="stroke:#000000;stroke-width:0.8;" x="57.6" xlink:href="#me15367e5ae" y="50.434609"/>
      </g>
     </g>
     <g id="text_12">
      <!-- 4.2 -->
      <g transform="translate(34.696875 54.233828)scale(0.1 -0.1)">
       <use xlink:href="#DejaVuSans-34"/>
       <use x="63.623047" xlink:href="#DejaVuSans-2e"/>
       <use x="95.410156" xlink:href="#DejaVuSans-32"/>
      </g>
     </g>
    </g>
    <g id="text_13">
     <!-- Loss -->
     <defs>
      <path d="M 9.8125 72.90625 
L 19.671875 72.90625 
L 19.671875 8.296875 
L 55.171875 8.296875 
L 55.171875 0 
L 9.8125 0 
z
" id="DejaVuSans-4c"/>
      <path d="M 30.609375 48.390625 
Q 23.390625 48.390625 19.1875 42.75 
Q 14.984375 37.109375 14.984375 27.296875 
Q 14.984375 17.484375 19.15625 11.84375 
Q 23.34375 6.203125 30.609375 6.203125 
Q 37.796875 6.203125 41.984375 11.859375 
Q 46.1875 17.53125 46.1875 27.296875 
Q 46.1875 37.015625 41.984375 42.703125 
Q 37.796875 48.390625 30.609375 48.390625 
z
M 30.609375 56 
Q 42.328125 56 49.015625 48.375 
Q 55.71875 40.765625 55.71875 27.296875 
Q 55.71875 13.875 49.015625 6.21875 
Q 42.328125 -1.421875 30.609375 -1.421875 
Q 18.84375 -1.421875 12.171875 6.21875 
Q 5.515625 13.875 5.515625 27.296875 
Q 5.515625 40.765625 12.171875 48.375 
Q 18.84375 56 30.609375 56 
z
" id="DejaVuSans-6f"/>
     </defs>
     <g transform="translate(28.617188 185.581906)rotate(-90)scale(0.1 -0.1)">
      <use xlink:href="#DejaVuSans-4c"/>
      <use x="55.697266" xlink:href="#DejaVuSans-6f"/>
      <use x="116.878906" xlink:href="#DejaVuSans-73"/>
      <use x="168.978516" xlink:href="#DejaVuSans-73"/>
     </g>
    </g>
   </g>
   <g id="line2d_12">
    <path clip-path="url(#p5816e91b97)" d="M 73.832727 66.145935 
L 74.547825 64.271015 
L 75.262924 67.103102 
L 75.978022 65.057808 
L 76.69312 66.792441 
L 77.408218 54.71078 
L 78.838414 72.314309 
L 79.553512 69.258819 
L 80.26861 64.707489 
L 80.983708 65.551555 
L 81.698807 65.378557 
L 82.413905 64.702139 
L 83.129003 71.776751 
L 83.844101 70.051697 
L 84.559199 70.876237 
L 85.274297 64.800588 
L 85.989395 70.129542 
L 86.704493 62.834021 
L 87.419592 76.620873 
L 88.13469 68.246859 
L 88.849788 67.731434 
L 89.564886 64.632772 
L 90.279984 68.955632 
L 90.995082 66.400816 
L 91.71018 71.755911 
L 92.425278 71.125396 
L 93.140376 65.327358 
L 93.855475 67.459418 
L 94.570573 68.443506 
L 95.285671 63.815686 
L 96.000769 62.664658 
L 96.715867 63.072395 
L 97.430965 67.470885 
L 98.146063 66.439051 
L 98.861161 62.480755 
L 99.57626 63.34437 
L 100.291358 66.105934 
L 101.006456 66.535002 
L 101.721554 69.563931 
L 102.436652 67.553787 
L 103.15175 67.858427 
L 103.866848 69.300906 
L 104.581946 63.029046 
L 105.297044 72.658357 
L 106.012143 71.131386 
L 106.727241 71.780654 
L 108.157437 66.972166 
L 108.872535 72.800095 
L 109.587633 72.412454 
L 110.302731 68.611114 
L 111.017829 71.593502 
L 111.732928 68.596661 
L 112.448026 73.376529 
L 113.163124 60.642559 
L 113.878222 65.893397 
L 114.59332 62.73489 
L 115.308418 76.211177 
L 116.023516 59.937127 
L 116.738614 65.918169 
L 117.453712 65.498153 
L 118.168811 58.504092 
L 119.599007 74.930517 
L 121.029203 66.483716 
L 121.744301 79.443983 
L 122.459399 68.559527 
L 123.174497 73.924055 
L 123.889596 72.265161 
L 124.604694 69.767087 
L 125.319792 78.904229 
L 126.03489 71.746788 
L 126.749988 77.430185 
L 127.465086 75.602105 
L 128.180184 70.010104 
L 128.895282 87.646713 
L 129.61038 66.262597 
L 130.325479 69.979009 
L 131.040577 66.388864 
L 131.755675 62.055105 
L 132.470773 71.190209 
L 133.185871 72.121459 
L 133.900969 67.504626 
L 134.616067 67.657272 
L 135.331165 64.415995 
L 136.046264 73.246072 
L 136.761362 66.915956 
L 137.47646 63.532683 
L 138.191558 82.763566 
L 138.906656 89.108738 
L 139.621754 80.564555 
L 140.336852 68.080328 
L 141.05195 66.843212 
L 141.767048 78.553833 
L 142.482147 71.695278 
L 143.197245 76.829549 
L 144.627441 64.20385 
L 145.342539 75.049325 
L 146.772735 88.280817 
L 147.487833 84.227323 
L 148.202932 71.117822 
L 148.91803 78.514456 
L 149.633128 71.766476 
L 150.348226 66.489772 
L 151.063324 64.506003 
L 151.778422 58.983799 
L 152.49352 58.552148 
L 153.208618 80.914977 
L 153.923716 67.832505 
L 154.638815 66.023858 
L 155.353913 72.901653 
L 156.069011 85.564899 
L 156.784109 69.654898 
L 157.499207 69.194536 
L 158.214305 77.292524 
L 158.929403 70.613217 
L 159.644501 67.960097 
L 160.3596 71.565035 
L 161.074698 66.652565 
L 161.789796 76.562399 
L 162.504894 78.300296 
L 163.219992 86.90159 
L 164.650188 77.921659 
L 165.365286 75.135153 
L 166.080384 78.814181 
L 166.795483 68.674512 
L 167.510581 53.568 
L 168.225679 91.338609 
L 168.940777 69.411726 
L 169.655875 77.504097 
L 170.370973 78.321731 
L 171.086071 76.764254 
L 171.801169 78.905154 
L 172.516268 73.769214 
L 173.231366 83.054291 
L 173.946464 79.971935 
L 174.661562 69.65348 
L 175.37666 88.421613 
L 176.091758 82.572434 
L 176.806856 101.232846 
L 177.521954 94.120263 
L 178.237052 102.610642 
L 178.952151 89.074158 
L 179.667249 79.322462 
L 180.382347 94.837788 
L 181.097445 82.626561 
L 181.812543 105.575178 
L 182.527641 66.873392 
L 183.242739 93.910531 
L 183.957837 84.51928 
L 184.672936 91.396156 
L 185.388034 69.337383 
L 186.103132 69.37859 
L 186.81823 77.471217 
L 187.533328 106.479973 
L 188.248426 77.291601 
L 188.963524 92.13716 
L 189.678622 111.434133 
L 190.39372 83.12597 
L 191.108819 93.906963 
L 191.823917 78.210398 
L 192.539015 110.653861 
L 193.254113 73.398741 
L 193.969211 107.645153 
L 194.684309 116.168522 
L 196.114505 78.121607 
L 196.829604 76.758716 
L 197.544702 93.645971 
L 198.2598 83.756244 
L 198.974898 108.389883 
L 199.689996 80.138588 
L 200.405094 86.794343 
L 201.120192 116.090122 
L 201.83529 99.422907 
L 202.550388 70.661631 
L 203.265487 82.891316 
L 203.980585 74.322384 
L 204.695683 88.189649 
L 205.410781 84.570889 
L 206.125879 94.635684 
L 206.840977 96.375407 
L 207.556075 105.279702 
L 208.271173 83.997275 
L 208.986272 97.730632 
L 209.70137 73.950468 
L 210.416468 78.361253 
L 211.131566 94.149763 
L 211.846664 85.758757 
L 212.561762 80.201532 
L 213.27686 78.097157 
L 213.991958 91.922719 
L 214.707056 92.236966 
L 215.422155 99.30463 
L 216.852351 93.52953 
L 217.567449 102.349977 
L 218.282547 94.908539 
L 218.997645 83.530459 
L 219.712743 99.387819 
L 220.427841 78.805933 
L 221.14294 88.377765 
L 221.858038 80.882702 
L 222.573136 79.72119 
L 223.288234 67.062185 
L 224.003332 104.399034 
L 224.71843 97.905307 
L 225.433528 105.35943 
L 226.148626 84.8404 
L 226.863724 107.684499 
L 227.578823 101.791564 
L 228.293921 126.171415 
L 229.009019 95.674304 
L 229.724117 83.93683 
L 230.439215 127.088996 
L 231.154313 94.23917 
L 231.869411 123.164981 
L 232.584509 118.193718 
L 233.299608 114.576391 
L 234.014706 100.662781 
L 234.729804 91.333619 
L 235.444902 130.178227 
L 236.16 123.731441 
L 236.875098 85.057388 
L 238.305294 121.52498 
L 239.020392 65.109242 
L 239.735491 93.640737 
L 240.450589 84.729623 
L 241.165687 86.916432 
L 241.880785 105.192408 
L 242.595883 100.397666 
L 243.310981 119.347236 
L 244.026079 106.574037 
L 244.741177 77.074211 
L 245.456276 104.335954 
L 246.171374 112.229301 
L 246.886472 82.300425 
L 247.60157 85.154005 
L 248.316668 122.889545 
L 249.031766 88.497168 
L 249.746864 98.100562 
L 250.461962 91.567062 
L 251.17706 123.569542 
L 251.892159 145.901886 
L 252.607257 112.57747 
L 253.322355 109.280459 
L 254.037453 137.311876 
L 254.752551 92.900726 
L 255.467649 124.742742 
L 256.182747 98.368808 
L 256.897845 124.493932 
L 257.612944 107.632607 
L 258.328042 105.973641 
L 259.04314 113.474482 
L 259.758238 87.658306 
L 260.473336 114.037967 
L 261.903532 129.171238 
L 263.333728 103.973126 
L 264.048827 117.271259 
L 264.763925 99.068513 
L 265.479023 97.028033 
L 266.194121 116.042611 
L 266.909219 115.220384 
L 267.624317 101.654844 
L 268.339415 120.971101 
L 269.054513 125.99666 
L 269.769612 133.813826 
L 270.48471 124.262601 
L 271.199808 162.76436 
L 271.914906 107.013531 
L 272.630004 134.199006 
L 273.345102 134.555447 
L 274.0602 85.97675 
L 274.775298 65.405335 
L 275.490396 146.087966 
L 276.205495 108.020398 
L 276.920593 96.615148 
L 277.635691 80.385362 
L 278.350789 158.882587 
L 279.065887 132.401996 
L 279.780985 139.675699 
L 280.496083 108.909298 
L 281.211181 116.675888 
L 281.92628 164.577726 
L 282.641378 89.447905 
L 283.356476 116.25831 
L 284.071574 90.876293 
L 284.786672 105.435613 
L 285.50177 163.842091 
L 286.216868 93.722601 
L 286.931966 114.345669 
L 287.647064 104.489966 
L 288.362163 117.381667 
L 289.077261 74.058041 
L 289.792359 110.440352 
L 290.507457 104.217249 
L 291.222555 117.523925 
L 291.937653 98.507099 
L 292.652751 146.229468 
L 293.367849 86.986854 
L 294.798046 139.353119 
L 295.513144 157.880068 
L 296.228242 159.880794 
L 296.94334 157.719405 
L 297.658438 95.264722 
L 298.373536 118.125 
L 299.088634 134.205339 
L 299.803732 114.129119 
L 300.518831 159.456215 
L 301.233929 127.996168 
L 301.949027 159.946806 
L 302.664125 99.247844 
L 303.379223 131.465555 
L 304.094321 154.468721 
L 304.809419 133.96593 
L 305.524517 170.855858 
L 306.239616 91.877655 
L 306.954714 189.092589 
L 307.669812 168.160365 
L 308.38491 84.874868 
L 309.100008 181.224398 
L 309.815106 108.782701 
L 310.530204 174.470964 
L 311.245302 115.795717 
L 311.9604 99.090314 
L 312.675499 167.817029 
L 313.390597 162.592 
L 314.105695 195.277911 
L 314.820793 149.35264 
L 315.535891 156.873508 
L 316.966087 107.249263 
L 317.681185 126.099828 
L 318.396284 177.392766 
L 319.111382 127.834188 
L 320.541578 199.690605 
L 321.256676 219.941621 
L 321.971774 206.67391 
L 322.686872 157.207726 
L 323.40197 145.537973 
L 324.117068 151.158674 
L 324.832167 140.077668 
L 325.547265 178.694232 
L 326.262363 150.378876 
L 326.977461 171.266654 
L 328.407657 123.45156 
L 329.122755 150.626895 
L 329.837853 119.291743 
L 330.552952 128.551557 
L 331.26805 141.08677 
L 331.983148 170.864536 
L 332.698246 175.713527 
L 333.413344 141.477578 
L 334.128442 84.761181 
L 334.84354 198.12057 
L 335.558638 212.899116 
L 336.273736 130.976763 
L 336.988835 146.977018 
L 337.703933 154.705414 
L 338.419031 173.873286 
L 339.134129 189.055354 
L 339.849227 223.738725 
L 340.564325 118.04091 
L 341.279423 170.307675 
L 341.994521 167.16373 
L 342.70962 156.084269 
L 343.424718 275.471641 
L 344.139816 175.172601 
L 344.854914 210.182042 
L 345.570012 99.52833 
L 346.28511 132.973324 
L 347.000208 137.858927 
L 347.715306 166.597628 
L 348.430404 139.825057 
L 349.145503 176.032849 
L 349.860601 161.823068 
L 350.575699 164.588081 
L 351.290797 189.301537 
L 352.005895 130.897454 
L 352.720993 145.877428 
L 353.436091 182.348253 
L 354.151189 200.465789 
L 354.866288 133.768758 
L 355.581386 201.511969 
L 356.296484 223.565723 
L 357.011582 107.91883 
L 357.72668 173.791545 
L 358.441778 156.371846 
L 359.156876 113.071471 
L 359.871974 208.167964 
L 360.587072 167.827637 
L 361.302171 239.785048 
L 362.017269 218.804941 
L 362.732367 155.024071 
L 363.447465 146.725313 
L 364.162563 124.475977 
L 364.877661 226.857301 
L 365.592759 172.329401 
L 366.307857 171.166701 
L 367.022956 178.809312 
L 367.738054 162.673412 
L 368.453152 214.141744 
L 369.16825 217.788857 
L 369.883348 228.718179 
L 370.598446 206.568351 
L 371.313544 178.291572 
L 372.028642 159.409882 
L 372.74374 182.444507 
L 374.173937 252.554596 
L 374.889035 227.113684 
L 375.604133 155.400375 
L 376.319231 241.174545 
L 377.034329 189.428476 
L 377.749427 221.695767 
L 378.464525 295.488 
L 379.179624 201.219567 
L 379.894722 220.548126 
L 380.60982 198.211273 
L 381.324918 192.153881 
L 382.040016 151.157869 
L 382.755114 140.30331 
L 383.470212 131.172407 
L 384.18531 145.064968 
L 384.900408 216.457494 
L 385.615507 213.123372 
L 386.330605 131.595423 
L 387.045703 197.714644 
L 387.760801 246.047825 
L 388.475899 257.542807 
L 389.190997 190.96621 
L 389.906095 142.112942 
L 390.621193 192.712391 
L 391.336292 106.382665 
L 392.05139 173.020309 
L 392.766488 177.904352 
L 393.481586 174.996565 
L 394.196684 189.290096 
L 394.911782 264.046075 
L 395.62688 209.289256 
L 396.341978 172.909057 
L 397.057076 208.033728 
L 397.772175 198.60485 
L 398.487273 167.813202 
L 398.487273 167.813202 
" style="fill:none;stroke:#1f77b4;stroke-linecap:square;stroke-width:1.5;"/>
   </g>
   <g id="patch_3">
    <path d="M 57.6 307.584 
L 57.6 41.472 
" style="fill:none;stroke:#000000;stroke-linecap:square;stroke-linejoin:miter;stroke-width:0.8;"/>
   </g>
   <g id="patch_4">
    <path d="M 414.72 307.584 
L 414.72 41.472 
" style="fill:none;stroke:#000000;stroke-linecap:square;stroke-linejoin:miter;stroke-width:0.8;"/>
   </g>
   <g id="patch_5">
    <path d="M 57.6 307.584 
L 414.72 307.584 
" style="fill:none;stroke:#000000;stroke-linecap:square;stroke-linejoin:miter;stroke-width:0.8;"/>
   </g>
   <g id="patch_6">
    <path d="M 57.6 41.472 
L 414.72 41.472 
" style="fill:none;stroke:#000000;stroke-linecap:square;stroke-linejoin:miter;stroke-width:0.8;"/>
   </g>
   <g id="text_14">
    <!-- cross entropy loss -->
    <defs>
     <path d="M 48.78125 52.59375 
L 48.78125 44.1875 
Q 44.96875 46.296875 41.140625 47.34375 
Q 37.3125 48.390625 33.40625 48.390625 
Q 24.65625 48.390625 19.8125 42.84375 
Q 14.984375 37.3125 14.984375 27.296875 
Q 14.984375 17.28125 19.8125 11.734375 
Q 24.65625 6.203125 33.40625 6.203125 
Q 37.3125 6.203125 41.140625 7.25 
Q 44.96875 8.296875 48.78125 10.40625 
L 48.78125 2.09375 
Q 45.015625 0.34375 40.984375 -0.53125 
Q 36.96875 -1.421875 32.421875 -1.421875 
Q 20.0625 -1.421875 12.78125 6.34375 
Q 5.515625 14.109375 5.515625 27.296875 
Q 5.515625 40.671875 12.859375 48.328125 
Q 20.21875 56 33.015625 56 
Q 37.15625 56 41.109375 55.140625 
Q 45.0625 54.296875 48.78125 52.59375 
z
" id="DejaVuSans-63"/>
     <path d="M 41.109375 46.296875 
Q 39.59375 47.171875 37.8125 47.578125 
Q 36.03125 48 33.890625 48 
Q 26.265625 48 22.1875 43.046875 
Q 18.109375 38.09375 18.109375 28.8125 
L 18.109375 0 
L 9.078125 0 
L 9.078125 54.6875 
L 18.109375 54.6875 
L 18.109375 46.1875 
Q 20.953125 51.171875 25.484375 53.578125 
Q 30.03125 56 36.53125 56 
Q 37.453125 56 38.578125 55.875 
Q 39.703125 55.765625 41.0625 55.515625 
z
" id="DejaVuSans-72"/>
     <path d="M 54.890625 33.015625 
L 54.890625 0 
L 45.90625 0 
L 45.90625 32.71875 
Q 45.90625 40.484375 42.875 44.328125 
Q 39.84375 48.1875 33.796875 48.1875 
Q 26.515625 48.1875 22.3125 43.546875 
Q 18.109375 38.921875 18.109375 30.90625 
L 18.109375 0 
L 9.078125 0 
L 9.078125 54.6875 
L 18.109375 54.6875 
L 18.109375 46.1875 
Q 21.34375 51.125 25.703125 53.5625 
Q 30.078125 56 35.796875 56 
Q 45.21875 56 50.046875 50.171875 
Q 54.890625 44.34375 54.890625 33.015625 
z
" id="DejaVuSans-6e"/>
     <path d="M 32.171875 -5.078125 
Q 28.375 -14.84375 24.75 -17.8125 
Q 21.140625 -20.796875 15.09375 -20.796875 
L 7.90625 -20.796875 
L 7.90625 -13.28125 
L 13.1875 -13.28125 
Q 16.890625 -13.28125 18.9375 -11.515625 
Q 21 -9.765625 23.484375 -3.21875 
L 25.09375 0.875 
L 2.984375 54.6875 
L 12.5 54.6875 
L 29.59375 11.921875 
L 46.6875 54.6875 
L 56.203125 54.6875 
z
" id="DejaVuSans-79"/>
     <path d="M 9.421875 75.984375 
L 18.40625 75.984375 
L 18.40625 0 
L 9.421875 0 
z
" id="DejaVuSans-6c"/>
    </defs>
    <g transform="translate(181.727812 35.472)scale(0.12 -0.12)">
     <use xlink:href="#DejaVuSans-63"/>
     <use x="54.980469" xlink:href="#DejaVuSans-72"/>
     <use x="96.0625" xlink:href="#DejaVuSans-6f"/>
     <use x="157.244141" xlink:href="#DejaVuSans-73"/>
     <use x="209.34375" xlink:href="#DejaVuSans-73"/>
     <use x="261.443359" xlink:href="#DejaVuSans-20"/>
     <use x="293.230469" xlink:href="#DejaVuSans-65"/>
     <use x="354.753906" xlink:href="#DejaVuSans-6e"/>
     <use x="418.132812" xlink:href="#DejaVuSans-74"/>
     <use x="457.341797" xlink:href="#DejaVuSans-72"/>
     <use x="498.423828" xlink:href="#DejaVuSans-6f"/>
     <use x="559.605469" xlink:href="#DejaVuSans-70"/>
     <use x="623.082031" xlink:href="#DejaVuSans-79"/>
     <use x="682.261719" xlink:href="#DejaVuSans-20"/>
     <use x="714.048828" xlink:href="#DejaVuSans-6c"/>
     <use x="741.832031" xlink:href="#DejaVuSans-6f"/>
     <use x="803.013672" xlink:href="#DejaVuSans-73"/>
     <use x="855.113281" xlink:href="#DejaVuSans-73"/>
    </g>
   </g>
  </g>
 </g>
 <defs>
  <clipPath id="p5816e91b97">
   <rect height="266.112" width="357.12" x="57.6" y="41.472"/>
  </clipPath>
 </defs>
</svg>
