<?xml version="1.0" encoding="utf-8" standalone="no"?>
<!DOCTYPE svg PUBLIC "-//W3C//DTD SVG 1.1//EN"
  "http://www.w3.org/Graphics/SVG/1.1/DTD/svg11.dtd">
<!-- Created with matplotlib (http://matplotlib.org/) -->
<svg height="345.6pt" version="1.1" viewBox="0 0 460.8 345.6" width="460.8pt" xmlns="http://www.w3.org/2000/svg" xmlns:xlink="http://www.w3.org/1999/xlink">
 <defs>
  <style type="text/css">
*{stroke-linecap:butt;stroke-linejoin:round;}
  </style>
 </defs>
 <g id="figure_1">
  <g id="patch_1">
   <path d="M 0 345.6 
L 460.8 345.6 
L 460.8 0 
L 0 0 
z
" style="fill:#ffffff;"/>
  </g>
  <g id="axes_1">
   <g id="patch_2">
    <path d="M 57.6 307.584 
L 414.72 307.584 
L 414.72 41.472 
L 57.6 41.472 
z
" style="fill:#ffffff;"/>
   </g>
   <g id="matplotlib.axis_1">
    <g id="xtick_1">
     <g id="line2d_1">
      <defs>
       <path d="M 0 0 
L 0 3.5 
" id="mbc73f3cd4c" style="stroke:#000000;stroke-width:0.8;"/>
      </defs>
      <g>
       <use style="stroke:#000000;stroke-width:0.8;" x="73.832727" xlink:href="#mbc73f3cd4c" y="307.584"/>
      </g>
     </g>
     <g id="text_1">
      <!-- 0 -->
      <defs>
       <path d="M 31.78125 66.40625 
Q 24.171875 66.40625 20.328125 58.90625 
Q 16.5 51.421875 16.5 36.375 
Q 16.5 21.390625 20.328125 13.890625 
Q 24.171875 6.390625 31.78125 6.390625 
Q 39.453125 6.390625 43.28125 13.890625 
Q 47.125 21.390625 47.125 36.375 
Q 47.125 51.421875 43.28125 58.90625 
Q 39.453125 66.40625 31.78125 66.40625 
z
M 31.78125 74.21875 
Q 44.046875 74.21875 50.515625 64.515625 
Q 56.984375 54.828125 56.984375 36.375 
Q 56.984375 17.96875 50.515625 8.265625 
Q 44.046875 -1.421875 31.78125 -1.421875 
Q 19.53125 -1.421875 13.0625 8.265625 
Q 6.59375 17.96875 6.59375 36.375 
Q 6.59375 54.828125 13.0625 64.515625 
Q 19.53125 74.21875 31.78125 74.21875 
z
" id="DejaVuSans-30"/>
      </defs>
      <g transform="translate(70.651477 322.182437)scale(0.1 -0.1)">
       <use xlink:href="#DejaVuSans-30"/>
      </g>
     </g>
    </g>
    <g id="xtick_2">
     <g id="line2d_2">
      <g>
       <use style="stroke:#000000;stroke-width:0.8;" x="118.305953" xlink:href="#mbc73f3cd4c" y="307.584"/>
      </g>
     </g>
     <g id="text_2">
      <!-- 100 -->
      <defs>
       <path d="M 12.40625 8.296875 
L 28.515625 8.296875 
L 28.515625 63.921875 
L 10.984375 60.40625 
L 10.984375 69.390625 
L 28.421875 72.90625 
L 38.28125 72.90625 
L 38.28125 8.296875 
L 54.390625 8.296875 
L 54.390625 0 
L 12.40625 0 
z
" id="DejaVuSans-31"/>
      </defs>
      <g transform="translate(108.762203 322.182437)scale(0.1 -0.1)">
       <use xlink:href="#DejaVuSans-31"/>
       <use x="63.623047" xlink:href="#DejaVuSans-30"/>
       <use x="127.246094" xlink:href="#DejaVuSans-30"/>
      </g>
     </g>
    </g>
    <g id="xtick_3">
     <g id="line2d_3">
      <g>
       <use style="stroke:#000000;stroke-width:0.8;" x="162.779178" xlink:href="#mbc73f3cd4c" y="307.584"/>
      </g>
     </g>
     <g id="text_3">
      <!-- 200 -->
      <defs>
       <path d="M 19.1875 8.296875 
L 53.609375 8.296875 
L 53.609375 0 
L 7.328125 0 
L 7.328125 8.296875 
Q 12.9375 14.109375 22.625 23.890625 
Q 32.328125 33.6875 34.8125 36.53125 
Q 39.546875 41.84375 41.421875 45.53125 
Q 43.3125 49.21875 43.3125 52.78125 
Q 43.3125 58.59375 39.234375 62.25 
Q 35.15625 65.921875 28.609375 65.921875 
Q 23.96875 65.921875 18.8125 64.3125 
Q 13.671875 62.703125 7.8125 59.421875 
L 7.8125 69.390625 
Q 13.765625 71.78125 18.9375 73 
Q 24.125 74.21875 28.421875 74.21875 
Q 39.75 74.21875 46.484375 68.546875 
Q 53.21875 62.890625 53.21875 53.421875 
Q 53.21875 48.921875 51.53125 44.890625 
Q 49.859375 40.875 45.40625 35.40625 
Q 44.1875 33.984375 37.640625 27.21875 
Q 31.109375 20.453125 19.1875 8.296875 
z
" id="DejaVuSans-32"/>
      </defs>
      <g transform="translate(153.235428 322.182437)scale(0.1 -0.1)">
       <use xlink:href="#DejaVuSans-32"/>
       <use x="63.623047" xlink:href="#DejaVuSans-30"/>
       <use x="127.246094" xlink:href="#DejaVuSans-30"/>
      </g>
     </g>
    </g>
    <g id="xtick_4">
     <g id="line2d_4">
      <g>
       <use style="stroke:#000000;stroke-width:0.8;" x="207.252403" xlink:href="#mbc73f3cd4c" y="307.584"/>
      </g>
     </g>
     <g id="text_4">
      <!-- 300 -->
      <defs>
       <path d="M 40.578125 39.3125 
Q 47.65625 37.796875 51.625 33 
Q 55.609375 28.21875 55.609375 21.1875 
Q 55.609375 10.40625 48.1875 4.484375 
Q 40.765625 -1.421875 27.09375 -1.421875 
Q 22.515625 -1.421875 17.65625 -0.515625 
Q 12.796875 0.390625 7.625 2.203125 
L 7.625 11.71875 
Q 11.71875 9.328125 16.59375 8.109375 
Q 21.484375 6.890625 26.8125 6.890625 
Q 36.078125 6.890625 40.9375 10.546875 
Q 45.796875 14.203125 45.796875 21.1875 
Q 45.796875 27.640625 41.28125 31.265625 
Q 36.765625 34.90625 28.71875 34.90625 
L 20.21875 34.90625 
L 20.21875 43.015625 
L 29.109375 43.015625 
Q 36.375 43.015625 40.234375 45.921875 
Q 44.09375 48.828125 44.09375 54.296875 
Q 44.09375 59.90625 40.109375 62.90625 
Q 36.140625 65.921875 28.71875 65.921875 
Q 24.65625 65.921875 20.015625 65.03125 
Q 15.375 64.15625 9.8125 62.3125 
L 9.8125 71.09375 
Q 15.4375 72.65625 20.34375 73.4375 
Q 25.25 74.21875 29.59375 74.21875 
Q 40.828125 74.21875 47.359375 69.109375 
Q 53.90625 64.015625 53.90625 55.328125 
Q 53.90625 49.265625 50.4375 45.09375 
Q 46.96875 40.921875 40.578125 39.3125 
z
" id="DejaVuSans-33"/>
      </defs>
      <g transform="translate(197.708653 322.182437)scale(0.1 -0.1)">
       <use xlink:href="#DejaVuSans-33"/>
       <use x="63.623047" xlink:href="#DejaVuSans-30"/>
       <use x="127.246094" xlink:href="#DejaVuSans-30"/>
      </g>
     </g>
    </g>
    <g id="xtick_5">
     <g id="line2d_5">
      <g>
       <use style="stroke:#000000;stroke-width:0.8;" x="251.725629" xlink:href="#mbc73f3cd4c" y="307.584"/>
      </g>
     </g>
     <g id="text_5">
      <!-- 400 -->
      <defs>
       <path d="M 37.796875 64.3125 
L 12.890625 25.390625 
L 37.796875 25.390625 
z
M 35.203125 72.90625 
L 47.609375 72.90625 
L 47.609375 25.390625 
L 58.015625 25.390625 
L 58.015625 17.1875 
L 47.609375 17.1875 
L 47.609375 0 
L 37.796875 0 
L 37.796875 17.1875 
L 4.890625 17.1875 
L 4.890625 26.703125 
z
" id="DejaVuSans-34"/>
      </defs>
      <g transform="translate(242.181879 322.182437)scale(0.1 -0.1)">
       <use xlink:href="#DejaVuSans-34"/>
       <use x="63.623047" xlink:href="#DejaVuSans-30"/>
       <use x="127.246094" xlink:href="#DejaVuSans-30"/>
      </g>
     </g>
    </g>
    <g id="xtick_6">
     <g id="line2d_6">
      <g>
       <use style="stroke:#000000;stroke-width:0.8;" x="296.198854" xlink:href="#mbc73f3cd4c" y="307.584"/>
      </g>
     </g>
     <g id="text_6">
      <!-- 500 -->
      <defs>
       <path d="M 10.796875 72.90625 
L 49.515625 72.90625 
L 49.515625 64.59375 
L 19.828125 64.59375 
L 19.828125 46.734375 
Q 21.96875 47.46875 24.109375 47.828125 
Q 26.265625 48.1875 28.421875 48.1875 
Q 40.625 48.1875 47.75 41.5 
Q 54.890625 34.8125 54.890625 23.390625 
Q 54.890625 11.625 47.5625 5.09375 
Q 40.234375 -1.421875 26.90625 -1.421875 
Q 22.3125 -1.421875 17.546875 -0.640625 
Q 12.796875 0.140625 7.71875 1.703125 
L 7.71875 11.625 
Q 12.109375 9.234375 16.796875 8.0625 
Q 21.484375 6.890625 26.703125 6.890625 
Q 35.15625 6.890625 40.078125 11.328125 
Q 45.015625 15.765625 45.015625 23.390625 
Q 45.015625 31 40.078125 35.4375 
Q 35.15625 39.890625 26.703125 39.890625 
Q 22.75 39.890625 18.8125 39.015625 
Q 14.890625 38.140625 10.796875 36.28125 
z
" id="DejaVuSans-35"/>
      </defs>
      <g transform="translate(286.655104 322.182437)scale(0.1 -0.1)">
       <use xlink:href="#DejaVuSans-35"/>
       <use x="63.623047" xlink:href="#DejaVuSans-30"/>
       <use x="127.246094" xlink:href="#DejaVuSans-30"/>
      </g>
     </g>
    </g>
    <g id="xtick_7">
     <g id="line2d_7">
      <g>
       <use style="stroke:#000000;stroke-width:0.8;" x="340.67208" xlink:href="#mbc73f3cd4c" y="307.584"/>
      </g>
     </g>
     <g id="text_7">
      <!-- 600 -->
      <defs>
       <path d="M 33.015625 40.375 
Q 26.375 40.375 22.484375 35.828125 
Q 18.609375 31.296875 18.609375 23.390625 
Q 18.609375 15.53125 22.484375 10.953125 
Q 26.375 6.390625 33.015625 6.390625 
Q 39.65625 6.390625 43.53125 10.953125 
Q 47.40625 15.53125 47.40625 23.390625 
Q 47.40625 31.296875 43.53125 35.828125 
Q 39.65625 40.375 33.015625 40.375 
z
M 52.59375 71.296875 
L 52.59375 62.3125 
Q 48.875 64.0625 45.09375 64.984375 
Q 41.3125 65.921875 37.59375 65.921875 
Q 27.828125 65.921875 22.671875 59.328125 
Q 17.53125 52.734375 16.796875 39.40625 
Q 19.671875 43.65625 24.015625 45.921875 
Q 28.375 48.1875 33.59375 48.1875 
Q 44.578125 48.1875 50.953125 41.515625 
Q 57.328125 34.859375 57.328125 23.390625 
Q 57.328125 12.15625 50.6875 5.359375 
Q 44.046875 -1.421875 33.015625 -1.421875 
Q 20.359375 -1.421875 13.671875 8.265625 
Q 6.984375 17.96875 6.984375 36.375 
Q 6.984375 53.65625 15.1875 63.9375 
Q 23.390625 74.21875 37.203125 74.21875 
Q 40.921875 74.21875 44.703125 73.484375 
Q 48.484375 72.75 52.59375 71.296875 
z
" id="DejaVuSans-36"/>
      </defs>
      <g transform="translate(331.12833 322.182437)scale(0.1 -0.1)">
       <use xlink:href="#DejaVuSans-36"/>
       <use x="63.623047" xlink:href="#DejaVuSans-30"/>
       <use x="127.246094" xlink:href="#DejaVuSans-30"/>
      </g>
     </g>
    </g>
    <g id="xtick_8">
     <g id="line2d_8">
      <g>
       <use style="stroke:#000000;stroke-width:0.8;" x="385.145305" xlink:href="#mbc73f3cd4c" y="307.584"/>
      </g>
     </g>
     <g id="text_8">
      <!-- 700 -->
      <defs>
       <path d="M 8.203125 72.90625 
L 55.078125 72.90625 
L 55.078125 68.703125 
L 28.609375 0 
L 18.3125 0 
L 43.21875 64.59375 
L 8.203125 64.59375 
z
" id="DejaVuSans-37"/>
      </defs>
      <g transform="translate(375.601555 322.182437)scale(0.1 -0.1)">
       <use xlink:href="#DejaVuSans-37"/>
       <use x="63.623047" xlink:href="#DejaVuSans-30"/>
       <use x="127.246094" xlink:href="#DejaVuSans-30"/>
      </g>
     </g>
    </g>
    <g id="text_9">
     <!-- step passed -->
     <defs>
      <path d="M 44.28125 53.078125 
L 44.28125 44.578125 
Q 40.484375 46.53125 36.375 47.5 
Q 32.28125 48.484375 27.875 48.484375 
Q 21.1875 48.484375 17.84375 46.4375 
Q 14.5 44.390625 14.5 40.28125 
Q 14.5 37.15625 16.890625 35.375 
Q 19.28125 33.59375 26.515625 31.984375 
L 29.59375 31.296875 
Q 39.15625 29.25 43.1875 25.515625 
Q 47.21875 21.78125 47.21875 15.09375 
Q 47.21875 7.46875 41.1875 3.015625 
Q 35.15625 -1.421875 24.609375 -1.421875 
Q 20.21875 -1.421875 15.453125 -0.5625 
Q 10.6875 0.296875 5.421875 2 
L 5.421875 11.28125 
Q 10.40625 8.6875 15.234375 7.390625 
Q 20.0625 6.109375 24.8125 6.109375 
Q 31.15625 6.109375 34.5625 8.28125 
Q 37.984375 10.453125 37.984375 14.40625 
Q 37.984375 18.0625 35.515625 20.015625 
Q 33.0625 21.96875 24.703125 23.78125 
L 21.578125 24.515625 
Q 13.234375 26.265625 9.515625 29.90625 
Q 5.8125 33.546875 5.8125 39.890625 
Q 5.8125 47.609375 11.28125 51.796875 
Q 16.75 56 26.8125 56 
Q 31.78125 56 36.171875 55.265625 
Q 40.578125 54.546875 44.28125 53.078125 
z
" id="DejaVuSans-73"/>
      <path d="M 18.3125 70.21875 
L 18.3125 54.6875 
L 36.8125 54.6875 
L 36.8125 47.703125 
L 18.3125 47.703125 
L 18.3125 18.015625 
Q 18.3125 11.328125 20.140625 9.421875 
Q 21.96875 7.515625 27.59375 7.515625 
L 36.8125 7.515625 
L 36.8125 0 
L 27.59375 0 
Q 17.1875 0 13.234375 3.875 
Q 9.28125 7.765625 9.28125 18.015625 
L 9.28125 47.703125 
L 2.6875 47.703125 
L 2.6875 54.6875 
L 9.28125 54.6875 
L 9.28125 70.21875 
z
" id="DejaVuSans-74"/>
      <path d="M 56.203125 29.59375 
L 56.203125 25.203125 
L 14.890625 25.203125 
Q 15.484375 15.921875 20.484375 11.0625 
Q 25.484375 6.203125 34.421875 6.203125 
Q 39.59375 6.203125 44.453125 7.46875 
Q 49.3125 8.734375 54.109375 11.28125 
L 54.109375 2.78125 
Q 49.265625 0.734375 44.1875 -0.34375 
Q 39.109375 -1.421875 33.890625 -1.421875 
Q 20.796875 -1.421875 13.15625 6.1875 
Q 5.515625 13.8125 5.515625 26.8125 
Q 5.515625 40.234375 12.765625 48.109375 
Q 20.015625 56 32.328125 56 
Q 43.359375 56 49.78125 48.890625 
Q 56.203125 41.796875 56.203125 29.59375 
z
M 47.21875 32.234375 
Q 47.125 39.59375 43.09375 43.984375 
Q 39.0625 48.390625 32.421875 48.390625 
Q 24.90625 48.390625 20.390625 44.140625 
Q 15.875 39.890625 15.1875 32.171875 
z
" id="DejaVuSans-65"/>
      <path d="M 18.109375 8.203125 
L 18.109375 -20.796875 
L 9.078125 -20.796875 
L 9.078125 54.6875 
L 18.109375 54.6875 
L 18.109375 46.390625 
Q 20.953125 51.265625 25.265625 53.625 
Q 29.59375 56 35.59375 56 
Q 45.5625 56 51.78125 48.09375 
Q 58.015625 40.1875 58.015625 27.296875 
Q 58.015625 14.40625 51.78125 6.484375 
Q 45.5625 -1.421875 35.59375 -1.421875 
Q 29.59375 -1.421875 25.265625 0.953125 
Q 20.953125 3.328125 18.109375 8.203125 
z
M 48.6875 27.296875 
Q 48.6875 37.203125 44.609375 42.84375 
Q 40.53125 48.484375 33.40625 48.484375 
Q 26.265625 48.484375 22.1875 42.84375 
Q 18.109375 37.203125 18.109375 27.296875 
Q 18.109375 17.390625 22.1875 11.75 
Q 26.265625 6.109375 33.40625 6.109375 
Q 40.53125 6.109375 44.609375 11.75 
Q 48.6875 17.390625 48.6875 27.296875 
z
" id="DejaVuSans-70"/>
      <path id="DejaVuSans-20"/>
      <path d="M 34.28125 27.484375 
Q 23.390625 27.484375 19.1875 25 
Q 14.984375 22.515625 14.984375 16.5 
Q 14.984375 11.71875 18.140625 8.90625 
Q 21.296875 6.109375 26.703125 6.109375 
Q 34.1875 6.109375 38.703125 11.40625 
Q 43.21875 16.703125 43.21875 25.484375 
L 43.21875 27.484375 
z
M 52.203125 31.203125 
L 52.203125 0 
L 43.21875 0 
L 43.21875 8.296875 
Q 40.140625 3.328125 35.546875 0.953125 
Q 30.953125 -1.421875 24.3125 -1.421875 
Q 15.921875 -1.421875 10.953125 3.296875 
Q 6 8.015625 6 15.921875 
Q 6 25.140625 12.171875 29.828125 
Q 18.359375 34.515625 30.609375 34.515625 
L 43.21875 34.515625 
L 43.21875 35.40625 
Q 43.21875 41.609375 39.140625 45 
Q 35.0625 48.390625 27.6875 48.390625 
Q 23 48.390625 18.546875 47.265625 
Q 14.109375 46.140625 10.015625 43.890625 
L 10.015625 52.203125 
Q 14.9375 54.109375 19.578125 55.046875 
Q 24.21875 56 28.609375 56 
Q 40.484375 56 46.34375 49.84375 
Q 52.203125 43.703125 52.203125 31.203125 
z
" id="DejaVuSans-61"/>
      <path d="M 45.40625 46.390625 
L 45.40625 75.984375 
L 54.390625 75.984375 
L 54.390625 0 
L 45.40625 0 
L 45.40625 8.203125 
Q 42.578125 3.328125 38.25 0.953125 
Q 33.9375 -1.421875 27.875 -1.421875 
Q 17.96875 -1.421875 11.734375 6.484375 
Q 5.515625 14.40625 5.515625 27.296875 
Q 5.515625 40.1875 11.734375 48.09375 
Q 17.96875 56 27.875 56 
Q 33.9375 56 38.25 53.625 
Q 42.578125 51.265625 45.40625 46.390625 
z
M 14.796875 27.296875 
Q 14.796875 17.390625 18.875 11.75 
Q 22.953125 6.109375 30.078125 6.109375 
Q 37.203125 6.109375 41.296875 11.75 
Q 45.40625 17.390625 45.40625 27.296875 
Q 45.40625 37.203125 41.296875 42.84375 
Q 37.203125 48.484375 30.078125 48.484375 
Q 22.953125 48.484375 18.875 42.84375 
Q 14.796875 37.203125 14.796875 27.296875 
z
" id="DejaVuSans-64"/>
     </defs>
     <g transform="translate(206.056875 335.860562)scale(0.1 -0.1)">
      <use xlink:href="#DejaVuSans-73"/>
      <use x="52.099609" xlink:href="#DejaVuSans-74"/>
      <use x="91.308594" xlink:href="#DejaVuSans-65"/>
      <use x="152.832031" xlink:href="#DejaVuSans-70"/>
      <use x="216.308594" xlink:href="#DejaVuSans-20"/>
      <use x="248.095703" xlink:href="#DejaVuSans-70"/>
      <use x="311.572266" xlink:href="#DejaVuSans-61"/>
      <use x="372.851562" xlink:href="#DejaVuSans-73"/>
      <use x="424.951172" xlink:href="#DejaVuSans-73"/>
      <use x="477.050781" xlink:href="#DejaVuSans-65"/>
      <use x="538.574219" xlink:href="#DejaVuSans-64"/>
     </g>
    </g>
   </g>
   <g id="matplotlib.axis_2">
    <g id="ytick_1">
     <g id="line2d_9">
      <defs>
       <path d="M 0 0 
L -3.5 0 
" id="m7499d9f7a2" style="stroke:#000000;stroke-width:0.8;"/>
      </defs>
      <g>
       <use style="stroke:#000000;stroke-width:0.8;" x="57.6" xlink:href="#m7499d9f7a2" y="298.098346"/>
      </g>
     </g>
     <g id="text_10">
      <!-- 4.050 -->
      <defs>
       <path d="M 10.6875 12.40625 
L 21 12.40625 
L 21 0 
L 10.6875 0 
z
" id="DejaVuSans-2e"/>
      </defs>
      <g transform="translate(21.971875 301.897565)scale(0.1 -0.1)">
       <use xlink:href="#DejaVuSans-34"/>
       <use x="63.623047" xlink:href="#DejaVuSans-2e"/>
       <use x="95.410156" xlink:href="#DejaVuSans-30"/>
       <use x="159.033203" xlink:href="#DejaVuSans-35"/>
       <use x="222.65625" xlink:href="#DejaVuSans-30"/>
      </g>
     </g>
    </g>
    <g id="ytick_2">
     <g id="line2d_10">
      <g>
       <use style="stroke:#000000;stroke-width:0.8;" x="57.6" xlink:href="#m7499d9f7a2" y="263.344392"/>
      </g>
     </g>
     <g id="text_11">
      <!-- 4.075 -->
      <g transform="translate(21.971875 267.14361)scale(0.1 -0.1)">
       <use xlink:href="#DejaVuSans-34"/>
       <use x="63.623047" xlink:href="#DejaVuSans-2e"/>
       <use x="95.410156" xlink:href="#DejaVuSans-30"/>
       <use x="159.033203" xlink:href="#DejaVuSans-37"/>
       <use x="222.65625" xlink:href="#DejaVuSans-35"/>
      </g>
     </g>
    </g>
    <g id="ytick_3">
     <g id="line2d_11">
      <g>
       <use style="stroke:#000000;stroke-width:0.8;" x="57.6" xlink:href="#m7499d9f7a2" y="228.590437"/>
      </g>
     </g>
     <g id="text_12">
      <!-- 4.100 -->
      <g transform="translate(21.971875 232.389655)scale(0.1 -0.1)">
       <use xlink:href="#DejaVuSans-34"/>
       <use x="63.623047" xlink:href="#DejaVuSans-2e"/>
       <use x="95.410156" xlink:href="#DejaVuSans-31"/>
       <use x="159.033203" xlink:href="#DejaVuSans-30"/>
       <use x="222.65625" xlink:href="#DejaVuSans-30"/>
      </g>
     </g>
    </g>
    <g id="ytick_4">
     <g id="line2d_12">
      <g>
       <use style="stroke:#000000;stroke-width:0.8;" x="57.6" xlink:href="#m7499d9f7a2" y="193.836482"/>
      </g>
     </g>
     <g id="text_13">
      <!-- 4.125 -->
      <g transform="translate(21.971875 197.6357)scale(0.1 -0.1)">
       <use xlink:href="#DejaVuSans-34"/>
       <use x="63.623047" xlink:href="#DejaVuSans-2e"/>
       <use x="95.410156" xlink:href="#DejaVuSans-31"/>
       <use x="159.033203" xlink:href="#DejaVuSans-32"/>
       <use x="222.65625" xlink:href="#DejaVuSans-35"/>
      </g>
     </g>
    </g>
    <g id="ytick_5">
     <g id="line2d_13">
      <g>
       <use style="stroke:#000000;stroke-width:0.8;" x="57.6" xlink:href="#m7499d9f7a2" y="159.082527"/>
      </g>
     </g>
     <g id="text_14">
      <!-- 4.150 -->
      <g transform="translate(21.971875 162.881746)scale(0.1 -0.1)">
       <use xlink:href="#DejaVuSans-34"/>
       <use x="63.623047" xlink:href="#DejaVuSans-2e"/>
       <use x="95.410156" xlink:href="#DejaVuSans-31"/>
       <use x="159.033203" xlink:href="#DejaVuSans-35"/>
       <use x="222.65625" xlink:href="#DejaVuSans-30"/>
      </g>
     </g>
    </g>
    <g id="ytick_6">
     <g id="line2d_14">
      <g>
       <use style="stroke:#000000;stroke-width:0.8;" x="57.6" xlink:href="#m7499d9f7a2" y="124.328572"/>
      </g>
     </g>
     <g id="text_15">
      <!-- 4.175 -->
      <g transform="translate(21.971875 128.127791)scale(0.1 -0.1)">
       <use xlink:href="#DejaVuSans-34"/>
       <use x="63.623047" xlink:href="#DejaVuSans-2e"/>
       <use x="95.410156" xlink:href="#DejaVuSans-31"/>
       <use x="159.033203" xlink:href="#DejaVuSans-37"/>
       <use x="222.65625" xlink:href="#DejaVuSans-35"/>
      </g>
     </g>
    </g>
    <g id="ytick_7">
     <g id="line2d_15">
      <g>
       <use style="stroke:#000000;stroke-width:0.8;" x="57.6" xlink:href="#m7499d9f7a2" y="89.574617"/>
      </g>
     </g>
     <g id="text_16">
      <!-- 4.200 -->
      <g transform="translate(21.971875 93.373836)scale(0.1 -0.1)">
       <use xlink:href="#DejaVuSans-34"/>
       <use x="63.623047" xlink:href="#DejaVuSans-2e"/>
       <use x="95.410156" xlink:href="#DejaVuSans-32"/>
       <use x="159.033203" xlink:href="#DejaVuSans-30"/>
       <use x="222.65625" xlink:href="#DejaVuSans-30"/>
      </g>
     </g>
    </g>
    <g id="ytick_8">
     <g id="line2d_16">
      <g>
       <use style="stroke:#000000;stroke-width:0.8;" x="57.6" xlink:href="#m7499d9f7a2" y="54.820662"/>
      </g>
     </g>
     <g id="text_17">
      <!-- 4.225 -->
      <g transform="translate(21.971875 58.619881)scale(0.1 -0.1)">
       <use xlink:href="#DejaVuSans-34"/>
       <use x="63.623047" xlink:href="#DejaVuSans-2e"/>
       <use x="95.410156" xlink:href="#DejaVuSans-32"/>
       <use x="159.033203" xlink:href="#DejaVuSans-32"/>
       <use x="222.65625" xlink:href="#DejaVuSans-35"/>
      </g>
     </g>
    </g>
    <g id="text_18">
     <!-- Loss -->
     <defs>
      <path d="M 9.8125 72.90625 
L 19.671875 72.90625 
L 19.671875 8.296875 
L 55.171875 8.296875 
L 55.171875 0 
L 9.8125 0 
z
" id="DejaVuSans-4c"/>
      <path d="M 30.609375 48.390625 
Q 23.390625 48.390625 19.1875 42.75 
Q 14.984375 37.109375 14.984375 27.296875 
Q 14.984375 17.484375 19.15625 11.84375 
Q 23.34375 6.203125 30.609375 6.203125 
Q 37.796875 6.203125 41.984375 11.859375 
Q 46.1875 17.53125 46.1875 27.296875 
Q 46.1875 37.015625 41.984375 42.703125 
Q 37.796875 48.390625 30.609375 48.390625 
z
M 30.609375 56 
Q 42.328125 56 49.015625 48.375 
Q 55.71875 40.765625 55.71875 27.296875 
Q 55.71875 13.875 49.015625 6.21875 
Q 42.328125 -1.421875 30.609375 -1.421875 
Q 18.84375 -1.421875 12.171875 6.21875 
Q 5.515625 13.875 5.515625 27.296875 
Q 5.515625 40.765625 12.171875 48.375 
Q 18.84375 56 30.609375 56 
z
" id="DejaVuSans-6f"/>
     </defs>
     <g transform="translate(15.892188 185.581906)rotate(-90)scale(0.1 -0.1)">
      <use xlink:href="#DejaVuSans-4c"/>
      <use x="55.697266" xlink:href="#DejaVuSans-6f"/>
      <use x="116.878906" xlink:href="#DejaVuSans-73"/>
      <use x="168.978516" xlink:href="#DejaVuSans-73"/>
     </g>
    </g>
   </g>
   <g id="line2d_17">
    <path clip-path="url(#pb9717cdd72)" d="M 73.832727 178.433896 
L 74.27746 164.6297 
L 74.722192 249.643251 
L 75.166924 175.270114 
L 76.056389 237.204774 
L 76.501121 194.632521 
L 76.945853 164.571624 
L 77.390585 189.260583 
L 77.835318 160.027308 
L 78.28005 214.24779 
L 78.724782 204.235221 
L 79.169514 168.012607 
L 79.614247 202.052426 
L 80.058979 191.552455 
L 80.503711 242.861588 
L 80.948443 203.689377 
L 81.393176 180.416844 
L 81.837908 194.436885 
L 82.28264 192.608761 
L 82.727372 215.25588 
L 83.172105 205.69375 
L 83.616837 183.945729 
L 84.061569 193.544693 
L 84.506301 210.370242 
L 84.951034 177.582383 
L 85.395766 191.686575 
L 85.840498 164.565945 
L 86.28523 222.40506 
L 86.729963 198.648904 
L 87.174695 222.543191 
L 87.619427 213.363692 
L 88.064159 208.125237 
L 88.508892 179.545364 
L 88.953624 218.02752 
L 89.398356 196.121967 
L 89.843088 295.488 
L 90.287821 224.722025 
L 90.732553 201.619147 
L 91.177285 215.634434 
L 91.622017 204.929064 
L 92.06675 186.165102 
L 92.511482 203.594377 
L 92.956214 206.418179 
L 93.400946 216.894114 
L 93.845679 178.852541 
L 94.290411 225.170282 
L 95.179875 173.548632 
L 95.624608 234.898867 
L 96.06934 241.960395 
L 96.514072 172.661279 
L 96.958804 221.198666 
L 97.403537 206.127179 
L 97.848269 204.265285 
L 98.293001 208.810559 
L 98.737733 249.128415 
L 99.182466 182.449699 
L 99.627198 222.912696 
L 100.07193 191.487951 
L 100.516663 197.610648 
L 100.961395 226.184706 
L 101.406127 190.328601 
L 101.850859 213.051356 
L 102.295592 188.755849 
L 102.740324 246.070055 
L 103.185056 205.575459 
L 103.629788 246.502861 
L 104.074521 215.175161 
L 104.519253 212.519999 
L 104.963985 198.422844 
L 105.85345 195.597075 
L 106.298182 170.873892 
L 106.742914 170.324949 
L 107.187646 192.900569 
L 107.632379 199.428015 
L 108.077111 191.018446 
L 108.521843 214.600318 
L 108.966575 198.799789 
L 109.411308 153.428857 
L 109.85604 227.054224 
L 110.300772 198.188687 
L 111.190237 214.995846 
L 111.634969 186.243279 
L 112.079701 197.928324 
L 112.524433 184.414367 
L 112.969166 176.880988 
L 113.413898 209.002834 
L 113.85863 222.926916 
L 114.303362 204.950102 
L 114.748095 169.781725 
L 115.192827 196.266559 
L 115.637559 212.026139 
L 116.082291 206.780982 
L 116.527024 192.933205 
L 116.971756 223.304932 
L 117.416488 151.517105 
L 117.86122 166.464622 
L 118.305953 216.097059 
L 118.750685 178.309448 
L 119.195417 196.051767 
L 119.640149 200.516922 
L 120.084882 231.660446 
L 120.529614 225.587314 
L 120.974346 212.552469 
L 121.419078 140.836591 
L 121.863811 222.022379 
L 122.308543 248.762523 
L 122.753275 192.225551 
L 123.198007 235.725002 
L 124.087472 170.308779 
L 124.532204 153.118405 
L 124.976936 203.287943 
L 125.421669 172.821186 
L 125.866401 170.715795 
L 126.311133 214.90177 
L 126.755866 207.238232 
L 127.200598 179.348035 
L 127.64533 184.990425 
L 128.090062 186.170537 
L 128.979527 237.288618 
L 129.424259 255.421341 
L 129.868991 171.319796 
L 130.313724 195.052046 
L 130.758456 207.691718 
L 131.203188 206.588323 
L 131.64792 196.555588 
L 132.092653 168.371441 
L 132.537385 175.250672 
L 132.982117 169.518787 
L 133.426849 196.300207 
L 133.871582 202.487027 
L 134.316314 270.167938 
L 134.761046 196.626928 
L 135.205778 210.848869 
L 135.650511 198.510173 
L 136.095243 216.660751 
L 136.539975 185.336368 
L 136.984707 186.288683 
L 137.42944 199.838848 
L 137.874172 208.015326 
L 138.318904 200.926174 
L 138.763636 190.740478 
L 139.208369 194.106647 
L 139.653101 221.104546 
L 140.097833 174.626386 
L 140.542565 225.762881 
L 140.987298 157.276467 
L 141.43203 149.610081 
L 141.876762 212.032402 
L 142.321494 191.113489 
L 142.766227 193.387365 
L 143.210959 201.077792 
L 143.655691 253.194875 
L 144.100423 206.442273 
L 144.545156 191.173225 
L 144.989888 247.691023 
L 145.43462 186.480296 
L 145.879352 248.307498 
L 146.324085 216.258257 
L 146.768817 174.130946 
L 147.213549 210.211323 
L 147.658281 212.395824 
L 148.103014 207.753927 
L 148.547746 192.596916 
L 148.992478 187.237087 
L 149.43721 202.352774 
L 149.881943 209.234315 
L 150.326675 199.787044 
L 150.771407 212.621565 
L 151.216139 185.117156 
L 151.660872 212.658895 
L 152.105604 209.814154 
L 152.550336 156.097336 
L 152.995068 202.249726 
L 153.439801 184.197553 
L 153.884533 190.461727 
L 154.329265 159.96583 
L 154.773998 232.180709 
L 155.21873 165.283864 
L 155.663462 198.902139 
L 156.108194 196.512896 
L 156.552927 131.497854 
L 156.997659 169.5719 
L 157.442391 190.293487 
L 157.887123 189.934944 
L 158.776588 221.150621 
L 159.22132 237.745173 
L 159.666052 259.939817 
L 160.110785 248.312902 
L 160.555517 189.156644 
L 161.000249 188.113906 
L 161.444981 194.063384 
L 162.334446 201.300042 
L 162.779178 242.589817 
L 163.668643 179.894391 
L 164.113375 180.612262 
L 164.558107 208.74467 
L 165.002839 199.36809 
L 165.447572 167.375919 
L 166.337036 188.6843 
L 166.781768 211.224272 
L 167.226501 220.091194 
L 167.671233 198.50129 
L 168.115965 186.586764 
L 168.560697 215.632594 
L 169.450162 171.586928 
L 169.894894 282.822672 
L 170.339626 199.007373 
L 170.784359 243.020237 
L 171.229091 166.365453 
L 171.673823 190.524177 
L 172.118555 188.130626 
L 172.563288 189.413182 
L 173.00802 208.238068 
L 173.452752 236.525811 
L 173.897484 147.665485 
L 174.342217 217.986145 
L 174.786949 225.005834 
L 175.231681 218.876341 
L 175.676413 199.211208 
L 176.121146 212.336438 
L 176.565878 171.970414 
L 177.01061 168.261811 
L 177.455342 172.066262 
L 177.900075 183.810851 
L 178.344807 164.020546 
L 178.789539 190.493908 
L 179.234271 183.024371 
L 179.679004 194.04512 
L 180.123736 183.074249 
L 181.0132 202.302015 
L 181.457933 194.822107 
L 181.902665 211.725363 
L 182.347397 210.410332 
L 182.79213 167.478244 
L 183.236862 197.616653 
L 183.681594 182.089452 
L 184.126326 186.75477 
L 184.571059 186.990518 
L 185.015791 177.970705 
L 185.460523 211.336716 
L 185.905255 184.510023 
L 186.349988 218.10196 
L 186.79472 202.359914 
L 187.239452 240.317033 
L 187.684184 241.673283 
L 188.128917 209.198114 
L 188.573649 205.945072 
L 189.018381 218.967112 
L 189.463113 213.489878 
L 189.907846 170.028171 
L 190.352578 203.708619 
L 190.79731 218.336955 
L 191.242042 137.272821 
L 191.686775 228.302083 
L 192.131507 193.266436 
L 192.576239 200.449468 
L 193.020971 180.246791 
L 193.465704 184.029716 
L 193.910436 181.082176 
L 194.355168 227.552639 
L 194.7999 207.846932 
L 195.244633 170.11334 
L 195.689365 192.029803 
L 196.134097 198.306111 
L 196.578829 197.975593 
L 197.023562 205.567691 
L 197.468294 194.909092 
L 197.913026 202.851313 
L 198.357758 212.785772 
L 198.802491 128.243956 
L 199.247223 179.275976 
L 199.691955 189.986646 
L 200.136687 193.603331 
L 200.58142 180.849401 
L 201.026152 178.462374 
L 201.470884 226.611379 
L 201.915616 191.397608 
L 202.360349 225.82357 
L 202.805081 192.266443 
L 203.249813 196.820675 
L 203.694545 192.358275 
L 204.139278 197.269104 
L 204.58401 218.069309 
L 205.028742 170.571436 
L 205.473474 217.0572 
L 205.918207 155.409477 
L 206.362939 195.292724 
L 206.807671 184.418114 
L 207.252403 160.236552 
L 207.697136 219.121521 
L 208.141868 174.125391 
L 208.5866 213.889928 
L 209.031333 178.130401 
L 209.476065 193.323203 
L 209.920797 204.078417 
L 210.365529 203.84452 
L 210.810262 192.183264 
L 211.254994 208.185386 
L 211.699726 197.666034 
L 212.144458 191.706953 
L 212.589191 178.819461 
L 213.033923 139.686351 
L 213.478655 173.614505 
L 213.923387 177.113854 
L 214.36812 206.029963 
L 214.812852 223.173194 
L 215.257584 186.514006 
L 215.702316 198.910297 
L 216.147049 196.05043 
L 217.036513 184.712928 
L 217.481245 189.370192 
L 217.925978 173.526484 
L 218.37071 207.739116 
L 218.815442 183.388866 
L 219.260174 187.311592 
L 219.704907 155.07034 
L 220.594371 237.055629 
L 221.039103 200.4438 
L 221.483836 183.491645 
L 221.928568 200.653584 
L 222.3733 204.649499 
L 222.818032 199.224677 
L 223.262765 174.916419 
L 223.707497 200.651642 
L 224.152229 203.847277 
L 224.596961 196.385418 
L 225.041694 200.034276 
L 225.486426 145.035545 
L 225.931158 211.335053 
L 226.37589 202.313054 
L 227.265355 224.308002 
L 227.710087 202.886155 
L 228.154819 212.011895 
L 228.599552 192.868598 
L 229.044284 206.241991 
L 229.489016 162.689013 
L 229.933748 171.543057 
L 230.378481 211.649793 
L 230.823213 192.964555 
L 231.267945 181.59893 
L 231.712677 191.698828 
L 232.15741 174.277581 
L 232.602142 140.624732 
L 233.491606 219.566214 
L 233.936339 198.141622 
L 234.381071 149.258512 
L 234.825803 165.584183 
L 235.270535 218.808299 
L 235.715268 150.781273 
L 236.16 195.878075 
L 236.604732 187.516404 
L 237.049465 222.794817 
L 237.938929 126.11808 
L 238.383661 214.81263 
L 238.828394 204.455322 
L 239.273126 184.920004 
L 239.717858 188.487515 
L 240.16259 187.731428 
L 240.607323 186.652896 
L 241.052055 156.070479 
L 241.941519 200.190313 
L 242.386252 185.098037 
L 242.830984 208.135534 
L 243.275716 188.189775 
L 243.720448 200.188792 
L 244.165181 193.290388 
L 244.609913 199.295987 
L 245.054645 142.550597 
L 245.499377 238.443839 
L 245.94411 202.399706 
L 246.388842 153.033422 
L 246.833574 208.696652 
L 247.278306 206.281115 
L 247.723039 187.311662 
L 248.167771 193.220087 
L 248.612503 191.157225 
L 249.057235 168.338473 
L 249.501968 210.268164 
L 249.9467 163.312917 
L 250.391432 181.813121 
L 250.836164 147.5037 
L 251.725629 209.691982 
L 252.170361 215.846709 
L 252.615093 231.408991 
L 253.059826 170.225589 
L 253.504558 216.180154 
L 253.94929 209.143355 
L 254.394022 170.535132 
L 254.838755 197.2619 
L 255.283487 211.205818 
L 255.728219 171.611055 
L 256.172951 197.437897 
L 256.617684 178.914536 
L 257.062416 241.604807 
L 257.507148 238.744866 
L 257.95188 182.714306 
L 258.396613 181.116557 
L 258.841345 193.278531 
L 259.286077 197.595514 
L 259.730809 194.911626 
L 260.175542 222.686702 
L 260.620274 192.178856 
L 261.065006 207.59003 
L 261.509738 188.286145 
L 261.954471 217.109433 
L 262.399203 177.328107 
L 262.843935 126.906817 
L 263.288667 213.014273 
L 263.7334 189.251945 
L 264.178132 178.545604 
L 265.067597 204.585235 
L 265.512329 180.011546 
L 265.957061 164.021334 
L 266.401793 169.760206 
L 266.846526 216.944 
L 267.291258 208.08801 
L 267.73599 185.146758 
L 268.180722 240.901401 
L 268.625455 167.144674 
L 269.070187 214.288176 
L 269.514919 190.778375 
L 269.959651 187.620481 
L 270.404384 212.533999 
L 270.849116 136.332433 
L 271.293848 178.228814 
L 271.73858 166.841734 
L 272.183313 213.799762 
L 272.628045 184.593516 
L 273.072777 192.986549 
L 273.517509 181.88177 
L 273.962242 222.837988 
L 274.851706 171.741274 
L 275.296438 201.485932 
L 275.741171 204.185253 
L 276.185903 202.837136 
L 276.630635 125.876782 
L 277.075367 184.091441 
L 277.5201 179.423971 
L 277.964832 165.187808 
L 278.409564 190.692566 
L 278.854296 191.043184 
L 279.299029 136.014083 
L 279.743761 240.850806 
L 280.188493 180.317986 
L 280.633225 242.810393 
L 281.077958 185.779817 
L 281.52269 163.031798 
L 281.967422 175.55521 
L 282.412154 206.344469 
L 282.856887 164.923461 
L 283.746351 218.600471 
L 284.191083 162.188653 
L 285.080548 179.481689 
L 285.52528 179.317885 
L 285.970012 164.330764 
L 286.414745 163.925208 
L 286.859477 201.919923 
L 287.304209 179.109097 
L 287.748941 180.211217 
L 288.193674 179.321618 
L 288.638406 176.842879 
L 289.083138 232.175621 
L 289.52787 202.766363 
L 289.972603 193.883496 
L 290.417335 196.818778 
L 290.862067 173.987411 
L 291.3068 158.030379 
L 291.751532 227.687133 
L 292.196264 157.65101 
L 292.640996 202.588821 
L 293.085729 191.851204 
L 293.530461 149.579129 
L 293.975193 146.848033 
L 294.419925 214.130272 
L 295.30939 177.696721 
L 295.754122 218.137765 
L 296.643587 169.484837 
L 297.088319 188.942612 
L 297.533051 177.01396 
L 297.977783 186.683101 
L 298.422516 192.42728 
L 298.867248 147.954941 
L 299.31198 135.109798 
L 299.756712 128.563578 
L 300.201445 189.314339 
L 300.646177 184.018025 
L 301.090909 185.268405 
L 301.535641 196.447385 
L 301.980374 202.394514 
L 302.425106 211.671732 
L 302.869838 184.687302 
L 303.31457 209.924076 
L 303.759303 110.584131 
L 304.204035 178.635096 
L 304.648767 195.374649 
L 305.093499 196.334632 
L 305.538232 176.312704 
L 305.982964 208.352596 
L 306.427696 191.428913 
L 306.872428 224.212943 
L 307.317161 178.629102 
L 307.761893 178.715927 
L 308.206625 231.824585 
L 308.651357 181.040115 
L 309.09609 161.696857 
L 309.540822 191.741911 
L 309.985554 177.618593 
L 310.430286 223.692815 
L 310.875019 228.366017 
L 311.764483 183.291944 
L 312.209215 188.15844 
L 312.653948 168.796009 
L 313.09868 188.469126 
L 313.543412 187.827194 
L 313.988144 154.443275 
L 314.432877 231.632352 
L 314.877609 168.070613 
L 315.322341 173.608249 
L 315.767073 169.31001 
L 316.211806 179.865845 
L 316.656538 181.75503 
L 317.10127 204.305484 
L 317.546002 174.391947 
L 317.990735 153.023742 
L 319.324932 203.987118 
L 319.769664 197.876604 
L 320.214396 208.035315 
L 320.659128 195.740637 
L 321.103861 174.127003 
L 321.548593 176.581592 
L 321.993325 188.336787 
L 322.438057 195.211244 
L 322.88279 159.83261 
L 323.327522 196.331227 
L 323.772254 215.110426 
L 324.216986 191.474156 
L 324.661719 53.568 
L 325.106451 186.347658 
L 325.551183 226.259356 
L 325.995915 191.556949 
L 326.440648 173.668268 
L 326.88538 210.43065 
L 327.330112 161.445138 
L 327.774844 191.027314 
L 328.219577 202.343528 
L 328.664309 198.580096 
L 329.109041 202.227061 
L 329.553773 200.173568 
L 329.998506 186.845975 
L 330.443238 189.262794 
L 330.88797 198.786696 
L 331.332702 185.535452 
L 331.777435 194.095173 
L 332.222167 184.961238 
L 332.666899 190.763848 
L 333.111631 226.798684 
L 333.556364 183.671348 
L 334.001096 168.332423 
L 334.445828 198.459549 
L 334.89056 156.321086 
L 335.335293 196.551836 
L 335.780025 170.068812 
L 336.224757 181.200454 
L 336.669489 205.648468 
L 337.114222 172.487811 
L 337.558954 186.787885 
L 338.003686 118.391814 
L 338.448418 218.565183 
L 338.893151 174.630609 
L 339.337883 196.51912 
L 339.782615 198.358117 
L 340.227347 187.711364 
L 340.67208 163.709165 
L 341.561544 194.64148 
L 342.006276 171.396253 
L 342.451009 201.135954 
L 342.895741 118.1357 
L 343.340473 166.512502 
L 343.785205 180.852511 
L 344.229938 151.044284 
L 344.67467 163.835322 
L 345.119402 201.956257 
L 345.564134 198.636495 
L 346.008867 148.400125 
L 346.453599 189.100699 
L 346.898331 177.612095 
L 347.343064 174.094722 
L 347.787796 199.278832 
L 348.232528 145.283092 
L 348.67726 206.858783 
L 349.121993 198.700414 
L 349.566725 151.851034 
L 350.011457 164.240672 
L 350.456189 162.340566 
L 350.900922 185.713437 
L 351.345654 186.476004 
L 351.790386 175.314076 
L 352.235118 167.911435 
L 352.679851 167.264237 
L 353.124583 143.278004 
L 353.569315 184.649271 
L 354.014047 197.281231 
L 354.45878 138.376264 
L 354.903512 203.448354 
L 355.348244 160.471126 
L 355.792976 188.156758 
L 356.237709 229.696129 
L 356.682441 189.030493 
L 357.127173 182.109359 
L 357.571905 171.908368 
L 358.016638 180.049572 
L 358.906102 231.88133 
L 359.350834 187.461862 
L 359.795567 201.36187 
L 360.240299 229.6582 
L 360.685031 187.435734 
L 361.129763 182.568044 
L 361.574496 241.401619 
L 362.019228 183.144849 
L 362.46396 172.586438 
L 362.908692 184.018027 
L 363.353425 192.218062 
L 363.798157 182.083098 
L 364.242889 184.235714 
L 364.687621 189.971913 
L 365.132354 183.958258 
L 365.577086 152.698483 
L 366.021818 210.821458 
L 366.911283 186.774433 
L 367.356015 182.603181 
L 367.800747 197.274364 
L 368.245479 232.128072 
L 368.690212 179.311909 
L 369.134944 216.835038 
L 369.579676 185.179671 
L 370.024408 190.455639 
L 370.469141 205.737009 
L 370.913873 186.293886 
L 371.358605 208.798553 
L 371.803337 175.426353 
L 372.24807 173.112629 
L 372.692802 162.266985 
L 373.137534 138.894817 
L 373.582267 217.260938 
L 374.026999 196.813163 
L 374.471731 214.144403 
L 375.361196 169.297526 
L 375.805928 180.154861 
L 376.25066 178.765512 
L 376.695392 86.752973 
L 377.140125 153.780785 
L 377.584857 166.16237 
L 378.029589 132.219865 
L 378.474321 181.197388 
L 378.919054 206.036235 
L 379.363786 177.938939 
L 379.808518 213.910245 
L 380.25325 207.243186 
L 380.697983 129.612309 
L 381.142715 205.966578 
L 381.587447 138.106869 
L 382.032179 200.300351 
L 382.476912 188.276873 
L 382.921644 170.42174 
L 383.366376 174.010651 
L 383.811108 201.002684 
L 384.255841 178.685091 
L 384.700573 178.572899 
L 385.145305 138.115035 
L 385.590037 198.739213 
L 386.03477 177.045815 
L 386.479502 190.299373 
L 387.368966 174.283715 
L 387.813699 159.397014 
L 388.258431 164.859882 
L 388.703163 166.654964 
L 389.147895 167.94986 
L 389.592628 167.679759 
L 390.03736 182.130385 
L 390.482092 212.85978 
L 390.926824 168.079264 
L 391.371557 231.124974 
L 391.816289 187.057644 
L 392.261021 218.555083 
L 392.705753 114.749249 
L 393.150486 171.882707 
L 393.595218 163.372683 
L 394.03995 203.330877 
L 394.484682 176.813167 
L 394.929415 201.048251 
L 395.374147 186.914065 
L 395.818879 231.567707 
L 396.263611 155.580051 
L 396.708344 181.206728 
L 397.153076 184.947178 
L 397.597808 177.472971 
L 398.04254 179.233632 
L 398.487273 213.305298 
L 398.487273 213.305298 
" style="fill:none;stroke:#1f77b4;stroke-linecap:square;stroke-width:1.5;"/>
   </g>
   <g id="patch_3">
    <path d="M 57.6 307.584 
L 57.6 41.472 
" style="fill:none;stroke:#000000;stroke-linecap:square;stroke-linejoin:miter;stroke-width:0.8;"/>
   </g>
   <g id="patch_4">
    <path d="M 414.72 307.584 
L 414.72 41.472 
" style="fill:none;stroke:#000000;stroke-linecap:square;stroke-linejoin:miter;stroke-width:0.8;"/>
   </g>
   <g id="patch_5">
    <path d="M 57.6 307.584 
L 414.72 307.584 
" style="fill:none;stroke:#000000;stroke-linecap:square;stroke-linejoin:miter;stroke-width:0.8;"/>
   </g>
   <g id="patch_6">
    <path d="M 57.6 41.472 
L 414.72 41.472 
" style="fill:none;stroke:#000000;stroke-linecap:square;stroke-linejoin:miter;stroke-width:0.8;"/>
   </g>
   <g id="text_19">
    <!-- cross entropy loss -->
    <defs>
     <path d="M 48.78125 52.59375 
L 48.78125 44.1875 
Q 44.96875 46.296875 41.140625 47.34375 
Q 37.3125 48.390625 33.40625 48.390625 
Q 24.65625 48.390625 19.8125 42.84375 
Q 14.984375 37.3125 14.984375 27.296875 
Q 14.984375 17.28125 19.8125 11.734375 
Q 24.65625 6.203125 33.40625 6.203125 
Q 37.3125 6.203125 41.140625 7.25 
Q 44.96875 8.296875 48.78125 10.40625 
L 48.78125 2.09375 
Q 45.015625 0.34375 40.984375 -0.53125 
Q 36.96875 -1.421875 32.421875 -1.421875 
Q 20.0625 -1.421875 12.78125 6.34375 
Q 5.515625 14.109375 5.515625 27.296875 
Q 5.515625 40.671875 12.859375 48.328125 
Q 20.21875 56 33.015625 56 
Q 37.15625 56 41.109375 55.140625 
Q 45.0625 54.296875 48.78125 52.59375 
z
" id="DejaVuSans-63"/>
     <path d="M 41.109375 46.296875 
Q 39.59375 47.171875 37.8125 47.578125 
Q 36.03125 48 33.890625 48 
Q 26.265625 48 22.1875 43.046875 
Q 18.109375 38.09375 18.109375 28.8125 
L 18.109375 0 
L 9.078125 0 
L 9.078125 54.6875 
L 18.109375 54.6875 
L 18.109375 46.1875 
Q 20.953125 51.171875 25.484375 53.578125 
Q 30.03125 56 36.53125 56 
Q 37.453125 56 38.578125 55.875 
Q 39.703125 55.765625 41.0625 55.515625 
z
" id="DejaVuSans-72"/>
     <path d="M 54.890625 33.015625 
L 54.890625 0 
L 45.90625 0 
L 45.90625 32.71875 
Q 45.90625 40.484375 42.875 44.328125 
Q 39.84375 48.1875 33.796875 48.1875 
Q 26.515625 48.1875 22.3125 43.546875 
Q 18.109375 38.921875 18.109375 30.90625 
L 18.109375 0 
L 9.078125 0 
L 9.078125 54.6875 
L 18.109375 54.6875 
L 18.109375 46.1875 
Q 21.34375 51.125 25.703125 53.5625 
Q 30.078125 56 35.796875 56 
Q 45.21875 56 50.046875 50.171875 
Q 54.890625 44.34375 54.890625 33.015625 
z
" id="DejaVuSans-6e"/>
     <path d="M 32.171875 -5.078125 
Q 28.375 -14.84375 24.75 -17.8125 
Q 21.140625 -20.796875 15.09375 -20.796875 
L 7.90625 -20.796875 
L 7.90625 -13.28125 
L 13.1875 -13.28125 
Q 16.890625 -13.28125 18.9375 -11.515625 
Q 21 -9.765625 23.484375 -3.21875 
L 25.09375 0.875 
L 2.984375 54.6875 
L 12.5 54.6875 
L 29.59375 11.921875 
L 46.6875 54.6875 
L 56.203125 54.6875 
z
" id="DejaVuSans-79"/>
     <path d="M 9.421875 75.984375 
L 18.40625 75.984375 
L 18.40625 0 
L 9.421875 0 
z
" id="DejaVuSans-6c"/>
    </defs>
    <g transform="translate(181.727812 35.472)scale(0.12 -0.12)">
     <use xlink:href="#DejaVuSans-63"/>
     <use x="54.980469" xlink:href="#DejaVuSans-72"/>
     <use x="96.0625" xlink:href="#DejaVuSans-6f"/>
     <use x="157.244141" xlink:href="#DejaVuSans-73"/>
     <use x="209.34375" xlink:href="#DejaVuSans-73"/>
     <use x="261.443359" xlink:href="#DejaVuSans-20"/>
     <use x="293.230469" xlink:href="#DejaVuSans-65"/>
     <use x="354.753906" xlink:href="#DejaVuSans-6e"/>
     <use x="418.132812" xlink:href="#DejaVuSans-74"/>
     <use x="457.341797" xlink:href="#DejaVuSans-72"/>
     <use x="498.423828" xlink:href="#DejaVuSans-6f"/>
     <use x="559.605469" xlink:href="#DejaVuSans-70"/>
     <use x="623.082031" xlink:href="#DejaVuSans-79"/>
     <use x="682.261719" xlink:href="#DejaVuSans-20"/>
     <use x="714.048828" xlink:href="#DejaVuSans-6c"/>
     <use x="741.832031" xlink:href="#DejaVuSans-6f"/>
     <use x="803.013672" xlink:href="#DejaVuSans-73"/>
     <use x="855.113281" xlink:href="#DejaVuSans-73"/>
    </g>
   </g>
  </g>
 </g>
 <defs>
  <clipPath id="pb9717cdd72">
   <rect height="266.112" width="357.12" x="57.6" y="41.472"/>
  </clipPath>
 </defs>
</svg>
