<?xml version="1.0" encoding="utf-8" standalone="no"?>
<!DOCTYPE svg PUBLIC "-//W3C//DTD SVG 1.1//EN"
  "http://www.w3.org/Graphics/SVG/1.1/DTD/svg11.dtd">
<!-- Created with matplotlib (http://matplotlib.org/) -->
<svg height="345.6pt" version="1.1" viewBox="0 0 460.8 345.6" width="460.8pt" xmlns="http://www.w3.org/2000/svg" xmlns:xlink="http://www.w3.org/1999/xlink">
 <defs>
  <style type="text/css">
*{stroke-linecap:butt;stroke-linejoin:round;}
  </style>
 </defs>
 <g id="figure_1">
  <g id="patch_1">
   <path d="M 0 345.6 
L 460.8 345.6 
L 460.8 0 
L 0 0 
z
" style="fill:#ffffff;"/>
  </g>
  <g id="axes_1">
   <g id="patch_2">
    <path d="M 57.6 307.584 
L 414.72 307.584 
L 414.72 41.472 
L 57.6 41.472 
z
" style="fill:#ffffff;"/>
   </g>
   <g id="matplotlib.axis_1">
    <g id="xtick_1">
     <g id="line2d_1">
      <defs>
       <path d="M 0 0 
L 0 3.5 
" id="md67d539219" style="stroke:#000000;stroke-width:0.8;"/>
      </defs>
      <g>
       <use style="stroke:#000000;stroke-width:0.8;" x="73.832727" xlink:href="#md67d539219" y="307.584"/>
      </g>
     </g>
     <g id="text_1">
      <!-- 0 -->
      <defs>
       <path d="M 31.78125 66.40625 
Q 24.171875 66.40625 20.328125 58.90625 
Q 16.5 51.421875 16.5 36.375 
Q 16.5 21.390625 20.328125 13.890625 
Q 24.171875 6.390625 31.78125 6.390625 
Q 39.453125 6.390625 43.28125 13.890625 
Q 47.125 21.390625 47.125 36.375 
Q 47.125 51.421875 43.28125 58.90625 
Q 39.453125 66.40625 31.78125 66.40625 
z
M 31.78125 74.21875 
Q 44.046875 74.21875 50.515625 64.515625 
Q 56.984375 54.828125 56.984375 36.375 
Q 56.984375 17.96875 50.515625 8.265625 
Q 44.046875 -1.421875 31.78125 -1.421875 
Q 19.53125 -1.421875 13.0625 8.265625 
Q 6.59375 17.96875 6.59375 36.375 
Q 6.59375 54.828125 13.0625 64.515625 
Q 19.53125 74.21875 31.78125 74.21875 
z
" id="DejaVuSans-30"/>
      </defs>
      <g transform="translate(70.651477 322.182437)scale(0.1 -0.1)">
       <use xlink:href="#DejaVuSans-30"/>
      </g>
     </g>
    </g>
    <g id="xtick_2">
     <g id="line2d_2">
      <g>
       <use style="stroke:#000000;stroke-width:0.8;" x="138.893758" xlink:href="#md67d539219" y="307.584"/>
      </g>
     </g>
     <g id="text_2">
      <!-- 100 -->
      <defs>
       <path d="M 12.40625 8.296875 
L 28.515625 8.296875 
L 28.515625 63.921875 
L 10.984375 60.40625 
L 10.984375 69.390625 
L 28.421875 72.90625 
L 38.28125 72.90625 
L 38.28125 8.296875 
L 54.390625 8.296875 
L 54.390625 0 
L 12.40625 0 
z
" id="DejaVuSans-31"/>
      </defs>
      <g transform="translate(129.350008 322.182437)scale(0.1 -0.1)">
       <use xlink:href="#DejaVuSans-31"/>
       <use x="63.623047" xlink:href="#DejaVuSans-30"/>
       <use x="127.246094" xlink:href="#DejaVuSans-30"/>
      </g>
     </g>
    </g>
    <g id="xtick_3">
     <g id="line2d_3">
      <g>
       <use style="stroke:#000000;stroke-width:0.8;" x="203.95479" xlink:href="#md67d539219" y="307.584"/>
      </g>
     </g>
     <g id="text_3">
      <!-- 200 -->
      <defs>
       <path d="M 19.1875 8.296875 
L 53.609375 8.296875 
L 53.609375 0 
L 7.328125 0 
L 7.328125 8.296875 
Q 12.9375 14.109375 22.625 23.890625 
Q 32.328125 33.6875 34.8125 36.53125 
Q 39.546875 41.84375 41.421875 45.53125 
Q 43.3125 49.21875 43.3125 52.78125 
Q 43.3125 58.59375 39.234375 62.25 
Q 35.15625 65.921875 28.609375 65.921875 
Q 23.96875 65.921875 18.8125 64.3125 
Q 13.671875 62.703125 7.8125 59.421875 
L 7.8125 69.390625 
Q 13.765625 71.78125 18.9375 73 
Q 24.125 74.21875 28.421875 74.21875 
Q 39.75 74.21875 46.484375 68.546875 
Q 53.21875 62.890625 53.21875 53.421875 
Q 53.21875 48.921875 51.53125 44.890625 
Q 49.859375 40.875 45.40625 35.40625 
Q 44.1875 33.984375 37.640625 27.21875 
Q 31.109375 20.453125 19.1875 8.296875 
z
" id="DejaVuSans-32"/>
      </defs>
      <g transform="translate(194.41104 322.182437)scale(0.1 -0.1)">
       <use xlink:href="#DejaVuSans-32"/>
       <use x="63.623047" xlink:href="#DejaVuSans-30"/>
       <use x="127.246094" xlink:href="#DejaVuSans-30"/>
      </g>
     </g>
    </g>
    <g id="xtick_4">
     <g id="line2d_4">
      <g>
       <use style="stroke:#000000;stroke-width:0.8;" x="269.015821" xlink:href="#md67d539219" y="307.584"/>
      </g>
     </g>
     <g id="text_4">
      <!-- 300 -->
      <defs>
       <path d="M 40.578125 39.3125 
Q 47.65625 37.796875 51.625 33 
Q 55.609375 28.21875 55.609375 21.1875 
Q 55.609375 10.40625 48.1875 4.484375 
Q 40.765625 -1.421875 27.09375 -1.421875 
Q 22.515625 -1.421875 17.65625 -0.515625 
Q 12.796875 0.390625 7.625 2.203125 
L 7.625 11.71875 
Q 11.71875 9.328125 16.59375 8.109375 
Q 21.484375 6.890625 26.8125 6.890625 
Q 36.078125 6.890625 40.9375 10.546875 
Q 45.796875 14.203125 45.796875 21.1875 
Q 45.796875 27.640625 41.28125 31.265625 
Q 36.765625 34.90625 28.71875 34.90625 
L 20.21875 34.90625 
L 20.21875 43.015625 
L 29.109375 43.015625 
Q 36.375 43.015625 40.234375 45.921875 
Q 44.09375 48.828125 44.09375 54.296875 
Q 44.09375 59.90625 40.109375 62.90625 
Q 36.140625 65.921875 28.71875 65.921875 
Q 24.65625 65.921875 20.015625 65.03125 
Q 15.375 64.15625 9.8125 62.3125 
L 9.8125 71.09375 
Q 15.4375 72.65625 20.34375 73.4375 
Q 25.25 74.21875 29.59375 74.21875 
Q 40.828125 74.21875 47.359375 69.109375 
Q 53.90625 64.015625 53.90625 55.328125 
Q 53.90625 49.265625 50.4375 45.09375 
Q 46.96875 40.921875 40.578125 39.3125 
z
" id="DejaVuSans-33"/>
      </defs>
      <g transform="translate(259.472071 322.182437)scale(0.1 -0.1)">
       <use xlink:href="#DejaVuSans-33"/>
       <use x="63.623047" xlink:href="#DejaVuSans-30"/>
       <use x="127.246094" xlink:href="#DejaVuSans-30"/>
      </g>
     </g>
    </g>
    <g id="xtick_5">
     <g id="line2d_5">
      <g>
       <use style="stroke:#000000;stroke-width:0.8;" x="334.076852" xlink:href="#md67d539219" y="307.584"/>
      </g>
     </g>
     <g id="text_5">
      <!-- 400 -->
      <defs>
       <path d="M 37.796875 64.3125 
L 12.890625 25.390625 
L 37.796875 25.390625 
z
M 35.203125 72.90625 
L 47.609375 72.90625 
L 47.609375 25.390625 
L 58.015625 25.390625 
L 58.015625 17.1875 
L 47.609375 17.1875 
L 47.609375 0 
L 37.796875 0 
L 37.796875 17.1875 
L 4.890625 17.1875 
L 4.890625 26.703125 
z
" id="DejaVuSans-34"/>
      </defs>
      <g transform="translate(324.533102 322.182437)scale(0.1 -0.1)">
       <use xlink:href="#DejaVuSans-34"/>
       <use x="63.623047" xlink:href="#DejaVuSans-30"/>
       <use x="127.246094" xlink:href="#DejaVuSans-30"/>
      </g>
     </g>
    </g>
    <g id="xtick_6">
     <g id="line2d_6">
      <g>
       <use style="stroke:#000000;stroke-width:0.8;" x="399.137883" xlink:href="#md67d539219" y="307.584"/>
      </g>
     </g>
     <g id="text_6">
      <!-- 500 -->
      <defs>
       <path d="M 10.796875 72.90625 
L 49.515625 72.90625 
L 49.515625 64.59375 
L 19.828125 64.59375 
L 19.828125 46.734375 
Q 21.96875 47.46875 24.109375 47.828125 
Q 26.265625 48.1875 28.421875 48.1875 
Q 40.625 48.1875 47.75 41.5 
Q 54.890625 34.8125 54.890625 23.390625 
Q 54.890625 11.625 47.5625 5.09375 
Q 40.234375 -1.421875 26.90625 -1.421875 
Q 22.3125 -1.421875 17.546875 -0.640625 
Q 12.796875 0.140625 7.71875 1.703125 
L 7.71875 11.625 
Q 12.109375 9.234375 16.796875 8.0625 
Q 21.484375 6.890625 26.703125 6.890625 
Q 35.15625 6.890625 40.078125 11.328125 
Q 45.015625 15.765625 45.015625 23.390625 
Q 45.015625 31 40.078125 35.4375 
Q 35.15625 39.890625 26.703125 39.890625 
Q 22.75 39.890625 18.8125 39.015625 
Q 14.890625 38.140625 10.796875 36.28125 
z
" id="DejaVuSans-35"/>
      </defs>
      <g transform="translate(389.594133 322.182437)scale(0.1 -0.1)">
       <use xlink:href="#DejaVuSans-35"/>
       <use x="63.623047" xlink:href="#DejaVuSans-30"/>
       <use x="127.246094" xlink:href="#DejaVuSans-30"/>
      </g>
     </g>
    </g>
    <g id="text_7">
     <!-- step passed -->
     <defs>
      <path d="M 44.28125 53.078125 
L 44.28125 44.578125 
Q 40.484375 46.53125 36.375 47.5 
Q 32.28125 48.484375 27.875 48.484375 
Q 21.1875 48.484375 17.84375 46.4375 
Q 14.5 44.390625 14.5 40.28125 
Q 14.5 37.15625 16.890625 35.375 
Q 19.28125 33.59375 26.515625 31.984375 
L 29.59375 31.296875 
Q 39.15625 29.25 43.1875 25.515625 
Q 47.21875 21.78125 47.21875 15.09375 
Q 47.21875 7.46875 41.1875 3.015625 
Q 35.15625 -1.421875 24.609375 -1.421875 
Q 20.21875 -1.421875 15.453125 -0.5625 
Q 10.6875 0.296875 5.421875 2 
L 5.421875 11.28125 
Q 10.40625 8.6875 15.234375 7.390625 
Q 20.0625 6.109375 24.8125 6.109375 
Q 31.15625 6.109375 34.5625 8.28125 
Q 37.984375 10.453125 37.984375 14.40625 
Q 37.984375 18.0625 35.515625 20.015625 
Q 33.0625 21.96875 24.703125 23.78125 
L 21.578125 24.515625 
Q 13.234375 26.265625 9.515625 29.90625 
Q 5.8125 33.546875 5.8125 39.890625 
Q 5.8125 47.609375 11.28125 51.796875 
Q 16.75 56 26.8125 56 
Q 31.78125 56 36.171875 55.265625 
Q 40.578125 54.546875 44.28125 53.078125 
z
" id="DejaVuSans-73"/>
      <path d="M 18.3125 70.21875 
L 18.3125 54.6875 
L 36.8125 54.6875 
L 36.8125 47.703125 
L 18.3125 47.703125 
L 18.3125 18.015625 
Q 18.3125 11.328125 20.140625 9.421875 
Q 21.96875 7.515625 27.59375 7.515625 
L 36.8125 7.515625 
L 36.8125 0 
L 27.59375 0 
Q 17.1875 0 13.234375 3.875 
Q 9.28125 7.765625 9.28125 18.015625 
L 9.28125 47.703125 
L 2.6875 47.703125 
L 2.6875 54.6875 
L 9.28125 54.6875 
L 9.28125 70.21875 
z
" id="DejaVuSans-74"/>
      <path d="M 56.203125 29.59375 
L 56.203125 25.203125 
L 14.890625 25.203125 
Q 15.484375 15.921875 20.484375 11.0625 
Q 25.484375 6.203125 34.421875 6.203125 
Q 39.59375 6.203125 44.453125 7.46875 
Q 49.3125 8.734375 54.109375 11.28125 
L 54.109375 2.78125 
Q 49.265625 0.734375 44.1875 -0.34375 
Q 39.109375 -1.421875 33.890625 -1.421875 
Q 20.796875 -1.421875 13.15625 6.1875 
Q 5.515625 13.8125 5.515625 26.8125 
Q 5.515625 40.234375 12.765625 48.109375 
Q 20.015625 56 32.328125 56 
Q 43.359375 56 49.78125 48.890625 
Q 56.203125 41.796875 56.203125 29.59375 
z
M 47.21875 32.234375 
Q 47.125 39.59375 43.09375 43.984375 
Q 39.0625 48.390625 32.421875 48.390625 
Q 24.90625 48.390625 20.390625 44.140625 
Q 15.875 39.890625 15.1875 32.171875 
z
" id="DejaVuSans-65"/>
      <path d="M 18.109375 8.203125 
L 18.109375 -20.796875 
L 9.078125 -20.796875 
L 9.078125 54.6875 
L 18.109375 54.6875 
L 18.109375 46.390625 
Q 20.953125 51.265625 25.265625 53.625 
Q 29.59375 56 35.59375 56 
Q 45.5625 56 51.78125 48.09375 
Q 58.015625 40.1875 58.015625 27.296875 
Q 58.015625 14.40625 51.78125 6.484375 
Q 45.5625 -1.421875 35.59375 -1.421875 
Q 29.59375 -1.421875 25.265625 0.953125 
Q 20.953125 3.328125 18.109375 8.203125 
z
M 48.6875 27.296875 
Q 48.6875 37.203125 44.609375 42.84375 
Q 40.53125 48.484375 33.40625 48.484375 
Q 26.265625 48.484375 22.1875 42.84375 
Q 18.109375 37.203125 18.109375 27.296875 
Q 18.109375 17.390625 22.1875 11.75 
Q 26.265625 6.109375 33.40625 6.109375 
Q 40.53125 6.109375 44.609375 11.75 
Q 48.6875 17.390625 48.6875 27.296875 
z
" id="DejaVuSans-70"/>
      <path id="DejaVuSans-20"/>
      <path d="M 34.28125 27.484375 
Q 23.390625 27.484375 19.1875 25 
Q 14.984375 22.515625 14.984375 16.5 
Q 14.984375 11.71875 18.140625 8.90625 
Q 21.296875 6.109375 26.703125 6.109375 
Q 34.1875 6.109375 38.703125 11.40625 
Q 43.21875 16.703125 43.21875 25.484375 
L 43.21875 27.484375 
z
M 52.203125 31.203125 
L 52.203125 0 
L 43.21875 0 
L 43.21875 8.296875 
Q 40.140625 3.328125 35.546875 0.953125 
Q 30.953125 -1.421875 24.3125 -1.421875 
Q 15.921875 -1.421875 10.953125 3.296875 
Q 6 8.015625 6 15.921875 
Q 6 25.140625 12.171875 29.828125 
Q 18.359375 34.515625 30.609375 34.515625 
L 43.21875 34.515625 
L 43.21875 35.40625 
Q 43.21875 41.609375 39.140625 45 
Q 35.0625 48.390625 27.6875 48.390625 
Q 23 48.390625 18.546875 47.265625 
Q 14.109375 46.140625 10.015625 43.890625 
L 10.015625 52.203125 
Q 14.9375 54.109375 19.578125 55.046875 
Q 24.21875 56 28.609375 56 
Q 40.484375 56 46.34375 49.84375 
Q 52.203125 43.703125 52.203125 31.203125 
z
" id="DejaVuSans-61"/>
      <path d="M 45.40625 46.390625 
L 45.40625 75.984375 
L 54.390625 75.984375 
L 54.390625 0 
L 45.40625 0 
L 45.40625 8.203125 
Q 42.578125 3.328125 38.25 0.953125 
Q 33.9375 -1.421875 27.875 -1.421875 
Q 17.96875 -1.421875 11.734375 6.484375 
Q 5.515625 14.40625 5.515625 27.296875 
Q 5.515625 40.1875 11.734375 48.09375 
Q 17.96875 56 27.875 56 
Q 33.9375 56 38.25 53.625 
Q 42.578125 51.265625 45.40625 46.390625 
z
M 14.796875 27.296875 
Q 14.796875 17.390625 18.875 11.75 
Q 22.953125 6.109375 30.078125 6.109375 
Q 37.203125 6.109375 41.296875 11.75 
Q 45.40625 17.390625 45.40625 27.296875 
Q 45.40625 37.203125 41.296875 42.84375 
Q 37.203125 48.484375 30.078125 48.484375 
Q 22.953125 48.484375 18.875 42.84375 
Q 14.796875 37.203125 14.796875 27.296875 
z
" id="DejaVuSans-64"/>
     </defs>
     <g transform="translate(206.056875 335.860562)scale(0.1 -0.1)">
      <use xlink:href="#DejaVuSans-73"/>
      <use x="52.099609" xlink:href="#DejaVuSans-74"/>
      <use x="91.308594" xlink:href="#DejaVuSans-65"/>
      <use x="152.832031" xlink:href="#DejaVuSans-70"/>
      <use x="216.308594" xlink:href="#DejaVuSans-20"/>
      <use x="248.095703" xlink:href="#DejaVuSans-70"/>
      <use x="311.572266" xlink:href="#DejaVuSans-61"/>
      <use x="372.851562" xlink:href="#DejaVuSans-73"/>
      <use x="424.951172" xlink:href="#DejaVuSans-73"/>
      <use x="477.050781" xlink:href="#DejaVuSans-65"/>
      <use x="538.574219" xlink:href="#DejaVuSans-64"/>
     </g>
    </g>
   </g>
   <g id="matplotlib.axis_2">
    <g id="ytick_1">
     <g id="line2d_7">
      <defs>
       <path d="M 0 0 
L -3.5 0 
" id="m290bb554b1" style="stroke:#000000;stroke-width:0.8;"/>
      </defs>
      <g>
       <use style="stroke:#000000;stroke-width:0.8;" x="57.6" xlink:href="#m290bb554b1" y="299.476082"/>
      </g>
     </g>
     <g id="text_8">
      <!-- 1 -->
      <g transform="translate(44.2375 303.275301)scale(0.1 -0.1)">
       <use xlink:href="#DejaVuSans-31"/>
      </g>
     </g>
    </g>
    <g id="ytick_2">
     <g id="line2d_8">
      <g>
       <use style="stroke:#000000;stroke-width:0.8;" x="57.6" xlink:href="#m290bb554b1" y="243.511161"/>
      </g>
     </g>
     <g id="text_9">
      <!-- 2 -->
      <g transform="translate(44.2375 247.31038)scale(0.1 -0.1)">
       <use xlink:href="#DejaVuSans-32"/>
      </g>
     </g>
    </g>
    <g id="ytick_3">
     <g id="line2d_9">
      <g>
       <use style="stroke:#000000;stroke-width:0.8;" x="57.6" xlink:href="#m290bb554b1" y="187.546239"/>
      </g>
     </g>
     <g id="text_10">
      <!-- 3 -->
      <g transform="translate(44.2375 191.345458)scale(0.1 -0.1)">
       <use xlink:href="#DejaVuSans-33"/>
      </g>
     </g>
    </g>
    <g id="ytick_4">
     <g id="line2d_10">
      <g>
       <use style="stroke:#000000;stroke-width:0.8;" x="57.6" xlink:href="#m290bb554b1" y="131.581318"/>
      </g>
     </g>
     <g id="text_11">
      <!-- 4 -->
      <g transform="translate(44.2375 135.380536)scale(0.1 -0.1)">
       <use xlink:href="#DejaVuSans-34"/>
      </g>
     </g>
    </g>
    <g id="ytick_5">
     <g id="line2d_11">
      <g>
       <use style="stroke:#000000;stroke-width:0.8;" x="57.6" xlink:href="#m290bb554b1" y="75.616396"/>
      </g>
     </g>
     <g id="text_12">
      <!-- 5 -->
      <g transform="translate(44.2375 79.415615)scale(0.1 -0.1)">
       <use xlink:href="#DejaVuSans-35"/>
      </g>
     </g>
    </g>
    <g id="text_13">
     <!-- Loss -->
     <defs>
      <path d="M 9.8125 72.90625 
L 19.671875 72.90625 
L 19.671875 8.296875 
L 55.171875 8.296875 
L 55.171875 0 
L 9.8125 0 
z
" id="DejaVuSans-4c"/>
      <path d="M 30.609375 48.390625 
Q 23.390625 48.390625 19.1875 42.75 
Q 14.984375 37.109375 14.984375 27.296875 
Q 14.984375 17.484375 19.15625 11.84375 
Q 23.34375 6.203125 30.609375 6.203125 
Q 37.796875 6.203125 41.984375 11.859375 
Q 46.1875 17.53125 46.1875 27.296875 
Q 46.1875 37.015625 41.984375 42.703125 
Q 37.796875 48.390625 30.609375 48.390625 
z
M 30.609375 56 
Q 42.328125 56 49.015625 48.375 
Q 55.71875 40.765625 55.71875 27.296875 
Q 55.71875 13.875 49.015625 6.21875 
Q 42.328125 -1.421875 30.609375 -1.421875 
Q 18.84375 -1.421875 12.171875 6.21875 
Q 5.515625 13.875 5.515625 27.296875 
Q 5.515625 40.765625 12.171875 48.375 
Q 18.84375 56 30.609375 56 
z
" id="DejaVuSans-6f"/>
     </defs>
     <g transform="translate(38.157812 185.581906)rotate(-90)scale(0.1 -0.1)">
      <use xlink:href="#DejaVuSans-4c"/>
      <use x="55.697266" xlink:href="#DejaVuSans-6f"/>
      <use x="116.878906" xlink:href="#DejaVuSans-73"/>
      <use x="168.978516" xlink:href="#DejaVuSans-73"/>
     </g>
    </g>
   </g>
   <g id="line2d_12">
    <path clip-path="url(#pc5d6611463)" d="M 73.832727 127.821946 
L 74.483338 191.316685 
L 75.133948 209.438729 
L 75.784558 190.620874 
L 76.435169 207.559123 
L 77.085779 203.89434 
L 77.736389 195.978503 
L 78.386999 216.805808 
L 79.03761 221.34216 
L 80.33883 238.651215 
L 80.989441 217.734731 
L 81.640051 230.239998 
L 82.290661 236.728157 
L 82.941272 217.998355 
L 83.591882 194.000941 
L 84.242492 201.634457 
L 84.893103 190.108057 
L 85.543713 206.874119 
L 86.194323 199.884433 
L 86.844934 218.526362 
L 87.495544 197.764481 
L 88.146154 215.636072 
L 88.796764 206.141156 
L 89.447375 213.910946 
L 90.097985 183.323625 
L 90.748595 228.22881 
L 91.399206 216.265951 
L 92.049816 218.780553 
L 92.700426 233.242035 
L 93.351037 216.671658 
L 94.001647 233.581127 
L 94.652257 211.164952 
L 95.302868 207.173396 
L 95.953478 198.805091 
L 96.604088 237.770418 
L 97.254698 223.869031 
L 97.905309 214.83152 
L 98.555919 237.404158 
L 99.206529 204.509771 
L 99.85714 251.808395 
L 100.50775 213.442558 
L 101.15836 239.963727 
L 101.808971 217.860156 
L 102.459581 232.212158 
L 103.110191 222.584574 
L 103.760802 224.521489 
L 104.411412 212.852147 
L 105.062022 214.331636 
L 105.712633 222.553612 
L 106.363243 53.568 
L 107.013853 90.979648 
L 108.315074 133.341075 
L 108.965684 138.86909 
L 109.616294 137.081288 
L 110.266905 148.886037 
L 110.917515 145.065532 
L 111.568125 134.429 
L 112.218736 146.353322 
L 112.869346 154.071479 
L 113.519956 158.752568 
L 114.170567 145.697629 
L 114.821177 163.323284 
L 115.471787 140.056419 
L 116.122398 162.479995 
L 116.773008 158.64438 
L 117.423618 160.245888 
L 118.074228 176.060451 
L 118.724839 179.587789 
L 119.375449 153.291334 
L 120.026059 159.889564 
L 120.67667 157.729415 
L 121.32728 154.565233 
L 121.97789 143.772012 
L 122.628501 188.718671 
L 123.279111 165.444431 
L 123.929721 190.150864 
L 124.580332 149.654386 
L 125.230942 150.823221 
L 125.881552 186.195288 
L 126.532163 150.456369 
L 127.182773 151.189632 
L 127.833383 166.326602 
L 128.483993 165.735195 
L 129.134604 153.692786 
L 129.785214 175.04989 
L 130.435824 162.446913 
L 131.086435 165.906429 
L 131.737045 155.327715 
L 132.387655 151.261499 
L 133.038266 209.459809 
L 133.688876 147.660876 
L 134.339486 180.106352 
L 134.990097 168.485754 
L 135.640707 190.753586 
L 136.291317 162.05974 
L 136.941927 194.900849 
L 137.592538 163.743444 
L 138.243148 152.255473 
L 139.544369 199.683796 
L 140.194979 220.576865 
L 140.845589 176.379998 
L 141.4962 216.578386 
L 142.14681 213.441351 
L 142.79742 217.772684 
L 143.448031 204.229506 
L 144.098641 214.351597 
L 144.749251 233.062141 
L 145.399862 181.938468 
L 146.050472 227.534345 
L 146.701082 211.320667 
L 147.351692 189.316648 
L 148.002303 180.358479 
L 148.652913 229.350644 
L 149.303523 219.806751 
L 149.954134 227.576167 
L 150.604744 187.598014 
L 151.255354 233.073543 
L 151.905965 213.902144 
L 152.556575 201.984775 
L 153.207185 240.135266 
L 153.857796 209.838918 
L 155.159016 218.879281 
L 155.809627 233.482766 
L 156.460237 218.09838 
L 157.110847 228.873852 
L 157.761457 200.514656 
L 158.412068 218.838262 
L 159.062678 243.185516 
L 159.713288 226.544856 
L 160.363899 221.462021 
L 161.014509 224.841492 
L 161.665119 189.373546 
L 162.31573 231.542452 
L 162.96634 207.277337 
L 163.61695 234.689267 
L 164.267561 269.84269 
L 164.918171 214.200409 
L 165.568781 255.511218 
L 166.219392 217.338014 
L 166.870002 238.647373 
L 167.520612 234.286698 
L 168.171222 212.76499 
L 168.821833 221.411116 
L 169.472443 212.616056 
L 170.123053 210.66004 
L 170.773664 237.030574 
L 171.424274 163.548169 
L 172.074884 155.315394 
L 172.725495 159.743124 
L 173.376105 148.776813 
L 174.026715 168.118113 
L 174.677326 165.826926 
L 175.327936 188.958045 
L 175.978546 191.778461 
L 177.279767 171.177195 
L 177.930377 189.669767 
L 178.580987 162.011915 
L 179.882208 205.60573 
L 180.532818 190.378907 
L 181.183429 161.06128 
L 181.834039 196.859316 
L 182.484649 166.146271 
L 183.13526 170.759649 
L 183.78587 161.899703 
L 184.43648 197.84987 
L 185.087091 184.771441 
L 185.737701 213.720732 
L 186.388311 208.448685 
L 187.038921 157.684251 
L 187.689532 211.377794 
L 188.340142 202.670977 
L 188.990752 184.769423 
L 189.641363 148.652289 
L 190.291973 190.345036 
L 190.942583 191.478188 
L 191.593194 177.648999 
L 192.243804 207.009359 
L 192.894414 186.290576 
L 193.545025 195.156755 
L 194.195635 190.266487 
L 194.846245 209.36994 
L 195.496856 206.492084 
L 196.147466 199.158192 
L 196.798076 210.88914 
L 197.448686 148.056024 
L 198.099297 171.315085 
L 198.749907 174.090835 
L 199.400517 199.568033 
L 200.051128 194.408946 
L 200.701738 213.505993 
L 201.352348 178.259367 
L 202.002959 180.284724 
L 202.653569 214.035357 
L 203.304179 227.575311 
L 203.95479 231.495711 
L 204.6054 208.024453 
L 205.25601 253.068006 
L 205.906621 228.466984 
L 206.557231 251.454143 
L 207.207841 230.012268 
L 207.858451 232.219713 
L 208.509062 210.165636 
L 209.159672 257.510504 
L 209.810282 194.395428 
L 210.460893 232.498611 
L 211.111503 287.44488 
L 211.762113 279.24701 
L 212.412724 254.045297 
L 213.063334 180.76762 
L 213.713944 237.695626 
L 214.364555 238.144604 
L 215.015165 251.005875 
L 215.665775 246.235775 
L 216.316385 268.357328 
L 216.966996 228.755154 
L 217.617606 254.62159 
L 218.268216 238.571081 
L 218.918827 251.149696 
L 219.569437 246.971544 
L 220.870658 233.468025 
L 221.521268 295.488 
L 222.171878 260.463165 
L 222.822489 255.017247 
L 223.473099 283.575038 
L 224.123709 223.077226 
L 224.77432 281.70254 
L 225.42493 227.434947 
L 226.07554 274.214371 
L 226.72615 226.874344 
L 227.376761 287.678333 
L 228.027371 269.625927 
L 228.677981 231.90435 
L 229.328592 281.394457 
L 229.979202 266.418376 
L 230.629812 262.310143 
L 231.280423 283.262358 
L 231.931033 218.886944 
L 232.581643 280.739516 
L 233.232254 208.928557 
L 233.882864 252.499923 
L 234.533474 252.593814 
L 235.184085 218.109433 
L 235.834695 286.738173 
L 236.485305 189.617358 
L 237.786526 238.093657 
L 238.437136 219.030469 
L 239.738357 261.974994 
L 240.388967 264.392127 
L 241.039577 237.656548 
L 241.690188 251.703814 
L 242.340798 205.018016 
L 242.991408 210.164989 
L 243.642019 261.236889 
L 244.292629 252.722233 
L 244.943239 216.826604 
L 245.59385 248.102716 
L 246.24446 241.511661 
L 246.89507 254.204242 
L 247.54568 264.00681 
L 248.196291 268.711648 
L 248.846901 221.19254 
L 249.497511 206.385328 
L 250.148122 238.82701 
L 250.798732 257.888129 
L 251.449342 202.28366 
L 252.099953 275.127738 
L 252.750563 246.969258 
L 253.401173 207.744633 
L 254.051784 266.18229 
L 254.702394 243.81526 
L 255.353004 267.556482 
L 256.003615 266.40694 
L 256.654225 248.351181 
L 257.304835 245.622898 
L 257.955445 247.712858 
L 258.606056 257.420719 
L 259.256666 236.483149 
L 259.907276 239.74163 
L 260.557887 242.029832 
L 261.208497 213.010607 
L 261.859107 268.693358 
L 262.509718 246.044648 
L 263.160328 269.892799 
L 263.810938 241.071447 
L 264.461549 231.06596 
L 265.112159 241.019065 
L 265.762769 253.020289 
L 266.413379 246.069571 
L 267.06399 260.569137 
L 267.7146 251.308266 
L 268.36521 251.300106 
L 269.015821 198.578305 
L 269.666431 242.844349 
L 270.317041 205.904575 
L 270.967652 242.074179 
L 271.618262 223.036847 
L 272.268872 264.80644 
L 272.919483 261.645996 
L 273.570093 245.380309 
L 274.220703 245.690129 
L 274.871314 281.626717 
L 275.521924 249.629355 
L 276.172534 246.834952 
L 276.823144 250.921663 
L 277.473755 270.41574 
L 278.124365 198.819984 
L 278.774975 276.579091 
L 279.425586 236.767695 
L 280.076196 267.122471 
L 280.726806 263.191595 
L 281.377417 254.331389 
L 282.028027 203.595524 
L 282.678637 202.212193 
L 283.329248 267.75107 
L 283.979858 253.514475 
L 284.630468 228.526873 
L 285.281079 279.972037 
L 285.931689 263.374671 
L 286.582299 242.434124 
L 287.232909 250.131719 
L 287.88352 245.204345 
L 288.53413 269.551049 
L 289.18474 235.506486 
L 289.835351 235.415021 
L 290.485961 215.082313 
L 291.136571 276.861319 
L 291.787182 234.684253 
L 292.437792 262.013484 
L 293.088402 219.941347 
L 293.739013 259.179901 
L 294.389623 275.301813 
L 295.040233 251.207666 
L 295.690844 248.664482 
L 296.341454 274.503198 
L 296.992064 256.966413 
L 297.642674 279.578347 
L 298.293285 284.131522 
L 298.943895 200.375433 
L 299.594505 286.54148 
L 300.245116 238.515972 
L 301.546336 271.233312 
L 302.196947 204.923349 
L 302.847557 244.816866 
L 303.498167 266.5079 
L 304.148778 260.395199 
L 304.799388 235.892042 
L 305.449998 266.705332 
L 306.100608 219.972671 
L 306.751219 264.047264 
L 307.401829 166.673891 
L 308.052439 225.101067 
L 308.70305 248.350028 
L 309.35366 234.006018 
L 310.00427 276.42785 
L 310.654881 257.199147 
L 311.305491 224.581179 
L 311.956101 234.390775 
L 312.606712 247.448163 
L 313.257322 263.7768 
L 313.907932 230.345803 
L 314.558543 254.569572 
L 315.209153 226.620096 
L 315.859763 206.611341 
L 317.160984 247.188576 
L 317.811594 242.480791 
L 318.462204 251.044774 
L 319.112815 243.290483 
L 319.763425 229.515232 
L 320.414035 230.065844 
L 321.064646 259.639425 
L 321.715256 237.868934 
L 322.365866 249.998548 
L 323.016477 267.350887 
L 323.667087 275.497484 
L 324.317697 270.437795 
L 324.968308 268.766355 
L 325.618918 243.310535 
L 326.269528 255.965145 
L 326.920138 251.263769 
L 327.570749 202.441699 
L 328.221359 247.475029 
L 328.871969 241.830322 
L 329.52258 251.463276 
L 330.17319 236.190934 
L 330.8238 260.929565 
L 331.474411 239.747944 
L 332.125021 262.496171 
L 332.775631 265.001988 
L 333.426242 278.724064 
L 334.076852 217.991826 
L 334.727462 232.649281 
L 335.378073 255.319101 
L 336.028683 247.615477 
L 336.679293 263.263284 
L 337.329903 165.365434 
L 337.980514 203.149809 
L 338.631124 251.203575 
L 339.281734 250.289774 
L 339.932345 224.620693 
L 340.582955 214.423261 
L 341.233565 275.87327 
L 341.884176 226.698555 
L 342.534786 244.478155 
L 343.185396 253.968658 
L 343.836007 237.546289 
L 344.486617 212.761553 
L 345.137227 254.346867 
L 345.787837 225.363663 
L 346.438448 227.656631 
L 347.089058 253.669955 
L 347.739668 254.670471 
L 348.390279 213.378141 
L 349.040889 244.594789 
L 349.691499 265.379074 
L 350.34211 264.276771 
L 350.99272 217.592089 
L 351.64333 247.864932 
L 352.293941 225.37718 
L 352.944551 237.466843 
L 353.595161 223.671505 
L 354.245772 244.114148 
L 354.896382 225.384255 
L 355.546992 252.029657 
L 356.197602 198.88708 
L 356.848213 230.045188 
L 357.498823 285.684749 
L 358.149433 253.036778 
L 358.800044 280.8585 
L 360.101264 236.780703 
L 360.751875 265.259394 
L 361.402485 263.880287 
L 362.053095 256.301275 
L 362.703706 286.730245 
L 364.004926 212.642485 
L 364.655537 224.31855 
L 365.306147 247.964102 
L 365.956757 189.21354 
L 366.607367 268.941904 
L 367.257978 234.786614 
L 367.908588 228.716679 
L 368.559198 256.011701 
L 369.209809 260.64686 
L 369.860419 268.916747 
L 370.511029 291.842212 
L 371.16164 239.597467 
L 371.81225 239.213016 
L 372.46286 258.590197 
L 373.113471 290.415949 
L 373.764081 254.685946 
L 374.414691 251.305397 
L 375.065302 291.869049 
L 375.715912 283.572372 
L 376.366522 278.282821 
L 377.017132 268.976114 
L 377.667743 290.957457 
L 378.318353 240.31889 
L 378.968963 257.712048 
L 379.619574 290.560461 
L 380.270184 278.286377 
L 380.920794 254.727877 
L 381.571405 252.927108 
L 382.222015 221.903039 
L 383.523236 279.617005 
L 384.173846 248.106167 
L 384.824456 226.848796 
L 385.475066 257.64751 
L 386.125677 267.693434 
L 386.776287 251.101559 
L 387.426897 285.055136 
L 388.077508 259.025914 
L 388.728118 267.659752 
L 389.378728 289.483014 
L 390.029339 242.700205 
L 390.679949 253.346258 
L 391.330559 216.314128 
L 391.98117 262.317961 
L 392.63178 273.644499 
L 393.28239 221.685001 
L 393.933001 291.186251 
L 394.583611 247.764425 
L 395.884831 294.039693 
L 397.186052 291.069571 
L 397.836662 232.024194 
L 398.487273 270.106897 
L 398.487273 270.106897 
" style="fill:none;stroke:#1f77b4;stroke-linecap:square;stroke-width:1.5;"/>
   </g>
   <g id="patch_3">
    <path d="M 57.6 307.584 
L 57.6 41.472 
" style="fill:none;stroke:#000000;stroke-linecap:square;stroke-linejoin:miter;stroke-width:0.8;"/>
   </g>
   <g id="patch_4">
    <path d="M 414.72 307.584 
L 414.72 41.472 
" style="fill:none;stroke:#000000;stroke-linecap:square;stroke-linejoin:miter;stroke-width:0.8;"/>
   </g>
   <g id="patch_5">
    <path d="M 57.6 307.584 
L 414.72 307.584 
" style="fill:none;stroke:#000000;stroke-linecap:square;stroke-linejoin:miter;stroke-width:0.8;"/>
   </g>
   <g id="patch_6">
    <path d="M 57.6 41.472 
L 414.72 41.472 
" style="fill:none;stroke:#000000;stroke-linecap:square;stroke-linejoin:miter;stroke-width:0.8;"/>
   </g>
   <g id="text_14">
    <!-- cross entropy loss -->
    <defs>
     <path d="M 48.78125 52.59375 
L 48.78125 44.1875 
Q 44.96875 46.296875 41.140625 47.34375 
Q 37.3125 48.390625 33.40625 48.390625 
Q 24.65625 48.390625 19.8125 42.84375 
Q 14.984375 37.3125 14.984375 27.296875 
Q 14.984375 17.28125 19.8125 11.734375 
Q 24.65625 6.203125 33.40625 6.203125 
Q 37.3125 6.203125 41.140625 7.25 
Q 44.96875 8.296875 48.78125 10.40625 
L 48.78125 2.09375 
Q 45.015625 0.34375 40.984375 -0.53125 
Q 36.96875 -1.421875 32.421875 -1.421875 
Q 20.0625 -1.421875 12.78125 6.34375 
Q 5.515625 14.109375 5.515625 27.296875 
Q 5.515625 40.671875 12.859375 48.328125 
Q 20.21875 56 33.015625 56 
Q 37.15625 56 41.109375 55.140625 
Q 45.0625 54.296875 48.78125 52.59375 
z
" id="DejaVuSans-63"/>
     <path d="M 41.109375 46.296875 
Q 39.59375 47.171875 37.8125 47.578125 
Q 36.03125 48 33.890625 48 
Q 26.265625 48 22.1875 43.046875 
Q 18.109375 38.09375 18.109375 28.8125 
L 18.109375 0 
L 9.078125 0 
L 9.078125 54.6875 
L 18.109375 54.6875 
L 18.109375 46.1875 
Q 20.953125 51.171875 25.484375 53.578125 
Q 30.03125 56 36.53125 56 
Q 37.453125 56 38.578125 55.875 
Q 39.703125 55.765625 41.0625 55.515625 
z
" id="DejaVuSans-72"/>
     <path d="M 54.890625 33.015625 
L 54.890625 0 
L 45.90625 0 
L 45.90625 32.71875 
Q 45.90625 40.484375 42.875 44.328125 
Q 39.84375 48.1875 33.796875 48.1875 
Q 26.515625 48.1875 22.3125 43.546875 
Q 18.109375 38.921875 18.109375 30.90625 
L 18.109375 0 
L 9.078125 0 
L 9.078125 54.6875 
L 18.109375 54.6875 
L 18.109375 46.1875 
Q 21.34375 51.125 25.703125 53.5625 
Q 30.078125 56 35.796875 56 
Q 45.21875 56 50.046875 50.171875 
Q 54.890625 44.34375 54.890625 33.015625 
z
" id="DejaVuSans-6e"/>
     <path d="M 32.171875 -5.078125 
Q 28.375 -14.84375 24.75 -17.8125 
Q 21.140625 -20.796875 15.09375 -20.796875 
L 7.90625 -20.796875 
L 7.90625 -13.28125 
L 13.1875 -13.28125 
Q 16.890625 -13.28125 18.9375 -11.515625 
Q 21 -9.765625 23.484375 -3.21875 
L 25.09375 0.875 
L 2.984375 54.6875 
L 12.5 54.6875 
L 29.59375 11.921875 
L 46.6875 54.6875 
L 56.203125 54.6875 
z
" id="DejaVuSans-79"/>
     <path d="M 9.421875 75.984375 
L 18.40625 75.984375 
L 18.40625 0 
L 9.421875 0 
z
" id="DejaVuSans-6c"/>
    </defs>
    <g transform="translate(181.727812 35.472)scale(0.12 -0.12)">
     <use xlink:href="#DejaVuSans-63"/>
     <use x="54.980469" xlink:href="#DejaVuSans-72"/>
     <use x="96.0625" xlink:href="#DejaVuSans-6f"/>
     <use x="157.244141" xlink:href="#DejaVuSans-73"/>
     <use x="209.34375" xlink:href="#DejaVuSans-73"/>
     <use x="261.443359" xlink:href="#DejaVuSans-20"/>
     <use x="293.230469" xlink:href="#DejaVuSans-65"/>
     <use x="354.753906" xlink:href="#DejaVuSans-6e"/>
     <use x="418.132812" xlink:href="#DejaVuSans-74"/>
     <use x="457.341797" xlink:href="#DejaVuSans-72"/>
     <use x="498.423828" xlink:href="#DejaVuSans-6f"/>
     <use x="559.605469" xlink:href="#DejaVuSans-70"/>
     <use x="623.082031" xlink:href="#DejaVuSans-79"/>
     <use x="682.261719" xlink:href="#DejaVuSans-20"/>
     <use x="714.048828" xlink:href="#DejaVuSans-6c"/>
     <use x="741.832031" xlink:href="#DejaVuSans-6f"/>
     <use x="803.013672" xlink:href="#DejaVuSans-73"/>
     <use x="855.113281" xlink:href="#DejaVuSans-73"/>
    </g>
   </g>
  </g>
 </g>
 <defs>
  <clipPath id="pc5d6611463">
   <rect height="266.112" width="357.12" x="57.6" y="41.472"/>
  </clipPath>
 </defs>
</svg>
